<svg xmlns="http://www.w3.org/2000/svg" viewBox="0 0 2113.4 888.13"><defs><style>.cls-1{fill:#555aeb;}.cls-2{fill:#5f77fa;}.cls-3{fill:#0c011c;}</style></defs><title>Imagotipo color</title><g id="Capa_2" data-name="Capa 2"><g id="Imagotipo"><rect class="cls-1" y="800.13" width="38" height="38"/><rect class="cls-1" y="850.13" width="38" height="38"/><rect class="cls-1" y="750.13" width="38" height="38"/><rect class="cls-1" y="700.13" width="38" height="38"/><rect class="cls-1" y="650.13" width="38" height="38"/><rect class="cls-1" x="50" y="800.13" width="38" height="38"/><rect class="cls-1" x="50" y="850.13" width="38" height="38"/><rect class="cls-1" x="50" y="750.13" width="38" height="38"/><rect class="cls-1" x="50" y="700.13" width="38" height="38"/><rect class="cls-1" x="50" y="650.13" width="38" height="38"/><rect class="cls-1" x="100" y="700.13" width="38" height="38"/><rect class="cls-1" x="100" y="650.13" width="38" height="38"/><rect class="cls-1" x="100" y="750.13" width="38" height="38"/><rect class="cls-1" x="100" y="800.13" width="38" height="38"/><rect class="cls-1" x="100" y="850.13" width="38" height="38"/><rect class="cls-1" y="0.13" width="138" height="638"/><path class="cls-2" d="M151,138.13H301c0-.25,99-.25,99,99.75V651.13c0,100-99,99-99,99H150v138H338s200,0,200-199.06V199.93C538,6.88,338,.13,338,.13H139L.13,0,0,138.13Z"/><path class="cls-3" d="M617,284.38H680.4q54.81.15,54.8,60V509.67q0,59.74-57.41,59.89H617Zm41.14,40.56V529h18q17.88,0,17.88-19.34V344.41q0-19.47-17.88-19.47Z"/><path class="cls-3" d="M770.81,284.38H812V569.56H770.81Z"/><path class="cls-3" d="M965.73,514.18q0,59.88-59.16,60t-59-60V339.76q0-59.88,59-59.88t59.16,59.88v38.37H924.59V339.76q0-19.18-17.88-19.33h-.29q-17.73,0-17.73,19.33V514.18q0,19.34,17.88,19.33t18-19.33V447.32H906.71v-40.7h59Z"/><path class="cls-3" d="M1001.33,284.38h41.14V569.56h-41.14Z"/><path class="cls-3" d="M1187.53,284.38v40.56H1149V569.56h-41.13V324.94h-38.52V284.38Z"/><path class="cls-3" d="M1320.52,468.39l13.37,101.17h-41.57l-8-60.47h-42l-8.14,60.47h-41.42l13.37-100.73,29.07-184.45h56.4Zm-41.57,0-15.7-118.6-15.69,118.6Z"/><path class="cls-3" d="M1358.6,569.56V284.38h41.14V529h65.55v40.55Z"/><path class="cls-3" d="M1490.72,284.38h41.14V569.56h-41.14Z"/><path class="cls-3" d="M1567.47,339.76q0-59.88,59-59.88,59.16,0,59.16,59.88v38.37H1644.5V339.76q0-19.18-17.87-19.33h-.3q-17.73,0-17.73,19.33v25.87q0,19,38.52,46.66t38.52,65.84v36q0,60-59,60-59.16-.15-59.16-60V475.81h41.13v38.37q0,19.34,18,19.33,17.86,0,17.87-19.33V481.62q0-20.64-38.51-48.25t-38.52-66.86Z"/><path class="cls-3" d="M1827.06,284.38v40.56h-38.52V569.56h-41.13V324.94h-38.52V284.38Z"/><path class="cls-3" d="M1960.06,468.39l13.37,101.17h-41.57l-8-60.47h-42l-8.14,60.47h-41.43l13.38-100.73,29.07-184.45h56.39Zm-41.57,0-15.7-118.6-15.7,118.6Z"/><path class="cls-3" d="M1995.23,339.76q0-59.88,59-59.88,59.16,0,59.16,59.88v38.37h-41.13V339.76q0-19.18-17.88-19.33h-.29q-17.74,0-17.74,19.33v25.87q0,19,38.52,46.66t38.52,65.84v36q0,60-59,60-59.16-.15-59.16-60V475.81h41.13v38.37q0,19.34,18,19.33,17.88,0,17.88-19.33V481.62q0-20.64-38.52-48.25t-38.52-66.86Z"/></g></g></svg>