<svg xmlns="http://www.w3.org/2000/svg" viewBox="0 0 2125.77 888.13"><defs><style>.cls-1{fill:#f0ebf2;}</style></defs><title>Imagotipo completo positivo</title><g id="Capa_2" data-name="Capa 2"><g id="Imagotipo_grande" data-name="Imagotipo grande"><path class="cls-1" d="M602.43,157.22h64.42q55.7.15,55.7,61v168q0,60.72-58.36,60.87H602.43Zm41.81,41.22V405.88h18.32q18.18,0,18.18-19.65v-168q0-19.8-18.18-19.8Z"/><path class="cls-1" d="M758.75,157.22h41.81V447.1H758.75Z"/><path class="cls-1" d="M956.88,390.81q0,60.87-60.14,61-60,0-60-61V213.51q0-60.87,60-60.87,60.13,0,60.14,60.87v39H915.06v-39q0-19.5-18.17-19.65h-.29q-18,0-18,19.65v177.3q0,19.65,18.17,19.65,18.33,0,18.32-19.65v-68H896.89V281.48h60Z"/><path class="cls-1" d="M993.08,157.22h41.81V447.1H993.08Z"/><path class="cls-1" d="M1182.34,157.22v41.22h-39.15V447.1h-41.82V198.44h-39.15V157.22Z"/><path class="cls-1" d="M1317.53,344.27l13.59,102.83h-42.25l-8.13-61.46H1238l-8.27,61.46h-42.11l13.59-102.39,29.55-187.49h57.33Zm-42.26,0-16-120.56-16,120.56Z"/><path class="cls-1" d="M1356.24,447.1V157.22h41.81V405.88h66.64V447.1Z"/><path class="cls-1" d="M1490.54,157.22h41.81V447.1h-41.81Z"/><path class="cls-1" d="M1568.55,213.51q0-60.87,60-60.87t60.13,60.87v39h-41.81v-39q0-19.5-18.17-19.65h-.3q-18,0-18,19.65v26.3q0,19.37,39.16,47.43t39.15,66.93v36.64q0,61-60,61-60.15-.15-60.14-61v-39h41.81v39q0,19.65,18.33,19.65,18.16,0,18.17-19.65v-33.1q0-21-39.15-49-39.17-27.92-39.16-68Z"/><path class="cls-1" d="M1832.43,157.22v41.22h-39.15V447.1h-41.82V198.44h-39.15V157.22Z"/><path class="cls-1" d="M1967.62,344.27l13.59,102.83H1939l-8.13-61.46h-42.7l-8.27,61.46h-42.11l13.59-102.39,29.55-187.49h57.33Zm-42.26,0-15.95-120.56-16,120.56Z"/><path class="cls-1" d="M2003.37,213.51q0-60.87,60-60.87t60.13,60.87v39h-41.81v-39q0-19.5-18.17-19.65h-.3q-18,0-18,19.65v26.3q0,19.37,39.16,47.43t39.15,66.93v36.64q0,61-60,61-60.14-.15-60.14-61v-39h41.81v39q0,19.65,18.33,19.65,18.16,0,18.17-19.65v-33.1q0-21-39.15-49-39.16-27.92-39.16-68Z"/><path class="cls-1" d="M619.24,532.68v29.57H604.56V492.13h50v12.25H619.24v15.94h30.84v12.36Z"/><path class="cls-1" d="M690.1,562.25V555q-5.28,8.65-16.16,8.66a18,18,0,0,1-7.13-1.38,15.73,15.73,0,0,1-5.54-3.91,18.46,18.46,0,0,1-3.64-6,21.75,21.75,0,0,1-1.32-7.82V510.29H670V542.4q0,9.72,8.77,9.71c3.52,0,6.18-1.1,8-3.32a13.06,13.06,0,0,0,2.7-8.5v-30h13.62v52Z"/><path class="cls-1" d="M742.59,562.25V530.78q0-6-2-8.13t-6.87-2.11q-10.66,0-10.67,11.93v29.78H709.32v-52h13.1v7.61a16.62,16.62,0,0,1,6.44-6.71,20.93,20.93,0,0,1,10.35-2.27,20.66,20.66,0,0,1,6.87,1.11,14.72,14.72,0,0,1,5.44,3.32,16.08,16.08,0,0,1,3.59,5.44,19.54,19.54,0,0,1,1.32,7.45v36Z"/><path class="cls-1" d="M798.67,562.25l-.11-6.33q-4.74,7.71-14.46,7.71a21.42,21.42,0,0,1-9.09-1.91,19.71,19.71,0,0,1-7.07-5.49,26.65,26.65,0,0,1-4.65-8.76,37.61,37.61,0,0,1-1.69-11.73A38.7,38.7,0,0,1,763,524.92a25.57,25.57,0,0,1,4.17-8.5,18.86,18.86,0,0,1,6.7-5.55,20.18,20.18,0,0,1,9-1.95q9.62,0,15.42,8.13V491.28h13.52v71Zm-11.41-9.82a10.23,10.23,0,0,0,8.29-4.12c2.22-2.74,3.33-6.34,3.33-10.77q0-16.9-11.51-16.9-11.83,0-11.83,16.05,0,7,3.28,11.36A10.08,10.08,0,0,0,787.26,552.43Z"/><path class="cls-1" d="M850.63,562.25a21,21,0,0,1-.84-4.64,17,17,0,0,1-6.45,4.38,24.46,24.46,0,0,1-9.29,1.64q-9,0-13.15-4a13.57,13.57,0,0,1-4.17-10.3,19,19,0,0,1,1.79-8.93,13.42,13.42,0,0,1,5-5.22,23.87,23.87,0,0,1,7.55-2.8q4.38-.9,9.56-1.64t7-1.95a4.83,4.83,0,0,0-.58-7.92,12.4,12.4,0,0,0-6.39-1.43q-4.76,0-6.81,2.11a9.86,9.86,0,0,0-2.59,5.6H818.42a23.49,23.49,0,0,1,1.32-7.39,14.09,14.09,0,0,1,3.91-5.81,18.19,18.19,0,0,1,7-3.75,36.63,36.63,0,0,1,10.56-1.32,34.5,34.5,0,0,1,10.4,1.37,16.86,16.86,0,0,1,6.87,4,15.21,15.21,0,0,1,3.75,6.44,30.38,30.38,0,0,1,1.16,8.72v32.84Zm-1-25.45a7.46,7.46,0,0,1-3.06,1.69,56.72,56.72,0,0,1-5.81,1.37c-3.95.78-6.66,1.76-8.13,3a6.27,6.27,0,0,0-2.22,5.18q0,5.81,6.65,5.8a13.19,13.19,0,0,0,4.91-.89,12,12,0,0,0,6.55-6,9.91,9.91,0,0,0,1-4.39Z"/><path class="cls-1" d="M916.43,543.45A22,22,0,0,1,908.61,558a24.07,24.07,0,0,1-7.23,4.12,25.75,25.75,0,0,1-8.82,1.48,26,26,0,0,1-9.67-1.75,19.89,19.89,0,0,1-7.55-5.28,24.65,24.65,0,0,1-4.91-8.76,38.69,38.69,0,0,1-1.74-12.2,37.18,37.18,0,0,1,1.74-12,21.66,21.66,0,0,1,4.91-8.29A19.94,19.94,0,0,1,883,510.5a30,30,0,0,1,10-1.58,29.58,29.58,0,0,1,9.24,1.37,21.87,21.87,0,0,1,7.29,4,19.38,19.38,0,0,1,4.91,6.34,22.16,22.16,0,0,1,2.11,8.24H902.7a9.52,9.52,0,0,0-3.22-6.28,9.89,9.89,0,0,0-6.61-2.28,11.28,11.28,0,0,0-4.11.74,8,8,0,0,0-3.33,2.49,13,13,0,0,0-2.27,4.64,25.64,25.64,0,0,0-.85,7.13q0,8.55,3.07,12.68t7.07,4.11a10.89,10.89,0,0,0,6.87-2.21,8.87,8.87,0,0,0,3.27-6.45Z"/><path class="cls-1" d="M921,504.06V491.28H934.7v12.78Zm0,58.19v-52H934.7v52Z"/><path class="cls-1" d="M966.7,563.63a29.94,29.94,0,0,1-11.31-2,23.2,23.2,0,0,1-13.62-14.26A32.91,32.91,0,0,1,940,536.27a32.51,32.51,0,0,1,1.84-11.19,23.5,23.5,0,0,1,13.73-14.21,30,30,0,0,1,11.15-1.95,29.27,29.27,0,0,1,11,1.95A23.18,23.18,0,0,1,991.25,525a32.87,32.87,0,0,1,1.85,11.3,32.37,32.37,0,0,1-1.85,11.25,24.63,24.63,0,0,1-5.28,8.61,23.31,23.31,0,0,1-8.34,5.54A29.42,29.42,0,0,1,966.7,563.63Zm0-11.52q12.56,0,12.56-15.84T966.7,520.54q-12.57,0-12.57,15.73T966.7,552.11ZM960,503.74l-3.27-5.81,21.86-12.77,5,8.66Z"/><path class="cls-1" d="M1031.54,562.25V530.78q0-6-2-8.13c-1.34-1.41-3.62-2.11-6.86-2.11q-10.67,0-10.67,11.93v29.78H998.27v-52h13.1v7.61a16.62,16.62,0,0,1,6.44-6.71,20.91,20.91,0,0,1,10.35-2.27A20.6,20.6,0,0,1,1035,510a14.56,14.56,0,0,1,5.44,3.32,15.93,15.93,0,0,1,3.59,5.44,19.54,19.54,0,0,1,1.32,7.45v36Z"/><path class="cls-1" d="M1077,562.25V492.13h14.68v57.34h34.75v12.78Z"/><path class="cls-1" d="M1162.92,562.25a20.47,20.47,0,0,1-.84-4.64,17.05,17.05,0,0,1-6.45,4.38,24.46,24.46,0,0,1-9.29,1.64q-9,0-13.15-4a13.57,13.57,0,0,1-4.17-10.3,19,19,0,0,1,1.79-8.93,13.42,13.42,0,0,1,5-5.22,23.87,23.87,0,0,1,7.55-2.8q4.38-.9,9.56-1.64t7-1.95a4.83,4.83,0,0,0-.58-7.92,12.4,12.4,0,0,0-6.39-1.43q-4.76,0-6.82,2.11a9.92,9.92,0,0,0-2.58,5.6h-12.78a23.49,23.49,0,0,1,1.32-7.39,14.09,14.09,0,0,1,3.91-5.81,18.19,18.19,0,0,1,7-3.75,36.63,36.63,0,0,1,10.56-1.32,34.5,34.5,0,0,1,10.4,1.37,16.92,16.92,0,0,1,6.87,4,15.21,15.21,0,0,1,3.75,6.44,30.38,30.38,0,0,1,1.16,8.72v32.84Zm-1-25.45a7.52,7.52,0,0,1-3.06,1.69,56.72,56.72,0,0,1-5.81,1.37c-3.95.78-6.66,1.76-8.13,3a6.27,6.27,0,0,0-2.22,5.18q0,5.81,6.65,5.8a13.19,13.19,0,0,0,4.91-.89,12,12,0,0,0,6.55-6,9.91,9.91,0,0,0,1-4.39Z"/><path class="cls-1" d="M1211.39,528h12.78v14.79a25.36,25.36,0,0,1-1.21,7.87,18.43,18.43,0,0,1-3.8,6.65,18.22,18.22,0,0,1-6.55,4.6,24.11,24.11,0,0,1-9.45,1.69,25.14,25.14,0,0,1-9.72-1.69,18.25,18.25,0,0,1-6.6-4.55,17.1,17.1,0,0,1-3.75-6.65,27.12,27.12,0,0,1-1.16-8V496.25h13.52v14h28.72V520h-28.72v21.33q0,5,1.84,7.66c1.24,1.79,3.26,2.69,6.08,2.69s4.77-.88,6.07-2.64,2-4.26,2-7.5Z"/><path class="cls-1" d="M1230.3,504.06V491.28H1244v12.78Zm0,58.19v-52H1244v52Z"/><path class="cls-1" d="M1283.74,562.25V530.78q0-6-2-8.13t-6.87-2.11q-10.66,0-10.66,11.93v29.78h-13.73v-52h13.09v7.61a16.64,16.64,0,0,1,6.45-6.71,20.88,20.88,0,0,1,10.35-2.27,20.6,20.6,0,0,1,6.86,1.11,14.72,14.72,0,0,1,5.44,3.32,16.08,16.08,0,0,1,3.59,5.44,19.54,19.54,0,0,1,1.32,7.45v36Z"/><path class="cls-1" d="M1329.36,563.63a29.88,29.88,0,0,1-11.3-2,23.18,23.18,0,0,1-13.63-14.26,33.16,33.16,0,0,1-1.79-11.09,32.51,32.51,0,0,1,1.85-11.19,24.08,24.08,0,0,1,5.33-8.66,23.75,23.75,0,0,1,8.4-5.55,30,30,0,0,1,11.14-1.95,29.27,29.27,0,0,1,11,1.95,23.18,23.18,0,0,1,13.57,14.1,32.63,32.63,0,0,1,1.85,11.3,32.14,32.14,0,0,1-1.85,11.25,24.63,24.63,0,0,1-5.28,8.61,23.22,23.22,0,0,1-8.34,5.54A29.38,29.38,0,0,1,1329.36,563.63Zm0-11.52q12.57,0,12.57-15.84t-12.57-15.73q-12.57,0-12.57,15.73T1329.36,552.11Z"/><path class="cls-1" d="M1393.47,562.25a20.45,20.45,0,0,1-.85-4.64,17,17,0,0,1-6.44,4.38,24.55,24.55,0,0,1-9.3,1.64q-9,0-13.15-4a13.57,13.57,0,0,1-4.17-10.3,18.84,18.84,0,0,1,1.8-8.93,13.4,13.4,0,0,1,5-5.22,23.87,23.87,0,0,1,7.55-2.8q4.38-.9,9.56-1.64t7-1.95a4.82,4.82,0,0,0-.58-7.92,12.35,12.35,0,0,0-6.39-1.43q-4.76,0-6.81,2.11a9.93,9.93,0,0,0-2.59,5.6h-12.78a23.49,23.49,0,0,1,1.32-7.39,14.09,14.09,0,0,1,3.91-5.81,18.34,18.34,0,0,1,7-3.75,36.65,36.65,0,0,1,10.57-1.32,34.5,34.5,0,0,1,10.4,1.37,16.81,16.81,0,0,1,6.86,4,15,15,0,0,1,3.75,6.44,30,30,0,0,1,1.16,8.72v32.84Zm-1-25.45a7.39,7.39,0,0,1-3.06,1.69,56.08,56.08,0,0,1-5.81,1.37c-3.94.78-6.65,1.76-8.13,3a6.27,6.27,0,0,0-2.22,5.18q0,5.81,6.66,5.8a13.22,13.22,0,0,0,4.91-.89,12.43,12.43,0,0,0,3.91-2.43,12.23,12.23,0,0,0,2.64-3.59,10,10,0,0,0,1-4.39Z"/><path class="cls-1" d="M1473.41,562.25V530.78a12.5,12.5,0,0,0-2.22-7.71,7,7,0,0,0-5.91-3,7.66,7.66,0,0,0-6.28,3.17,12.41,12.41,0,0,0-2.49,7.92v31h-13.73V531a26,26,0,0,0-.42-5.17,6.9,6.9,0,0,0-1.42-3.17,5.35,5.35,0,0,0-2.59-1.64,13.24,13.24,0,0,0-3.8-.47q-8.35,0-8.35,10.13v31.58h-13.73v-52h12.89v7.61q2.64-5.17,6.34-7.08a19.14,19.14,0,0,1,8.87-1.9,23.72,23.72,0,0,1,4.7.42,11.31,11.31,0,0,1,3.69,1.43,15.38,15.38,0,0,1,3.12,2.58,31,31,0,0,1,3,3.81,13.88,13.88,0,0,1,5.59-6.29,17.08,17.08,0,0,1,8.45-1.95,19,19,0,0,1,7.18,1.32,16.06,16.06,0,0,1,5.6,3.7,17.39,17.39,0,0,1,5,12.3v36Z"/><path class="cls-1" d="M1504.89,539.86q.31,5.92,3.43,9.4a10.41,10.41,0,0,0,8.18,3.49,11.53,11.53,0,0,0,6-1.53,7,7,0,0,0,3.33-4.28H1540a22.84,22.84,0,0,1-8.45,12.36,24,24,0,0,1-14.36,4.33q-26,0-26-28.31a33.17,33.17,0,0,1,1.68-10.88,23.55,23.55,0,0,1,4.92-8.34,21.21,21.21,0,0,1,7.86-5.33,28.78,28.78,0,0,1,10.67-1.85q12,0,18.22,7.71t6.18,23.23Zm21.65-8.66a14.57,14.57,0,0,0-1-5,10.51,10.51,0,0,0-2.37-3.59,9.6,9.6,0,0,0-3.38-2.12,11.62,11.62,0,0,0-3.91-.68,9.73,9.73,0,0,0-7.13,3,12.79,12.79,0,0,0-3.43,8.39Z"/><path class="cls-1" d="M1545.65,562.25v-52h12.88v6.23a17,17,0,0,1,3.54-4.12,15.53,15.53,0,0,1,3.8-2.27,14.56,14.56,0,0,1,4-1,39.25,39.25,0,0,1,4.11-.21h1.8v14a23.28,23.28,0,0,0-3.8-.31q-12.57,0-12.57,12.57v27Z"/><path class="cls-1" d="M1580.08,504.06V491.28h13.73v12.78Zm0,58.19v-52h13.73v52Z"/><path class="cls-1" d="M1647,543.45a22.12,22.12,0,0,1-2.59,8.24,22.37,22.37,0,0,1-5.23,6.34,24.07,24.07,0,0,1-7.23,4.12,27.32,27.32,0,0,1-18.49-.27,19.82,19.82,0,0,1-7.55-5.28,24.65,24.65,0,0,1-4.91-8.76,38.69,38.69,0,0,1-1.74-12.2,37.18,37.18,0,0,1,1.74-12,21.66,21.66,0,0,1,4.91-8.29,19.86,19.86,0,0,1,7.66-4.81,30,30,0,0,1,10-1.58,29.58,29.58,0,0,1,9.24,1.37,21.87,21.87,0,0,1,7.29,4,19.51,19.51,0,0,1,4.91,6.34,22.16,22.16,0,0,1,2.11,8.24h-13.83a9.52,9.52,0,0,0-3.22-6.28,9.89,9.89,0,0,0-6.61-2.28,11.28,11.28,0,0,0-4.11.74,8,8,0,0,0-3.33,2.49,13,13,0,0,0-2.27,4.64,25.64,25.64,0,0,0-.85,7.13q0,8.55,3.07,12.68c2,2.74,4.39,4.11,7.07,4.11a10.89,10.89,0,0,0,6.87-2.21,8.87,8.87,0,0,0,3.27-6.45Z"/><path class="cls-1" d="M1683.79,562.25a21,21,0,0,1-.85-4.64,17,17,0,0,1-6.44,4.38,24.49,24.49,0,0,1-9.29,1.64q-9,0-13.15-4a13.57,13.57,0,0,1-4.17-10.3,18.85,18.85,0,0,1,1.79-8.93,13.35,13.35,0,0,1,5-5.22,23.78,23.78,0,0,1,7.55-2.8q4.38-.9,9.55-1.64c3.45-.49,5.78-1.14,7-1.95a4.82,4.82,0,0,0-.58-7.92,12.35,12.35,0,0,0-6.39-1.43q-4.74,0-6.81,2.11a10,10,0,0,0-2.59,5.6h-12.77a23.49,23.49,0,0,1,1.32-7.39,14.07,14.07,0,0,1,3.9-5.81,18.31,18.31,0,0,1,7-3.75,36.53,36.53,0,0,1,10.56-1.32,34.5,34.5,0,0,1,10.4,1.37,16.92,16.92,0,0,1,6.87,4,15.09,15.09,0,0,1,3.74,6.44,30,30,0,0,1,1.17,8.72v32.84Zm-1-25.45a7.5,7.5,0,0,1-3.07,1.69,55.77,55.77,0,0,1-5.8,1.37c-4,.78-6.66,1.76-8.14,3a6.27,6.27,0,0,0-2.21,5.18q0,5.81,6.65,5.8a13.19,13.19,0,0,0,4.91-.89,12,12,0,0,0,6.55-6,9.91,9.91,0,0,0,1-4.39Z"/><path class="cls-1" d="M1736.06,562.25V530.78q0-6-2-8.13t-6.87-2.11q-10.67,0-10.66,11.93v29.78H1702.8v-52h13.09v7.61a16.64,16.64,0,0,1,6.45-6.71,20.88,20.88,0,0,1,10.35-2.27,20.6,20.6,0,0,1,6.86,1.11,14.72,14.72,0,0,1,5.44,3.32,16.08,16.08,0,0,1,3.59,5.44,19.54,19.54,0,0,1,1.32,7.45v36Z"/><path class="cls-1" d="M1788.66,562.25a21,21,0,0,1-.85-4.64,16.93,16.93,0,0,1-6.44,4.38,24.49,24.49,0,0,1-9.29,1.64q-9,0-13.15-4a13.57,13.57,0,0,1-4.17-10.3,18.85,18.85,0,0,1,1.79-8.93,13.35,13.35,0,0,1,5-5.22,23.87,23.87,0,0,1,7.55-2.8q4.38-.9,9.56-1.64c3.44-.49,5.77-1.14,7-1.95a4.83,4.83,0,0,0-.59-7.92,12.33,12.33,0,0,0-6.38-1.43q-4.76,0-6.82,2.11a9.92,9.92,0,0,0-2.58,5.6h-12.78a23.49,23.49,0,0,1,1.32-7.39,14.17,14.17,0,0,1,3.9-5.81,18.31,18.31,0,0,1,7-3.75,36.53,36.53,0,0,1,10.56-1.32,34.5,34.5,0,0,1,10.4,1.37,16.92,16.92,0,0,1,6.87,4,15.21,15.21,0,0,1,3.75,6.44,30.38,30.38,0,0,1,1.16,8.72v32.84Zm-1-25.45a7.52,7.52,0,0,1-3.06,1.69,56.72,56.72,0,0,1-5.81,1.37c-3.95.78-6.66,1.76-8.13,3a6.27,6.27,0,0,0-2.22,5.18q0,5.81,6.65,5.8a13.19,13.19,0,0,0,4.91-.89,12,12,0,0,0,6.55-6,9.91,9.91,0,0,0,1-4.39Z"/><path class="cls-1" d="M1833.33,586.86V510.29h13.2l.11,6.34q4.75-7.71,14.47-7.71a21.47,21.47,0,0,1,9,1.9,19.88,19.88,0,0,1,7.13,5.49,26.6,26.6,0,0,1,4.64,8.77,37.59,37.59,0,0,1,1.69,11.72,38.84,38.84,0,0,1-1.42,10.83,25.66,25.66,0,0,1-4.17,8.5,19,19,0,0,1-6.71,5.54,20.18,20.18,0,0,1-9,2q-9.62,0-15.42-8.14v31.37Zm24.5-35q11.84,0,11.83-16,0-7-3.27-11.35a10.11,10.11,0,0,0-8.45-4.39,10.27,10.27,0,0,0-8.29,4.12q-3.33,4.13-3.33,10.77Q1846.32,551.91,1857.83,551.9Z"/><path class="cls-1" d="M1921.31,562.25a20.45,20.45,0,0,1-.85-4.64A17,17,0,0,1,1914,562a24.49,24.49,0,0,1-9.29,1.64q-9,0-13.15-4a13.58,13.58,0,0,1-4.18-10.3,18.84,18.84,0,0,1,1.8-8.93,13.4,13.4,0,0,1,5-5.22,23.93,23.93,0,0,1,7.56-2.8q4.38-.9,9.55-1.64c3.45-.49,5.78-1.14,7-1.95a4.82,4.82,0,0,0-.58-7.92,12.35,12.35,0,0,0-6.39-1.43c-3.16,0-5.44.7-6.81,2.11a10,10,0,0,0-2.59,5.6H1889.1a23.21,23.21,0,0,1,1.31-7.39,14.19,14.19,0,0,1,3.91-5.81,18.31,18.31,0,0,1,7-3.75,36.53,36.53,0,0,1,10.56-1.32,34.5,34.5,0,0,1,10.4,1.37,16.92,16.92,0,0,1,6.87,4,15.09,15.09,0,0,1,3.74,6.44,30,30,0,0,1,1.17,8.72v32.84Zm-1-25.45a7.5,7.5,0,0,1-3.07,1.69,55.77,55.77,0,0,1-5.8,1.37c-4,.78-6.66,1.76-8.14,3a6.27,6.27,0,0,0-2.22,5.18q0,5.81,6.66,5.8a13.22,13.22,0,0,0,4.91-.89,12.43,12.43,0,0,0,3.91-2.43,12.23,12.23,0,0,0,2.64-3.59,9.91,9.91,0,0,0,1-4.39Z"/><path class="cls-1" d="M1940.32,562.25v-52h12.88v6.23a17,17,0,0,1,3.54-4.12,15.53,15.53,0,0,1,3.8-2.27,14.41,14.41,0,0,1,4-1,39.59,39.59,0,0,1,4.12-.21h1.8v14a23.31,23.31,0,0,0-3.81-.31q-12.57,0-12.57,12.57v27Z"/><path class="cls-1" d="M2004.42,562.25a21,21,0,0,1-.84-4.64,17,17,0,0,1-6.44,4.38,24.55,24.55,0,0,1-9.3,1.64q-9,0-13.15-4a13.57,13.57,0,0,1-4.17-10.3,18.84,18.84,0,0,1,1.8-8.93,13.33,13.33,0,0,1,5-5.22,23.87,23.87,0,0,1,7.55-2.8q4.38-.9,9.56-1.64t7-1.95a4.82,4.82,0,0,0-.58-7.92,12.35,12.35,0,0,0-6.39-1.43q-4.76,0-6.81,2.11a9.86,9.86,0,0,0-2.59,5.6h-12.78a23.49,23.49,0,0,1,1.32-7.39,14.09,14.09,0,0,1,3.91-5.81,18.26,18.26,0,0,1,7-3.75,36.63,36.63,0,0,1,10.56-1.32,34.52,34.52,0,0,1,10.41,1.37,16.88,16.88,0,0,1,6.86,4,15,15,0,0,1,3.75,6.44,30.38,30.38,0,0,1,1.16,8.72v32.84Zm-1-25.45a7.39,7.39,0,0,1-3.06,1.69,56.08,56.08,0,0,1-5.81,1.37c-3.94.78-6.65,1.76-8.13,3a6.27,6.27,0,0,0-2.22,5.18q0,5.81,6.65,5.8a13.27,13.27,0,0,0,4.92-.89,12,12,0,0,0,6.54-6,9.92,9.92,0,0,0,1-4.39Z"/><path class="cls-1" d="M2061.66,539.86q.33,5.92,3.44,9.4a10.41,10.41,0,0,0,8.18,3.49,11.53,11.53,0,0,0,6-1.53,7,7,0,0,0,3.33-4.28h14.15a22.84,22.84,0,0,1-8.45,12.36,24,24,0,0,1-14.36,4.33q-26,0-26-28.31a33.17,33.17,0,0,1,1.68-10.88,23.55,23.55,0,0,1,4.92-8.34,21.13,21.13,0,0,1,7.86-5.33,28.78,28.78,0,0,1,10.67-1.85q12,0,18.22,7.71t6.18,23.23Zm21.66-8.66a14.57,14.57,0,0,0-1-5,10.51,10.51,0,0,0-2.37-3.59,9.6,9.6,0,0,0-3.38-2.12,11.66,11.66,0,0,0-3.91-.68,9.73,9.73,0,0,0-7.13,3,12.79,12.79,0,0,0-3.43,8.39Z"/><path class="cls-1" d="M2102.43,562.25v-71h13.73v71Z"/><path class="cls-1" d="M604.56,682.45V612.32H631.7a35.42,35.42,0,0,1,13.09,2.38,28.75,28.75,0,0,1,10.3,6.81,31.63,31.63,0,0,1,6.71,10.78,39.85,39.85,0,0,1,2.43,14.36,46.86,46.86,0,0,1-2.17,14.63,33,33,0,0,1-6.18,11.3,27.8,27.8,0,0,1-9.61,7.28,29,29,0,0,1-12.35,2.59ZM631,670.52q9.62,0,13.94-6t4.33-17.9a42,42,0,0,0-1.06-10.14,16.1,16.1,0,0,0-3.43-6.92,13.6,13.6,0,0,0-6.07-3.91,29.33,29.33,0,0,0-9-1.21H618.81v46Z"/><path class="cls-1" d="M681.76,660.06q.32,5.91,3.43,9.4a10.48,10.48,0,0,0,8.18,3.49,11.39,11.39,0,0,0,6-1.54,6.9,6.9,0,0,0,3.33-4.27h14.15a22.72,22.72,0,0,1-8.45,12.35A23.91,23.91,0,0,1,694,683.82q-26,0-26-28.3a32.91,32.91,0,0,1,1.69-10.88,23.3,23.3,0,0,1,4.91-8.34A21.27,21.27,0,0,1,682.5,631a28.69,28.69,0,0,1,10.66-1.84q12,0,18.22,7.71t6.18,23.23Zm21.65-8.66a14.45,14.45,0,0,0-1-5,10.46,10.46,0,0,0-2.37-3.59,9.49,9.49,0,0,0-3.38-2.11,11.37,11.37,0,0,0-3.91-.68,9.75,9.75,0,0,0-7.13,3,12.84,12.84,0,0,0-3.43,8.39Z"/><path class="cls-1" d="M753.79,646.23c-.36-2.54-1.27-4.32-2.75-5.34s-3.8-1.53-7-1.53a14.55,14.55,0,0,0-6,1,3.43,3.43,0,0,0-2.11,3.33,3.86,3.86,0,0,0,2.11,3.54,28.68,28.68,0,0,0,6.34,2.38c3,.84,5.77,1.6,8.44,2.27a64.5,64.5,0,0,1,7.08,2.16,14.82,14.82,0,0,1,6.34,4.6q2.22,2.9,2.22,8,0,8.13-5.76,12.67t-17,4.54q-12,0-18.43-5.07a16.44,16.44,0,0,1-6.6-13h14.15a6.57,6.57,0,0,0,2.85,5.71c1.9,1.34,4.54,2,7.92,2a15.78,15.78,0,0,0,6.44-1.21,4.23,4.23,0,0,0,2.75-4.17,4,4,0,0,0-2.48-3.91,33.56,33.56,0,0,0-5.86-2q-6.56-1.57-10.56-2.85a27.07,27.07,0,0,1-6.76-3.06,13.22,13.22,0,0,1-5.12-5.28,14.51,14.51,0,0,1-1.43-6.44,16.16,16.16,0,0,1,1.16-6.13,11.89,11.89,0,0,1,3.8-4.91,19.43,19.43,0,0,1,6.81-3.22,37.88,37.88,0,0,1,10.09-1.16q11.29,0,16.63,4.33T767,646.23Z"/><path class="cls-1" d="M805.11,682.45a21.25,21.25,0,0,1-.84-4.65,16.88,16.88,0,0,1-6.45,4.39,24.46,24.46,0,0,1-9.29,1.63q-9,0-13.15-4a13.55,13.55,0,0,1-4.17-10.29,19,19,0,0,1,1.79-8.93,13.45,13.45,0,0,1,5-5.23,23.87,23.87,0,0,1,7.55-2.79q4.38-.9,9.56-1.64c3.45-.49,5.77-1.15,7-2a4.83,4.83,0,0,0-.58-7.92,12.4,12.4,0,0,0-6.39-1.42q-4.76,0-6.81,2.11a9.83,9.83,0,0,0-2.59,5.6H772.9a23.49,23.49,0,0,1,1.32-7.39,14.09,14.09,0,0,1,3.91-5.81,18.19,18.19,0,0,1,7-3.75,36.63,36.63,0,0,1,10.56-1.32,34.5,34.5,0,0,1,10.4,1.37,16.86,16.86,0,0,1,6.87,4,15.21,15.21,0,0,1,3.75,6.44,30.38,30.38,0,0,1,1.16,8.72v32.84Zm-1-25.45a7.46,7.46,0,0,1-3.06,1.69,56.72,56.72,0,0,1-5.81,1.37c-3.95.78-6.66,1.76-8.13,3a6.27,6.27,0,0,0-2.22,5.17q0,5.82,6.65,5.81a13.19,13.19,0,0,0,4.91-.9,12,12,0,0,0,3.91-2.42,12.15,12.15,0,0,0,2.64-3.6,9.83,9.83,0,0,0,1-4.38Z"/><path class="cls-1" d="M824.12,682.45v-52H837v6.23a17,17,0,0,1,3.54-4.12,15.53,15.53,0,0,1,3.8-2.27,14.56,14.56,0,0,1,4-1,39.25,39.25,0,0,1,4.11-.21h1.8v14a23.28,23.28,0,0,0-3.8-.31q-12.57,0-12.57,12.56v27Z"/><path class="cls-1" d="M858.23,682.45v-52h12.89v6.23a16.62,16.62,0,0,1,3.54-4.12,15.35,15.35,0,0,1,3.8-2.27,14.41,14.41,0,0,1,4-1,39.44,39.44,0,0,1,4.12-.21h1.79v14a23.19,23.19,0,0,0-3.8-.31q-12.57,0-12.57,12.56v27Z"/><path class="cls-1" d="M914.74,683.82a30,30,0,0,1-11.3-2,23.18,23.18,0,0,1-13.63-14.26A33,33,0,0,1,888,656.47a32.51,32.51,0,0,1,1.84-11.19,24.09,24.09,0,0,1,5.34-8.67,23.78,23.78,0,0,1,8.39-5.54,30,30,0,0,1,11.15-2,29.27,29.27,0,0,1,11,2,23.66,23.66,0,0,1,8.29,5.49,23.92,23.92,0,0,1,5.28,8.61,32.87,32.87,0,0,1,1.85,11.3,32.41,32.41,0,0,1-1.85,11.25,24.63,24.63,0,0,1-5.28,8.61,23.31,23.31,0,0,1-8.34,5.54A29.42,29.42,0,0,1,914.74,683.82Zm0-11.51q12.56,0,12.56-15.84t-12.56-15.74q-12.57,0-12.57,15.74T914.74,672.31Z"/><path class="cls-1" d="M946.31,682.45v-71H960v71Z"/><path class="cls-1" d="M966.06,682.45v-71h13.73v71Z"/><path class="cls-1" d="M1011.37,683.82a30.08,30.08,0,0,1-11.3-2,23.18,23.18,0,0,1-13.63-14.26,33.2,33.2,0,0,1-1.79-11.09,32.28,32.28,0,0,1,1.85-11.19,24.21,24.21,0,0,1,5.33-8.67,23.73,23.73,0,0,1,8.4-5.54,30,30,0,0,1,11.14-2,29.27,29.27,0,0,1,11,2,23.66,23.66,0,0,1,8.29,5.49,23.92,23.92,0,0,1,5.28,8.61,32.87,32.87,0,0,1,1.85,11.3,32.41,32.41,0,0,1-1.85,11.25,24.63,24.63,0,0,1-5.28,8.61,23.31,23.31,0,0,1-8.34,5.54A29.38,29.38,0,0,1,1011.37,683.82Zm0-11.51q12.57,0,12.57-15.84t-12.57-15.74q-12.57,0-12.57,15.74T1011.37,672.31Z"/><path class="cls-1" d="M1104.62,682.45l-.1-6.34q-4.76,7.71-14.47,7.71a21.34,21.34,0,0,1-9.08-1.9,19.66,19.66,0,0,1-7.08-5.49,26.65,26.65,0,0,1-4.65-8.76,37.91,37.91,0,0,1-1.69-11.73,38.7,38.7,0,0,1,1.43-10.82,25.62,25.62,0,0,1,4.17-8.51,18.86,18.86,0,0,1,6.71-5.54,20.18,20.18,0,0,1,9-2q9.6,0,15.42,8.13V611.48h13.51v71Zm-11.4-9.82a10.25,10.25,0,0,0,8.29-4.12q3.33-4.12,3.32-10.77,0-16.9-11.51-16.9-11.82,0-11.83,16,0,7,3.28,11.36A10.1,10.1,0,0,0,1093.22,672.63Z"/><path class="cls-1" d="M1136.62,660.06a14.87,14.87,0,0,0,3.43,9.4,10.48,10.48,0,0,0,8.19,3.49,11.44,11.44,0,0,0,6-1.54,6.92,6.92,0,0,0,3.32-4.27h14.16a22.83,22.83,0,0,1-8.45,12.35,24,24,0,0,1-14.37,4.33q-26,0-26-28.3a32.91,32.91,0,0,1,1.69-10.88,23.44,23.44,0,0,1,4.91-8.34,21.27,21.27,0,0,1,7.87-5.34,28.75,28.75,0,0,1,10.67-1.84q12,0,18.22,7.71t6.17,23.23Zm21.65-8.66a14.45,14.45,0,0,0-1-5,10.48,10.48,0,0,0-2.38-3.59,9.4,9.4,0,0,0-3.38-2.11,11.32,11.32,0,0,0-3.9-.68,9.72,9.72,0,0,0-7.13,3,12.85,12.85,0,0,0-3.44,8.39Z"/><path class="cls-1" d="M1202.73,682.45V612.32h31a23.63,23.63,0,0,1,9.29,1.75,20.82,20.82,0,0,1,7.08,4.85,21.81,21.81,0,0,1,4.54,7.24,24.42,24.42,0,0,1,1.58,8.87,24,24,0,0,1-1.58,8.82,19.72,19.72,0,0,1-4.54,7,21,21,0,0,1-7.08,4.54,25,25,0,0,1-9.29,1.64h-16.27v25.45Zm28.62-37.39q6.35,0,9.14-2.9a10.45,10.45,0,0,0,2.8-7.55,10,10,0,0,0-2.8-7.29q-2.81-2.85-9.14-2.85h-13.94v20.59Z"/><path class="cls-1" d="M1272.23,660.06q.32,5.91,3.43,9.4a10.46,10.46,0,0,0,8.18,3.49,11.42,11.42,0,0,0,6-1.54,6.93,6.93,0,0,0,3.33-4.27h14.15a22.77,22.77,0,0,1-8.45,12.35,23.91,23.91,0,0,1-14.36,4.33q-26,0-26-28.3a32.91,32.91,0,0,1,1.69-10.88,23.3,23.3,0,0,1,4.91-8.34A21.19,21.19,0,0,1,1273,631a28.69,28.69,0,0,1,10.66-1.84q12,0,18.22,7.71t6.18,23.23Zm21.65-8.66a14.45,14.45,0,0,0-1-5,10.46,10.46,0,0,0-2.37-3.59,9.49,9.49,0,0,0-3.38-2.11,11.37,11.37,0,0,0-3.91-.68,9.73,9.73,0,0,0-7.13,3,12.84,12.84,0,0,0-3.43,8.39Z"/><path class="cls-1" d="M1349,682.45l-.11-6.34q-4.76,7.71-14.47,7.71a21.34,21.34,0,0,1-9.08-1.9,19.66,19.66,0,0,1-7.08-5.49,26.45,26.45,0,0,1-4.64-8.76,37.61,37.61,0,0,1-1.69-11.73,38.71,38.71,0,0,1,1.42-10.82,25.62,25.62,0,0,1,4.17-8.51,18.86,18.86,0,0,1,6.71-5.54,20.18,20.18,0,0,1,9-2q9.62,0,15.42,8.13V611.48h13.52v71Zm-11.41-9.82a10.24,10.24,0,0,0,8.29-4.12q3.33-4.12,3.33-10.77,0-16.9-11.52-16.9-11.82,0-11.82,16,0,7,3.27,11.36A10.1,10.1,0,0,0,1337.6,672.63Z"/><path class="cls-1" d="M1401,682.45a20.64,20.64,0,0,1-.85-4.65,16.92,16.92,0,0,1-6.44,4.39,24.5,24.5,0,0,1-9.29,1.63q-9,0-13.15-4a13.56,13.56,0,0,1-4.18-10.29,18.84,18.84,0,0,1,1.8-8.93,13.43,13.43,0,0,1,5-5.23,23.93,23.93,0,0,1,7.56-2.79q4.38-.9,9.55-1.64c3.45-.49,5.78-1.15,7-2a4.82,4.82,0,0,0-.58-7.92,12.35,12.35,0,0,0-6.39-1.42q-4.76,0-6.81,2.11a10,10,0,0,0-2.59,5.6h-12.77a23.21,23.21,0,0,1,1.31-7.39,14.19,14.19,0,0,1,3.91-5.81,18.31,18.31,0,0,1,7-3.75,36.53,36.53,0,0,1,10.56-1.32,34.5,34.5,0,0,1,10.4,1.37,16.92,16.92,0,0,1,6.87,4,15.09,15.09,0,0,1,3.74,6.44,30,30,0,0,1,1.17,8.72v32.84ZM1400,657a7.5,7.5,0,0,1-3.07,1.69,55.77,55.77,0,0,1-5.8,1.37c-4,.78-6.66,1.76-8.14,3a6.27,6.27,0,0,0-2.22,5.17q0,5.82,6.66,5.81a13.23,13.23,0,0,0,4.91-.9,11.88,11.88,0,0,0,6.55-6,9.83,9.83,0,0,0,1-4.38Z"/><path class="cls-1" d="M1456.2,675.48a10.83,10.83,0,0,1-5.33,5.44,19.54,19.54,0,0,1-8.93,2,23.25,23.25,0,0,1-10.82-2.27,20,20,0,0,1-7.08-6,24.39,24.39,0,0,1-3.9-8.56,40.31,40.31,0,0,1-1.22-9.93,32.43,32.43,0,0,1,1.8-11,26.48,26.48,0,0,1,4.85-8.56,21.76,21.76,0,0,1,7.19-5.49,20.44,20.44,0,0,1,8.87-2q9.7,0,14.57,7.81v-6.44h13.73V683a25.23,25.23,0,0,1-2,10.4,21,21,0,0,1-5.49,7.5,23.9,23.9,0,0,1-8.24,4.59,33.38,33.38,0,0,1-20.17.06,23.87,23.87,0,0,1-8-4.33,20,20,0,0,1-5.23-6.82,20.89,20.89,0,0,1-1.9-9.08h12.78a9,9,0,0,0,3.12,7.34,12.5,12.5,0,0,0,8.29,2.59,14.49,14.49,0,0,0,9.29-3,9.9,9.9,0,0,0,3.8-8.18Zm-11.3-3.38a10.62,10.62,0,0,0,8.4-3.85q3.33-3.86,3.32-10.51,0-16.69-11.72-16.69t-11.72,15.84q0,7,3.32,11.09A10.35,10.35,0,0,0,1444.9,672.1Z"/><path class="cls-1" d="M1501.72,683.82a30.08,30.08,0,0,1-11.3-2,23.18,23.18,0,0,1-13.63-14.26,33.2,33.2,0,0,1-1.79-11.09,32.28,32.28,0,0,1,1.85-11.19,24.21,24.21,0,0,1,5.33-8.67,23.73,23.73,0,0,1,8.4-5.54,30,30,0,0,1,11.14-2,29.27,29.27,0,0,1,11,2,23.66,23.66,0,0,1,8.29,5.49,23.92,23.92,0,0,1,5.28,8.61,32.63,32.63,0,0,1,1.85,11.3,32.18,32.18,0,0,1-1.85,11.25,24.63,24.63,0,0,1-5.28,8.61,23.31,23.31,0,0,1-8.34,5.54A29.38,29.38,0,0,1,1501.72,683.82Zm0-11.51q12.57,0,12.57-15.84t-12.57-15.74q-12.57,0-12.57,15.74T1501.72,672.31Z"/><path class="cls-1" d="M1569.52,675.48a10.83,10.83,0,0,1-5.33,5.44,19.54,19.54,0,0,1-8.93,2,23.25,23.25,0,0,1-10.82-2.27,20,20,0,0,1-7.08-6,24.58,24.58,0,0,1-3.91-8.56,40.78,40.78,0,0,1-1.21-9.93,32.43,32.43,0,0,1,1.8-11,26.48,26.48,0,0,1,4.85-8.56,21.72,21.72,0,0,1,7.18-5.49,20.51,20.51,0,0,1,8.88-2q9.71,0,14.57,7.81v-6.44h13.73V683a25.23,25.23,0,0,1-2,10.4,21,21,0,0,1-5.49,7.5,23.9,23.9,0,0,1-8.24,4.59,33.38,33.38,0,0,1-20.17.06,23.87,23.87,0,0,1-8-4.33,20,20,0,0,1-5.23-6.82,20.89,20.89,0,0,1-1.9-9.08H1545a9,9,0,0,0,3.11,7.34,12.55,12.55,0,0,0,8.3,2.59,14.49,14.49,0,0,0,9.29-3,9.9,9.9,0,0,0,3.8-8.18Zm-11.3-3.38a10.62,10.62,0,0,0,8.4-3.85q3.32-3.86,3.32-10.51,0-16.69-11.72-16.69t-11.72,15.84q0,7,3.32,11.09A10.35,10.35,0,0,0,1558.22,672.1Z"/><path class="cls-1" d="M1594.23,623.94l-3.27-5.81,21.86-12.78,5,8.66Zm-.21,58.51v-52h13.73v52Z"/><path class="cls-1" d="M1651,682.45a20.64,20.64,0,0,1-.85-4.65,16.92,16.92,0,0,1-6.44,4.39,24.5,24.5,0,0,1-9.29,1.63q-9,0-13.15-4a13.56,13.56,0,0,1-4.18-10.29,18.84,18.84,0,0,1,1.8-8.93,13.43,13.43,0,0,1,5-5.23,23.93,23.93,0,0,1,7.56-2.79q4.38-.9,9.55-1.64c3.45-.49,5.78-1.15,7-2a4.82,4.82,0,0,0-.58-7.92,12.35,12.35,0,0,0-6.39-1.42q-4.76,0-6.81,2.11a10,10,0,0,0-2.59,5.6h-12.77a23.21,23.21,0,0,1,1.31-7.39,14.19,14.19,0,0,1,3.91-5.81,18.31,18.31,0,0,1,7-3.75,36.53,36.53,0,0,1,10.56-1.32,34.5,34.5,0,0,1,10.4,1.37,16.92,16.92,0,0,1,6.87,4,15.09,15.09,0,0,1,3.74,6.44,30,30,0,0,1,1.17,8.72v32.84ZM1650,657a7.5,7.5,0,0,1-3.07,1.69,55.77,55.77,0,0,1-5.8,1.37c-4,.78-6.66,1.76-8.14,3a6.27,6.27,0,0,0-2.22,5.17q0,5.82,6.66,5.81a13.23,13.23,0,0,0,4.91-.9,11.88,11.88,0,0,0,6.55-6,9.83,9.83,0,0,0,1-4.38Z"/><path class="cls-1" d="M1701.22,646.23c-.36-2.54-1.27-4.32-2.75-5.34s-3.8-1.53-7-1.53a14.58,14.58,0,0,0-6,1,3.43,3.43,0,0,0-2.11,3.33,3.86,3.86,0,0,0,2.11,3.54,28.68,28.68,0,0,0,6.34,2.38c3,.84,5.77,1.6,8.45,2.27a65,65,0,0,1,7.07,2.16,14.82,14.82,0,0,1,6.34,4.6q2.22,2.9,2.22,8,0,8.13-5.76,12.67t-17,4.54q-12,0-18.43-5.07a16.44,16.44,0,0,1-6.6-13h14.15a6.57,6.57,0,0,0,2.85,5.71c1.91,1.34,4.55,2,7.93,2a15.81,15.81,0,0,0,6.44-1.21,4.24,4.24,0,0,0,2.74-4.17,4,4,0,0,0-2.48-3.91,33.28,33.28,0,0,0-5.86-2q-6.56-1.57-10.56-2.85a27.07,27.07,0,0,1-6.76-3.06,13.22,13.22,0,0,1-5.12-5.28,14.64,14.64,0,0,1-1.43-6.44,16.16,16.16,0,0,1,1.16-6.13,11.83,11.83,0,0,1,3.81-4.91,19.43,19.43,0,0,1,6.81-3.22,37.75,37.75,0,0,1,10.08-1.16q11.31,0,16.64,4.33t5.86,12.78Z"/><path class="cls-1" d="M1745.36,682.45V612.32h27.14a35.44,35.44,0,0,1,13.1,2.38,28.84,28.84,0,0,1,10.3,6.81,31.61,31.61,0,0,1,6.7,10.78,39.85,39.85,0,0,1,2.43,14.36,46.86,46.86,0,0,1-2.16,14.63,33.3,33.3,0,0,1-6.18,11.3,27.89,27.89,0,0,1-9.61,7.28,29,29,0,0,1-12.36,2.59Zm26.4-11.93q9.62,0,14-6t4.33-17.9a42.54,42.54,0,0,0-1.06-10.14,16.21,16.21,0,0,0-3.43-6.92,13.63,13.63,0,0,0-6.08-3.91,29.22,29.22,0,0,0-9-1.21h-10.88v46Z"/><path class="cls-1" d="M1810.31,624.26V611.48H1824v12.78Zm0,58.19v-52H1824v52Z"/><path class="cls-1" d="M1866.71,675.48a10.85,10.85,0,0,1-5.34,5.44,19.5,19.5,0,0,1-8.92,2,23.3,23.3,0,0,1-10.83-2.27,19.86,19.86,0,0,1-7.07-6,24.4,24.4,0,0,1-3.91-8.56,40.78,40.78,0,0,1-1.21-9.93,32.43,32.43,0,0,1,1.79-11,26.69,26.69,0,0,1,4.86-8.56,21.72,21.72,0,0,1,7.18-5.49,20.47,20.47,0,0,1,8.87-2q9.72,0,14.58,7.81v-6.44h13.73V683a25.23,25.23,0,0,1-2,10.4,21.28,21.28,0,0,1-5.49,7.5,24,24,0,0,1-8.24,4.59,33.38,33.38,0,0,1-20.17.06,23.78,23.78,0,0,1-8-4.33,19.86,19.86,0,0,1-5.23-6.82,20.89,20.89,0,0,1-1.9-9.08h12.78a9,9,0,0,0,3.11,7.34,12.54,12.54,0,0,0,8.29,2.59,14.52,14.52,0,0,0,9.3-3,9.9,9.9,0,0,0,3.8-8.18Zm-11.3-3.38a10.59,10.59,0,0,0,8.39-3.85q3.33-3.86,3.33-10.51,0-16.69-11.72-16.69t-11.73,15.84q0,7,3.33,11.09A10.35,10.35,0,0,0,1855.41,672.1Z"/><path class="cls-1" d="M1887,624.26V611.48h13.72v12.78Zm0,58.19v-52h13.72v52Z"/><path class="cls-1" d="M1936.62,648.23h12.78V663a25.7,25.7,0,0,1-1.21,7.87,18.39,18.39,0,0,1-3.81,6.65,18,18,0,0,1-6.54,4.59,24,24,0,0,1-9.46,1.69,24.9,24.9,0,0,1-9.71-1.69,18.23,18.23,0,0,1-6.6-4.54,17.17,17.17,0,0,1-3.75-6.65,27.17,27.17,0,0,1-1.16-8V616.44h13.51v14h28.73v9.72h-28.73v21.33q0,5,1.85,7.66c1.23,1.79,3.26,2.69,6.07,2.69s4.77-.88,6.08-2.64,1.95-4.26,1.95-7.5Z"/><path class="cls-1" d="M1987.74,682.45a20.64,20.64,0,0,1-.85-4.65,16.92,16.92,0,0,1-6.44,4.39,24.5,24.5,0,0,1-9.29,1.63q-9,0-13.15-4a13.56,13.56,0,0,1-4.18-10.29,18.84,18.84,0,0,1,1.8-8.93,13.43,13.43,0,0,1,5-5.23,23.93,23.93,0,0,1,7.56-2.79q4.38-.9,9.55-1.64c3.45-.49,5.78-1.15,7-2a4.82,4.82,0,0,0-.58-7.92,12.35,12.35,0,0,0-6.39-1.42q-4.76,0-6.81,2.11a10,10,0,0,0-2.59,5.6h-12.77a23.21,23.21,0,0,1,1.31-7.39,14.19,14.19,0,0,1,3.91-5.81,18.31,18.31,0,0,1,7-3.75,36.53,36.53,0,0,1,10.56-1.32,34.5,34.5,0,0,1,10.4,1.37,16.92,16.92,0,0,1,6.87,4,15.09,15.09,0,0,1,3.74,6.44,30,30,0,0,1,1.17,8.72v32.84Zm-1-25.45a7.5,7.5,0,0,1-3.07,1.69,55.77,55.77,0,0,1-5.8,1.37c-4,.78-6.66,1.76-8.14,3a6.27,6.27,0,0,0-2.22,5.17q0,5.82,6.66,5.81a13.23,13.23,0,0,0,4.91-.9,11.88,11.88,0,0,0,6.55-6,9.83,9.83,0,0,0,1-4.38Z"/><path class="cls-1" d="M2006.75,682.45v-71h13.73v71Z"/><path class="cls-1" d="M2039.06,660.06a14.81,14.81,0,0,0,3.44,9.4,10.45,10.45,0,0,0,8.18,3.49,11.44,11.44,0,0,0,6-1.54,6.92,6.92,0,0,0,3.32-4.27h14.16a22.77,22.77,0,0,1-8.45,12.35,23.94,23.94,0,0,1-14.37,4.33q-26,0-26-28.3a33.17,33.17,0,0,1,1.69-10.88,23.59,23.59,0,0,1,4.91-8.34,21.27,21.27,0,0,1,7.87-5.34,28.78,28.78,0,0,1,10.67-1.84q12,0,18.22,7.71t6.18,23.23Zm21.65-8.66a14.45,14.45,0,0,0-1-5,10.48,10.48,0,0,0-2.38-3.59,9.4,9.4,0,0,0-3.38-2.11,11.32,11.32,0,0,0-3.9-.68,9.72,9.72,0,0,0-7.13,3,12.79,12.79,0,0,0-3.43,8.39Z"/><path class="cls-1" d="M2111.09,646.23q-.53-3.81-2.75-5.34t-7-1.53a14.58,14.58,0,0,0-6,1,3.43,3.43,0,0,0-2.11,3.33,3.86,3.86,0,0,0,2.11,3.54,28.68,28.68,0,0,0,6.34,2.38c3,.84,5.77,1.6,8.45,2.27a65.87,65.87,0,0,1,7.08,2.16,14.84,14.84,0,0,1,6.33,4.6q2.22,2.9,2.22,8,0,8.13-5.76,12.67t-17,4.54q-12,0-18.43-5.07a16.44,16.44,0,0,1-6.6-13h14.15a6.58,6.58,0,0,0,2.86,5.71c1.9,1.34,4.54,2,7.92,2a15.81,15.81,0,0,0,6.44-1.21,4.25,4.25,0,0,0,2.75-4.17,4,4,0,0,0-2.49-3.91,33.28,33.28,0,0,0-5.86-2q-6.54-1.57-10.56-2.85a27.07,27.07,0,0,1-6.76-3.06,13.28,13.28,0,0,1-5.12-5.28,14.64,14.64,0,0,1-1.43-6.44,16,16,0,0,1,1.17-6.13,11.81,11.81,0,0,1,3.8-4.91,19.43,19.43,0,0,1,6.81-3.22,37.78,37.78,0,0,1,10.09-1.16q11.29,0,16.63,4.33t5.86,12.78Z"/><rect class="cls-1" y="800.13" width="38" height="38"/><rect class="cls-1" y="850.13" width="38" height="38"/><rect class="cls-1" y="750.13" width="38" height="38"/><rect class="cls-1" y="700.13" width="38" height="38"/><rect class="cls-1" y="650.13" width="38" height="38"/><rect class="cls-1" x="50" y="800.13" width="38" height="38"/><rect class="cls-1" x="50" y="850.13" width="38" height="38"/><rect class="cls-1" x="50" y="750.13" width="38" height="38"/><rect class="cls-1" x="50" y="700.13" width="38" height="38"/><rect class="cls-1" x="50" y="650.13" width="38" height="38"/><rect class="cls-1" x="100" y="700.13" width="38" height="38"/><rect class="cls-1" x="100" y="650.13" width="38" height="38"/><rect class="cls-1" x="100" y="750.13" width="38" height="38"/><rect class="cls-1" x="100" y="800.13" width="38" height="38"/><rect class="cls-1" x="100" y="850.13" width="38" height="38"/><rect class="cls-1" y="0.13" width="138" height="638"/><path class="cls-1" d="M151,138.13H301c0-.25,99-.25,99,99.75V651.13c0,100-99,99-99,99H150v138H338s200,0,200-199.06V199.93C538,6.88,338,.13,338,.13H139L.13,0,0,138.13Z"/></g></g></svg>