<svg xmlns="http://www.w3.org/2000/svg" viewBox="0 0 538 888.13"><defs><style>.cls-1{fill:#f0ebf2;}</style></defs><title>Isotipo positivo</title><g id="Capa_2" data-name="Capa 2"><g id="Isotipos"><rect class="cls-1" y="800.13" width="38" height="38"/><rect class="cls-1" y="850.13" width="38" height="38"/><rect class="cls-1" y="750.13" width="38" height="38"/><rect class="cls-1" y="700.13" width="38" height="38"/><rect class="cls-1" y="650.13" width="38" height="38"/><rect class="cls-1" x="50" y="800.13" width="38" height="38"/><rect class="cls-1" x="50" y="850.13" width="38" height="38"/><rect class="cls-1" x="50" y="750.13" width="38" height="38"/><rect class="cls-1" x="50" y="700.13" width="38" height="38"/><rect class="cls-1" x="50" y="650.13" width="38" height="38"/><rect class="cls-1" x="100" y="700.13" width="38" height="38"/><rect class="cls-1" x="100" y="650.13" width="38" height="38"/><rect class="cls-1" x="100" y="750.13" width="38" height="38"/><rect class="cls-1" x="100" y="800.13" width="38" height="38"/><rect class="cls-1" x="100" y="850.13" width="38" height="38"/><rect class="cls-1" y="0.25" width="138" height="637.88"/><path class="cls-1" d="M151,138.13H301c0-.25,99-.25,99,99.75V651.13c0,100-99,99-99,99H150v138H338s200,0,200-199.06V199.93C538,6.88,338,.13,338,.13H139L.13,0,0,138.13Z"/></g></g></svg>