<svg xmlns="http://www.w3.org/2000/svg" viewBox="0 0 1523.34 554.42"><defs><style>.cls-1{fill:#f0ebf2;}</style></defs><title>Logo positivo</title><g id="Capa_2" data-name="Capa 2"><g id="Logo"><path class="cls-1" d="M0,4.58H64.42q55.69.15,55.7,61v168q0,60.72-58.36,60.87H0ZM41.81,45.8V253.24H60.13q18.18,0,18.18-19.65V65.6q0-19.8-18.18-19.8Z"/><path class="cls-1" d="M156.32,4.58h41.81V294.46H156.32Z"/><path class="cls-1" d="M354.45,238.17q0,60.87-60.14,61-60,0-60-61V60.87q0-60.87,60-60.87,60.13,0,60.14,60.87v39H312.63v-39q0-19.5-18.17-19.65h-.29q-18,0-18,19.65v177.3q0,19.65,18.17,19.65,18.33,0,18.32-19.65v-68H294.46V128.84h60Z"/><path class="cls-1" d="M390.64,4.58h41.82V294.46H390.64Z"/><path class="cls-1" d="M579.91,4.58V45.8H540.76V294.46H498.94V45.8H459.79V4.58Z"/><path class="cls-1" d="M715.1,191.63l13.59,102.83H686.44L678.31,233h-42.7l-8.27,61.46H585.23l13.59-102.39L628.37,4.58H685.7Zm-42.26,0-16-120.56-16,120.56Z"/><path class="cls-1" d="M753.81,294.46V4.58h41.81V253.24h66.64v41.22Z"/><path class="cls-1" d="M888.11,4.58h41.81V294.46H888.11Z"/><path class="cls-1" d="M966.12,60.87q0-60.87,60-60.87t60.13,60.87v39h-41.81v-39q0-19.5-18.17-19.65h-.3q-18,0-18,19.65v26.3q0,19.36,39.16,47.43t39.15,66.93v36.64q0,61-60,61-60.15-.15-60.14-61v-39h41.81v39q0,19.65,18.33,19.65,18.16,0,18.17-19.65v-33.1q0-21-39.15-49-39.16-27.92-39.16-68Z"/><path class="cls-1" d="M1230,4.58V45.8h-39.15V294.46H1149V45.8h-39.15V4.58Z"/><path class="cls-1" d="M1365.19,191.63l13.59,102.83h-42.25L1328.4,233h-42.7l-8.27,61.46h-42.11l13.59-102.39L1278.46,4.58h57.33Zm-42.26,0L1307,71.07l-16,120.56Z"/><path class="cls-1" d="M1400.94,60.87q0-60.87,60-60.87t60.13,60.87v39h-41.81v-39q0-19.5-18.17-19.65h-.3q-18,0-18,19.65v26.3q0,19.36,39.16,47.43t39.15,66.93v36.64q0,61-60,61-60.13-.15-60.14-61v-39h41.81v39q0,19.65,18.33,19.65,18.17,0,18.17-19.65v-33.1q0-21-39.15-49-39.16-27.92-39.16-68Z"/><path class="cls-1" d="M16.81,380v29.57H2.13V339.48H52.08v12.26H16.81v15.94H47.64V380Z"/><path class="cls-1" d="M87.67,409.61v-7.29Q82.39,411,71.51,411a18.13,18.13,0,0,1-7.13-1.37,15.86,15.86,0,0,1-5.54-3.91,18.4,18.4,0,0,1-3.64-6,21.65,21.65,0,0,1-1.32-7.81V357.65H67.6v32.11q0,9.71,8.77,9.71,5.28,0,8-3.32a13.09,13.09,0,0,0,2.7-8.51v-30h13.62v52Z"/><path class="cls-1" d="M140.16,409.61V378.14q0-6-2-8.13t-6.87-2.12q-10.66,0-10.67,11.94v29.78H106.89v-52H120v7.6a16.66,16.66,0,0,1,6.44-6.7,23.5,23.5,0,0,1,17.22-1.16,14.59,14.59,0,0,1,5.44,3.32,16,16,0,0,1,3.59,5.44A19.54,19.54,0,0,1,154,373.6v36Z"/><path class="cls-1" d="M196.24,409.61l-.11-6.34Q191.39,411,181.67,411a21.42,21.42,0,0,1-9.09-1.9,19.71,19.71,0,0,1-7.07-5.49,26.65,26.65,0,0,1-4.65-8.76,37.61,37.61,0,0,1-1.69-11.73,38.7,38.7,0,0,1,1.43-10.82,25.47,25.47,0,0,1,4.17-8.5,18.75,18.75,0,0,1,6.7-5.55,20.18,20.18,0,0,1,9-2q9.62,0,15.42,8.13V338.64h13.52v71Zm-11.41-9.82a10.23,10.23,0,0,0,8.29-4.12q3.33-4.12,3.33-10.77,0-16.9-11.51-16.9-11.83,0-11.83,16.05,0,7,3.27,11.36A10.11,10.11,0,0,0,184.83,399.79Z"/><path class="cls-1" d="M248.2,409.61a21.14,21.14,0,0,1-.84-4.65,16.88,16.88,0,0,1-6.45,4.39,24.46,24.46,0,0,1-9.29,1.63q-9,0-13.15-4a13.55,13.55,0,0,1-4.17-10.29,19,19,0,0,1,1.79-8.93,13.45,13.45,0,0,1,5-5.23,24.11,24.11,0,0,1,7.55-2.79q4.38-.9,9.56-1.64c3.45-.49,5.77-1.15,7-2a4.83,4.83,0,0,0-.58-7.92,12.4,12.4,0,0,0-6.39-1.42q-4.75,0-6.81,2.11a9.83,9.83,0,0,0-2.59,5.6H216a23.49,23.49,0,0,1,1.32-7.39,14.09,14.09,0,0,1,3.91-5.81,18.19,18.19,0,0,1,7-3.75,36.63,36.63,0,0,1,10.56-1.32,34.5,34.5,0,0,1,10.4,1.37,16.86,16.86,0,0,1,6.87,4,15.21,15.21,0,0,1,3.75,6.44,30.38,30.38,0,0,1,1.16,8.72v32.84Zm-.95-25.45a7.46,7.46,0,0,1-3.06,1.69,56.72,56.72,0,0,1-5.81,1.37c-3.95.78-6.66,1.76-8.13,3a6.27,6.27,0,0,0-2.22,5.17q0,5.82,6.65,5.81a13.19,13.19,0,0,0,4.91-.9,12,12,0,0,0,3.91-2.42,12.15,12.15,0,0,0,2.64-3.6,9.83,9.83,0,0,0,1-4.38Z"/><path class="cls-1" d="M314,390.81a22,22,0,0,1-7.82,14.58,24.07,24.07,0,0,1-7.23,4.12,27.48,27.48,0,0,1-18.49-.27,19.89,19.89,0,0,1-7.55-5.28,24.61,24.61,0,0,1-4.91-8.77A38.62,38.62,0,0,1,266.26,383,37.18,37.18,0,0,1,268,371a21.58,21.58,0,0,1,4.91-8.29,19.94,19.94,0,0,1,7.66-4.81,32.08,32.08,0,0,1,19.22-.21,21.69,21.69,0,0,1,7.29,4A19.41,19.41,0,0,1,312,368a22.16,22.16,0,0,1,2.11,8.24H300.27a9.56,9.56,0,0,0-3.22-6.29,9.94,9.94,0,0,0-6.61-2.27,11.28,11.28,0,0,0-4.11.74A8.11,8.11,0,0,0,283,370.9a13.11,13.11,0,0,0-2.27,4.65,25.64,25.64,0,0,0-.85,7.13q0,8.55,3.07,12.67t7.07,4.12a10.84,10.84,0,0,0,6.87-2.22,8.83,8.83,0,0,0,3.27-6.44Z"/><path class="cls-1" d="M318.54,351.42V338.64h13.73v12.78Zm0,58.19v-52h13.73v52Z"/><path class="cls-1" d="M364.27,411A30.13,30.13,0,0,1,353,409a23.2,23.2,0,0,1-13.62-14.26,33,33,0,0,1-1.79-11.09,32.51,32.51,0,0,1,1.84-11.19,24,24,0,0,1,5.34-8.66,23.67,23.67,0,0,1,8.39-5.55,30,30,0,0,1,11.15-2,29.27,29.27,0,0,1,11,2,23.66,23.66,0,0,1,8.29,5.49,23.92,23.92,0,0,1,5.28,8.61,32.87,32.87,0,0,1,1.85,11.3,32.37,32.37,0,0,1-1.85,11.25,24.63,24.63,0,0,1-5.28,8.61A23.31,23.31,0,0,1,375.2,409,29.42,29.42,0,0,1,364.27,411Zm0-11.51q12.56,0,12.56-15.84t-12.56-15.74q-12.57,0-12.57,15.74T364.27,399.47Zm-6.66-48.37-3.27-5.81,21.86-12.78,5,8.66Z"/><path class="cls-1" d="M429.11,409.61V378.14q0-6-2-8.13c-1.34-1.41-3.62-2.12-6.86-2.12q-10.67,0-10.67,11.94v29.78H395.84v-52h13.1v7.6a16.66,16.66,0,0,1,6.44-6.7,23.47,23.47,0,0,1,17.21-1.16,14.43,14.43,0,0,1,5.44,3.32,15.84,15.84,0,0,1,3.59,5.44,19.54,19.54,0,0,1,1.32,7.45v36Z"/><path class="cls-1" d="M474.52,409.61V339.48H489.2v57.35H524v12.78Z"/><path class="cls-1" d="M560.49,409.61a21.11,21.11,0,0,1-.85-4.65,16.84,16.84,0,0,1-6.44,4.39,24.46,24.46,0,0,1-9.29,1.63q-9,0-13.15-4a13.55,13.55,0,0,1-4.17-10.29,19,19,0,0,1,1.79-8.93,13.45,13.45,0,0,1,5-5.23,24.11,24.11,0,0,1,7.55-2.79q4.38-.9,9.56-1.64c3.45-.49,5.77-1.15,7-2a4.83,4.83,0,0,0-.58-7.92,12.4,12.4,0,0,0-6.39-1.42q-4.76,0-6.82,2.11a9.89,9.89,0,0,0-2.58,5.6H528.28a23.49,23.49,0,0,1,1.32-7.39,14.09,14.09,0,0,1,3.91-5.81,18.19,18.19,0,0,1,7-3.75,36.63,36.63,0,0,1,10.56-1.32,34.5,34.5,0,0,1,10.4,1.37,16.92,16.92,0,0,1,6.87,4,15.21,15.21,0,0,1,3.75,6.44,30.38,30.38,0,0,1,1.16,8.72v32.84Zm-1-25.45a7.52,7.52,0,0,1-3.06,1.69,56.72,56.72,0,0,1-5.81,1.37c-3.95.78-6.66,1.76-8.13,3a6.27,6.27,0,0,0-2.22,5.17q0,5.82,6.65,5.81a13.19,13.19,0,0,0,4.91-.9,12,12,0,0,0,3.91-2.42,12.15,12.15,0,0,0,2.64-3.6,9.83,9.83,0,0,0,1-4.38Z"/><path class="cls-1" d="M609,375.39h12.78v14.79a25.4,25.4,0,0,1-1.21,7.87,18.51,18.51,0,0,1-3.8,6.65,18.07,18.07,0,0,1-6.55,4.59,23.93,23.93,0,0,1-9.45,1.69,25,25,0,0,1-9.72-1.69,18.23,18.23,0,0,1-6.6-4.54,17.17,17.17,0,0,1-3.75-6.65,27.17,27.17,0,0,1-1.16-8V343.6H593v14h28.72v9.72H593V388.7q0,5,1.84,7.66c1.24,1.79,3.26,2.69,6.08,2.69s4.77-.88,6.07-2.64,2-4.26,2-7.5Z"/><path class="cls-1" d="M627.87,351.42V338.64H641.6v12.78Zm0,58.19v-52H641.6v52Z"/><path class="cls-1" d="M681.31,409.61V378.14q0-6-2-8.13t-6.87-2.12q-10.66,0-10.66,11.94v29.78H648v-52h13.09v7.6a16.68,16.68,0,0,1,6.45-6.7,23.47,23.47,0,0,1,17.21-1.16,14.59,14.59,0,0,1,5.44,3.32,16,16,0,0,1,3.59,5.44,19.54,19.54,0,0,1,1.32,7.45v36Z"/><path class="cls-1" d="M726.93,411a30.08,30.08,0,0,1-11.3-2A23.18,23.18,0,0,1,702,394.72a33.2,33.2,0,0,1-1.79-11.09,32.28,32.28,0,0,1,1.85-11.19,24.08,24.08,0,0,1,5.33-8.66,23.62,23.62,0,0,1,8.4-5.55,30,30,0,0,1,11.14-2,29.27,29.27,0,0,1,11,2,23.66,23.66,0,0,1,8.29,5.49,23.92,23.92,0,0,1,5.28,8.61,32.63,32.63,0,0,1,1.85,11.3,32.14,32.14,0,0,1-1.85,11.25,24.63,24.63,0,0,1-5.28,8.61,23.31,23.31,0,0,1-8.34,5.54A29.38,29.38,0,0,1,726.93,411Zm0-11.51q12.57,0,12.57-15.84t-12.57-15.74q-12.57,0-12.57,15.74T726.93,399.47Z"/><path class="cls-1" d="M791,409.61a21.14,21.14,0,0,1-.84-4.65,16.92,16.92,0,0,1-6.44,4.39,24.55,24.55,0,0,1-9.3,1.63q-9,0-13.15-4a13.55,13.55,0,0,1-4.17-10.29,18.84,18.84,0,0,1,1.8-8.93,13.43,13.43,0,0,1,5-5.23,24.11,24.11,0,0,1,7.55-2.79q4.38-.9,9.56-1.64c3.45-.49,5.77-1.15,7-2a4.82,4.82,0,0,0-.58-7.92,12.35,12.35,0,0,0-6.39-1.42q-4.75,0-6.81,2.11a9.9,9.9,0,0,0-2.59,5.6H758.82a23.49,23.49,0,0,1,1.32-7.39,14.09,14.09,0,0,1,3.91-5.81,18.34,18.34,0,0,1,7-3.75,36.65,36.65,0,0,1,10.57-1.32,34.5,34.5,0,0,1,10.4,1.37,16.81,16.81,0,0,1,6.86,4,15,15,0,0,1,3.75,6.44,30,30,0,0,1,1.16,8.72v32.84Zm-.95-25.45a7.39,7.39,0,0,1-3.06,1.69,56.08,56.08,0,0,1-5.81,1.37c-3.94.78-6.65,1.76-8.13,3a6.27,6.27,0,0,0-2.22,5.17q0,5.82,6.66,5.81a13.23,13.23,0,0,0,4.91-.9,11.88,11.88,0,0,0,6.55-6,10,10,0,0,0,1-4.38Z"/><path class="cls-1" d="M871,409.61V378.14a12.5,12.5,0,0,0-2.22-7.71,7,7,0,0,0-5.91-3,7.66,7.66,0,0,0-6.28,3.17,12.41,12.41,0,0,0-2.49,7.92v31.05H840.35V378.35a26.14,26.14,0,0,0-.42-5.18,6.91,6.91,0,0,0-1.42-3.16,5.35,5.35,0,0,0-2.59-1.64,13.21,13.21,0,0,0-3.8-.48q-8.36,0-8.35,10.14v31.58H810v-52h12.89v7.6q2.64-5.17,6.34-7.07a19.14,19.14,0,0,1,8.87-1.9,23.72,23.72,0,0,1,4.7.42,11.31,11.31,0,0,1,3.69,1.43,15.05,15.05,0,0,1,3.12,2.58,31.65,31.65,0,0,1,3,3.8,13.85,13.85,0,0,1,5.59-6.28,17.08,17.08,0,0,1,8.45-2,19,19,0,0,1,7.18,1.32,16.18,16.18,0,0,1,5.6,3.69,17.44,17.44,0,0,1,5,12.31v36Z"/><path class="cls-1" d="M902.46,387.22q.31,5.91,3.43,9.4a10.45,10.45,0,0,0,8.18,3.49,11.44,11.44,0,0,0,6-1.54,6.94,6.94,0,0,0,3.33-4.27h14.15a22.77,22.77,0,0,1-8.45,12.35A23.91,23.91,0,0,1,914.71,411q-26,0-26-28.3a33.17,33.17,0,0,1,1.68-10.88,23.46,23.46,0,0,1,4.92-8.34,21.13,21.13,0,0,1,7.86-5.33,28.58,28.58,0,0,1,10.67-1.85q12,0,18.22,7.71t6.18,23.23Zm21.65-8.66a14.68,14.68,0,0,0-1-5,10.6,10.6,0,0,0-2.37-3.59,9.58,9.58,0,0,0-3.38-2.11,11.41,11.41,0,0,0-3.91-.68,9.73,9.73,0,0,0-7.13,3,12.79,12.79,0,0,0-3.43,8.39Z"/><path class="cls-1" d="M943.22,409.61v-52H956.1v6.23a17,17,0,0,1,3.54-4.12,15.53,15.53,0,0,1,3.8-2.27,14.59,14.59,0,0,1,4-1,39.59,39.59,0,0,1,4.12-.21h1.8v14a23.28,23.28,0,0,0-3.8-.31Q957,370,957,382.57v27Z"/><path class="cls-1" d="M977.65,351.42V338.64h13.73v12.78Zm0,58.19v-52h13.73v52Z"/><path class="cls-1" d="M1044.61,390.81a22.12,22.12,0,0,1-2.59,8.24,22.37,22.37,0,0,1-5.23,6.34,24.07,24.07,0,0,1-7.23,4.12,27.48,27.48,0,0,1-18.49-.27,19.82,19.82,0,0,1-7.55-5.28,24.61,24.61,0,0,1-4.91-8.77A38.62,38.62,0,0,1,996.87,383a37.18,37.18,0,0,1,1.74-12,21.58,21.58,0,0,1,4.91-8.29,19.86,19.86,0,0,1,7.66-4.81,32.08,32.08,0,0,1,19.22-.21,21.69,21.69,0,0,1,7.29,4,19.41,19.41,0,0,1,4.91,6.34,22.16,22.16,0,0,1,2.11,8.24h-13.83a9.56,9.56,0,0,0-3.22-6.29,9.94,9.94,0,0,0-6.61-2.27,11.28,11.28,0,0,0-4.11.74,8.11,8.11,0,0,0-3.33,2.48,13.11,13.11,0,0,0-2.27,4.65,25.64,25.64,0,0,0-.85,7.13q0,8.55,3.07,12.67c2,2.75,4.39,4.12,7.07,4.12a10.84,10.84,0,0,0,6.87-2.22,8.83,8.83,0,0,0,3.27-6.44Z"/><path class="cls-1" d="M1081.36,409.61a21.11,21.11,0,0,1-.85-4.65,16.92,16.92,0,0,1-6.44,4.39,24.5,24.5,0,0,1-9.29,1.63q-9,0-13.15-4a13.55,13.55,0,0,1-4.17-10.29,18.85,18.85,0,0,1,1.79-8.93,13.43,13.43,0,0,1,5-5.23,24.17,24.17,0,0,1,7.56-2.79q4.38-.9,9.55-1.64c3.45-.49,5.78-1.15,7-2a4.82,4.82,0,0,0-.58-7.92,12.35,12.35,0,0,0-6.39-1.42c-3.16,0-5.44.7-6.81,2.11a10,10,0,0,0-2.59,5.6h-12.77a23.21,23.21,0,0,1,1.32-7.39,14.07,14.07,0,0,1,3.9-5.81,18.31,18.31,0,0,1,7-3.75,36.53,36.53,0,0,1,10.56-1.32,34.5,34.5,0,0,1,10.4,1.37,16.92,16.92,0,0,1,6.87,4,15.09,15.09,0,0,1,3.74,6.44,30,30,0,0,1,1.17,8.72v32.84Zm-.95-25.45a7.5,7.5,0,0,1-3.07,1.69,55.77,55.77,0,0,1-5.8,1.37c-4,.78-6.66,1.76-8.14,3a6.26,6.26,0,0,0-2.21,5.17q0,5.82,6.65,5.81a13.19,13.19,0,0,0,4.91-.9,11.88,11.88,0,0,0,6.55-6,9.83,9.83,0,0,0,1-4.38Z"/><path class="cls-1" d="M1133.63,409.61V378.14q0-6-2-8.13t-6.87-2.12q-10.66,0-10.66,11.94v29.78h-13.73v-52h13.09v7.6a16.68,16.68,0,0,1,6.45-6.7,23.47,23.47,0,0,1,17.21-1.16,14.59,14.59,0,0,1,5.44,3.32,16,16,0,0,1,3.59,5.44,19.54,19.54,0,0,1,1.32,7.45v36Z"/><path class="cls-1" d="M1186.23,409.61a21.11,21.11,0,0,1-.85-4.65,16.84,16.84,0,0,1-6.44,4.39,24.5,24.5,0,0,1-9.29,1.63q-9,0-13.15-4a13.55,13.55,0,0,1-4.17-10.29,18.85,18.85,0,0,1,1.79-8.93,13.38,13.38,0,0,1,5-5.23,24.11,24.11,0,0,1,7.55-2.79q4.38-.9,9.56-1.64c3.44-.49,5.77-1.15,7-2a4.83,4.83,0,0,0-.59-7.92,12.34,12.34,0,0,0-6.38-1.42q-4.76,0-6.82,2.11a9.89,9.89,0,0,0-2.58,5.6H1154a23.49,23.49,0,0,1,1.32-7.39,14.17,14.17,0,0,1,3.9-5.81,18.31,18.31,0,0,1,7-3.75,36.53,36.53,0,0,1,10.56-1.32,34.5,34.5,0,0,1,10.4,1.37,16.92,16.92,0,0,1,6.87,4,15.21,15.21,0,0,1,3.75,6.44,30.38,30.38,0,0,1,1.16,8.72v32.84Zm-1-25.45a7.52,7.52,0,0,1-3.06,1.69,56.72,56.72,0,0,1-5.81,1.37c-4,.78-6.66,1.76-8.14,3a6.29,6.29,0,0,0-2.21,5.17q0,5.82,6.65,5.81a13.19,13.19,0,0,0,4.91-.9,11.88,11.88,0,0,0,6.55-6,9.83,9.83,0,0,0,1-4.38Z"/><path class="cls-1" d="M1230.9,434.22V357.65h13.2l.11,6.34q4.76-7.71,14.47-7.71a21.47,21.47,0,0,1,9,1.9,19.88,19.88,0,0,1,7.13,5.49,26.5,26.5,0,0,1,4.64,8.77,37.55,37.55,0,0,1,1.69,11.72,38.71,38.71,0,0,1-1.42,10.82,25.62,25.62,0,0,1-4.17,8.51,19,19,0,0,1-6.71,5.54,20.18,20.18,0,0,1-9,2q-9.61,0-15.42-8.13v31.37Zm24.5-35q11.83,0,11.83-16.05,0-7-3.27-11.35a10.08,10.08,0,0,0-8.45-4.39,10.24,10.24,0,0,0-8.29,4.12q-3.33,4.13-3.33,10.77Q1243.89,399.27,1255.4,399.26Z"/><path class="cls-1" d="M1318.88,409.61A20.54,20.54,0,0,1,1318,405a16.92,16.92,0,0,1-6.44,4.39,24.5,24.5,0,0,1-9.29,1.63q-9,0-13.15-4a13.56,13.56,0,0,1-4.18-10.29,18.84,18.84,0,0,1,1.8-8.93,13.43,13.43,0,0,1,5-5.23,24.17,24.17,0,0,1,7.56-2.79q4.38-.9,9.55-1.64c3.45-.49,5.78-1.15,7-2a4.82,4.82,0,0,0-.58-7.92,12.35,12.35,0,0,0-6.39-1.42q-4.75,0-6.81,2.11a10,10,0,0,0-2.59,5.6h-12.77a23.21,23.21,0,0,1,1.31-7.39,14.19,14.19,0,0,1,3.91-5.81,18.31,18.31,0,0,1,7-3.75,36.53,36.53,0,0,1,10.56-1.32,34.5,34.5,0,0,1,10.4,1.37,16.92,16.92,0,0,1,6.87,4,15.09,15.09,0,0,1,3.74,6.44,30,30,0,0,1,1.17,8.72v32.84Zm-1-25.45a7.5,7.5,0,0,1-3.07,1.69,55.77,55.77,0,0,1-5.8,1.37c-4,.78-6.66,1.76-8.14,3a6.27,6.27,0,0,0-2.22,5.17q0,5.82,6.66,5.81a13.23,13.23,0,0,0,4.91-.9,11.88,11.88,0,0,0,6.55-6,9.83,9.83,0,0,0,1-4.38Z"/><path class="cls-1" d="M1337.89,409.61v-52h12.88v6.23a16.83,16.83,0,0,1,3.54-4.12,15.53,15.53,0,0,1,3.8-2.27,14.41,14.41,0,0,1,4-1,39.59,39.59,0,0,1,4.12-.21H1368v14a23.1,23.1,0,0,0-3.8-.31q-12.57,0-12.57,12.56v27Z"/><path class="cls-1" d="M1402,409.61a21.14,21.14,0,0,1-.84-4.65,16.92,16.92,0,0,1-6.44,4.39,24.55,24.55,0,0,1-9.3,1.63q-9,0-13.15-4a13.55,13.55,0,0,1-4.17-10.29,18.84,18.84,0,0,1,1.8-8.93,13.35,13.35,0,0,1,5-5.23,24.11,24.11,0,0,1,7.55-2.79q4.38-.9,9.56-1.64c3.45-.49,5.77-1.15,7-2a4.82,4.82,0,0,0-.58-7.92,12.35,12.35,0,0,0-6.39-1.42q-4.76,0-6.81,2.11a9.83,9.83,0,0,0-2.59,5.6h-12.78a23.49,23.49,0,0,1,1.32-7.39,14.09,14.09,0,0,1,3.91-5.81,18.19,18.19,0,0,1,7-3.75,36.63,36.63,0,0,1,10.56-1.32,34.52,34.52,0,0,1,10.41,1.37,16.88,16.88,0,0,1,6.86,4,15,15,0,0,1,3.75,6.44,30.38,30.38,0,0,1,1.16,8.72v32.84Zm-1-25.45a7.39,7.39,0,0,1-3.06,1.69,56.08,56.08,0,0,1-5.81,1.37c-3.94.78-6.65,1.76-8.13,3a6.27,6.27,0,0,0-2.22,5.17q0,5.82,6.65,5.81a13.28,13.28,0,0,0,4.92-.9,11.9,11.9,0,0,0,6.54-6,9.84,9.84,0,0,0,1-4.38Z"/><path class="cls-1" d="M1459.23,387.22q.33,5.91,3.44,9.4a10.45,10.45,0,0,0,8.18,3.49,11.44,11.44,0,0,0,6-1.54,6.94,6.94,0,0,0,3.33-4.27h14.15a22.77,22.77,0,0,1-8.45,12.35,23.91,23.91,0,0,1-14.36,4.33q-26,0-26-28.3a33.17,33.17,0,0,1,1.69-10.88,23.46,23.46,0,0,1,4.92-8.34,21.13,21.13,0,0,1,7.86-5.33,28.58,28.58,0,0,1,10.67-1.85q12,0,18.22,7.71t6.18,23.23Zm21.66-8.66a14.68,14.68,0,0,0-1-5,10.6,10.6,0,0,0-2.37-3.59,9.58,9.58,0,0,0-3.38-2.11,11.41,11.41,0,0,0-3.91-.68,9.73,9.73,0,0,0-7.13,3,12.79,12.79,0,0,0-3.43,8.39Z"/><path class="cls-1" d="M1500,409.61v-71h13.73v71Z"/><path class="cls-1" d="M2.13,529.81V459.68H29.27a35.22,35.22,0,0,1,13.09,2.38,28.62,28.62,0,0,1,10.3,6.81,31.68,31.68,0,0,1,6.71,10.77A40,40,0,0,1,61.8,494a46.79,46.79,0,0,1-2.17,14.62,32.87,32.87,0,0,1-6.18,11.3,27.7,27.7,0,0,1-9.61,7.29,29,29,0,0,1-12.35,2.59Zm26.4-11.93q9.61,0,13.94-6T46.8,494a41.91,41.91,0,0,0-1.06-10.14A16.1,16.1,0,0,0,42.31,477,13.52,13.52,0,0,0,36.24,473a29,29,0,0,0-9-1.21H16.38v46.05Z"/><path class="cls-1" d="M79.33,507.42q.32,5.91,3.43,9.4a10.47,10.47,0,0,0,8.18,3.48,11.48,11.48,0,0,0,6-1.53,6.9,6.9,0,0,0,3.33-4.27h14.15a22.77,22.77,0,0,1-8.45,12.35,23.91,23.91,0,0,1-14.36,4.33q-26,0-26-28.3A32.86,32.86,0,0,1,67.29,492a23.3,23.3,0,0,1,4.91-8.34,21.27,21.27,0,0,1,7.87-5.34,28.69,28.69,0,0,1,10.66-1.84q12,0,18.22,7.7t6.18,23.24ZM101,498.76a14.45,14.45,0,0,0-1-5,10.46,10.46,0,0,0-2.37-3.59A9.49,9.49,0,0,0,94.22,488a11.38,11.38,0,0,0-3.91-.69,9.79,9.79,0,0,0-7.13,3,12.89,12.89,0,0,0-3.43,8.4Z"/><path class="cls-1" d="M151.36,493.58c-.36-2.53-1.27-4.31-2.75-5.33s-3.8-1.53-7-1.53a14.39,14.39,0,0,0-6,1,3.43,3.43,0,0,0-2.11,3.33,3.86,3.86,0,0,0,2.11,3.54A28.33,28.33,0,0,0,142,497q4.44,1.28,8.45,2.27a64.38,64.38,0,0,1,7.08,2.17,14.88,14.88,0,0,1,6.34,4.59q2.22,2.91,2.22,8,0,8.13-5.76,12.67t-16.95,4.54q-12,0-18.43-5.07a16.46,16.46,0,0,1-6.6-13h14.15a6.57,6.57,0,0,0,2.85,5.71q2.85,2,7.92,2a15.78,15.78,0,0,0,6.44-1.21,4.23,4.23,0,0,0,2.75-4.17,4,4,0,0,0-2.48-3.91,32.76,32.76,0,0,0-5.86-2c-4.37-1-7.89-2-10.56-2.85a27.07,27.07,0,0,1-6.76-3.06,13.32,13.32,0,0,1-5.13-5.28,14.65,14.65,0,0,1-1.42-6.45,16.14,16.14,0,0,1,1.16-6.12,11.89,11.89,0,0,1,3.8-4.91,19.43,19.43,0,0,1,6.81-3.22,37.88,37.88,0,0,1,10.09-1.16q11.3,0,16.63,4.33t5.87,12.77Z"/><path class="cls-1" d="M202.68,529.81a21.25,21.25,0,0,1-.84-4.65,17.1,17.1,0,0,1-6.45,4.39,24.46,24.46,0,0,1-9.29,1.63q-9,0-13.15-4a13.55,13.55,0,0,1-4.17-10.3,18.93,18.93,0,0,1,1.79-8.92,13.45,13.45,0,0,1,5-5.23,23.87,23.87,0,0,1,7.55-2.8c2.92-.59,6.11-1.14,9.56-1.63s5.77-1.15,7-2a4.83,4.83,0,0,0-.58-7.92,12.4,12.4,0,0,0-6.39-1.42q-4.76,0-6.81,2.11a9.83,9.83,0,0,0-2.59,5.6H170.47a23.61,23.61,0,0,1,1.32-7.4,14.16,14.16,0,0,1,3.91-5.81,18.31,18.31,0,0,1,7-3.74,36.63,36.63,0,0,1,10.56-1.32,34.18,34.18,0,0,1,10.4,1.37,16.63,16.63,0,0,1,6.87,4,15.21,15.21,0,0,1,3.75,6.44,30.36,30.36,0,0,1,1.16,8.71v32.85Zm-1-25.45a7.57,7.57,0,0,1-3.06,1.69,56.72,56.72,0,0,1-5.81,1.37c-4,.78-6.66,1.76-8.13,3a6.25,6.25,0,0,0-2.22,5.17q0,5.81,6.65,5.81a13.19,13.19,0,0,0,4.91-.9A11.87,11.87,0,0,0,198,518a12.1,12.1,0,0,0,2.64-3.59,9.83,9.83,0,0,0,1-4.38Z"/><path class="cls-1" d="M221.69,529.81v-52h12.88v6.23a17,17,0,0,1,3.54-4.12,15.53,15.53,0,0,1,3.8-2.27,14.59,14.59,0,0,1,4-1,39.59,39.59,0,0,1,4.12-.21h1.8v14a23.28,23.28,0,0,0-3.8-.31q-12.57,0-12.57,12.56v27Z"/><path class="cls-1" d="M255.8,529.81v-52h12.89v6.23a16.81,16.81,0,0,1,3.53-4.12,15.59,15.59,0,0,1,3.81-2.27,14.41,14.41,0,0,1,4-1,39.44,39.44,0,0,1,4.12-.21h1.79v14a23.19,23.19,0,0,0-3.8-.31q-12.57,0-12.57,12.56v27Z"/><path class="cls-1" d="M312.31,531.18a30,30,0,0,1-11.3-2,23.18,23.18,0,0,1-13.63-14.26,33,33,0,0,1-1.79-11.09,32.57,32.57,0,0,1,1.84-11.2,24,24,0,0,1,5.34-8.66,23.78,23.78,0,0,1,8.39-5.54,30,30,0,0,1,11.15-1.95,29.27,29.27,0,0,1,11,1.95,23.66,23.66,0,0,1,8.29,5.49,23.92,23.92,0,0,1,5.28,8.61,32.87,32.87,0,0,1,1.85,11.3,32.45,32.45,0,0,1-1.85,11.25,24.49,24.49,0,0,1-5.28,8.6,23.2,23.2,0,0,1-8.34,5.55A29.42,29.42,0,0,1,312.31,531.18Zm0-11.51q12.56,0,12.56-15.84t-12.56-15.74q-12.57,0-12.57,15.74T312.31,519.67Z"/><path class="cls-1" d="M343.88,529.81v-71h13.73v71Z"/><path class="cls-1" d="M363.63,529.81v-71h13.73v71Z"/><path class="cls-1" d="M408.94,531.18a30.08,30.08,0,0,1-11.3-2A23.18,23.18,0,0,1,384,514.92a33.2,33.2,0,0,1-1.79-11.09,32.33,32.33,0,0,1,1.85-11.2A24.17,24.17,0,0,1,389.4,484a23.73,23.73,0,0,1,8.4-5.54,30,30,0,0,1,11.14-1.95,29.27,29.27,0,0,1,11,1.95,23.66,23.66,0,0,1,8.29,5.49,23.92,23.92,0,0,1,5.28,8.61,32.87,32.87,0,0,1,1.85,11.3,32.45,32.45,0,0,1-1.85,11.25,24.49,24.49,0,0,1-5.28,8.6,23.2,23.2,0,0,1-8.34,5.55A29.38,29.38,0,0,1,408.94,531.18Zm0-11.51q12.57,0,12.57-15.84t-12.57-15.74q-12.57,0-12.57,15.74T408.94,519.67Z"/><path class="cls-1" d="M502.19,529.81l-.1-6.34q-4.75,7.71-14.47,7.71a21.34,21.34,0,0,1-9.08-1.9,19.88,19.88,0,0,1-7.08-5.49,26.7,26.7,0,0,1-4.65-8.77,37.85,37.85,0,0,1-1.69-11.72,38.7,38.7,0,0,1,1.43-10.82,25.62,25.62,0,0,1,4.17-8.51,18.86,18.86,0,0,1,6.71-5.54,20.18,20.18,0,0,1,9-1.95q9.6,0,15.42,8.13V458.84h13.51v71ZM490.79,520a10.28,10.28,0,0,0,8.29-4.12q3.33-4.12,3.32-10.77,0-16.91-11.51-16.9-11.82,0-11.83,16.05,0,7,3.28,11.35A10.08,10.08,0,0,0,490.79,520Z"/><path class="cls-1" d="M534.19,507.42a14.87,14.87,0,0,0,3.43,9.4,10.47,10.47,0,0,0,8.19,3.48,11.53,11.53,0,0,0,6-1.53,6.92,6.92,0,0,0,3.32-4.27h14.16a22.83,22.83,0,0,1-8.45,12.35,24,24,0,0,1-14.37,4.33q-26,0-26-28.3A32.86,32.86,0,0,1,522.15,492a23.44,23.44,0,0,1,4.91-8.34,21.27,21.27,0,0,1,7.87-5.34,28.75,28.75,0,0,1,10.67-1.84q12,0,18.22,7.7T570,507.42Zm21.65-8.66a14.45,14.45,0,0,0-1-5,10.48,10.48,0,0,0-2.38-3.59,9.4,9.4,0,0,0-3.38-2.11,11.33,11.33,0,0,0-3.9-.69,9.75,9.75,0,0,0-7.13,3,12.9,12.9,0,0,0-3.44,8.4Z"/><path class="cls-1" d="M600.3,529.81V459.68h31a23.63,23.63,0,0,1,9.29,1.74,21,21,0,0,1,7.08,4.86,21.81,21.81,0,0,1,4.54,7.24,24.38,24.38,0,0,1,1.58,8.87,24,24,0,0,1-1.58,8.82,19.72,19.72,0,0,1-4.54,7,21,21,0,0,1-7.08,4.54,25,25,0,0,1-9.29,1.64H615v25.45Zm28.62-37.39q6.35,0,9.14-2.9a10.45,10.45,0,0,0,2.8-7.55,10,10,0,0,0-2.8-7.29q-2.8-2.85-9.14-2.85H615v20.59Z"/><path class="cls-1" d="M669.8,507.42q.32,5.91,3.43,9.4a10.44,10.44,0,0,0,8.18,3.48,11.51,11.51,0,0,0,6-1.53,6.93,6.93,0,0,0,3.33-4.27h14.15a22.77,22.77,0,0,1-8.45,12.35,23.91,23.91,0,0,1-14.36,4.33q-26,0-26-28.3A32.86,32.86,0,0,1,657.76,492a23.3,23.3,0,0,1,4.91-8.34,21.19,21.19,0,0,1,7.87-5.34,28.69,28.69,0,0,1,10.66-1.84q12,0,18.22,7.7t6.18,23.24Zm21.65-8.66a14.45,14.45,0,0,0-1-5,10.46,10.46,0,0,0-2.37-3.59,9.58,9.58,0,0,0-3.38-2.11,11.38,11.38,0,0,0-3.91-.69,9.77,9.77,0,0,0-7.13,3,12.89,12.89,0,0,0-3.43,8.4Z"/><path class="cls-1" d="M746.58,529.81l-.11-6.34q-4.76,7.71-14.47,7.71a21.34,21.34,0,0,1-9.08-1.9,19.88,19.88,0,0,1-7.08-5.49A26.5,26.5,0,0,1,711.2,515a37.55,37.55,0,0,1-1.69-11.72,38.71,38.71,0,0,1,1.42-10.82A25.62,25.62,0,0,1,715.1,484a18.86,18.86,0,0,1,6.71-5.54,20.18,20.18,0,0,1,9-1.95q9.61,0,15.42,8.13V458.84h13.52v71ZM735.17,520a10.27,10.27,0,0,0,8.29-4.12q3.33-4.12,3.33-10.77,0-16.91-11.52-16.9-11.82,0-11.82,16.05,0,7,3.27,11.35A10.08,10.08,0,0,0,735.17,520Z"/><path class="cls-1" d="M798.54,529.81a20.64,20.64,0,0,1-.85-4.65,17.14,17.14,0,0,1-6.44,4.39,24.5,24.5,0,0,1-9.29,1.63q-9,0-13.15-4a13.53,13.53,0,0,1-4.18-10.3,18.8,18.8,0,0,1,1.8-8.92,13.43,13.43,0,0,1,5-5.23A23.93,23.93,0,0,1,779,500c2.92-.59,6.1-1.14,9.55-1.63s5.78-1.15,7-2a4.82,4.82,0,0,0-.58-7.92A12.35,12.35,0,0,0,788.5,487q-4.75,0-6.81,2.11a10,10,0,0,0-2.59,5.6H766.33a23.33,23.33,0,0,1,1.31-7.4,14.25,14.25,0,0,1,3.91-5.81,18.43,18.43,0,0,1,7-3.74,36.53,36.53,0,0,1,10.56-1.32,34.18,34.18,0,0,1,10.4,1.37,16.7,16.7,0,0,1,6.87,4,15.09,15.09,0,0,1,3.74,6.44,30,30,0,0,1,1.17,8.71v32.85Zm-.95-25.45a7.62,7.62,0,0,1-3.07,1.69,55.77,55.77,0,0,1-5.8,1.37c-4,.78-6.66,1.76-8.14,3a6.25,6.25,0,0,0-2.22,5.17q0,5.81,6.66,5.81a13.23,13.23,0,0,0,4.91-.9,12,12,0,0,0,6.55-6,9.83,9.83,0,0,0,1-4.38Z"/><path class="cls-1" d="M853.77,522.84a10.83,10.83,0,0,1-5.33,5.44,19.54,19.54,0,0,1-8.93,2A23.25,23.25,0,0,1,828.69,528a19.9,19.9,0,0,1-7.08-6,24.45,24.45,0,0,1-3.91-8.55,40.78,40.78,0,0,1-1.21-9.93,32.43,32.43,0,0,1,1.8-11,26.48,26.48,0,0,1,4.85-8.56,21.76,21.76,0,0,1,7.19-5.49,20.44,20.44,0,0,1,8.87-1.95q9.7,0,14.57,7.81v-6.44H867.5v52.49a25.23,25.23,0,0,1-2,10.4,21,21,0,0,1-5.49,7.5,23.9,23.9,0,0,1-8.24,4.59,33.38,33.38,0,0,1-20.17.06,24.05,24.05,0,0,1-8-4.33,20,20,0,0,1-5.23-6.82,20.89,20.89,0,0,1-1.9-9.08h12.78a9,9,0,0,0,3.11,7.34,12.55,12.55,0,0,0,8.3,2.59,14.55,14.55,0,0,0,9.29-3,9.91,9.91,0,0,0,3.8-8.19Zm-11.3-3.38a10.6,10.6,0,0,0,8.4-3.86q3.33-3.86,3.32-10.5,0-16.69-11.72-16.69t-11.72,15.84q0,7,3.32,11.09A10.35,10.35,0,0,0,842.47,519.46Z"/><path class="cls-1" d="M899.29,531.18a30.08,30.08,0,0,1-11.3-2,23.18,23.18,0,0,1-13.63-14.26,33.2,33.2,0,0,1-1.79-11.09,32.33,32.33,0,0,1,1.85-11.2,24.17,24.17,0,0,1,5.33-8.66,23.73,23.73,0,0,1,8.4-5.54,30,30,0,0,1,11.14-1.95,29.27,29.27,0,0,1,11,1.95,23.66,23.66,0,0,1,8.29,5.49,23.92,23.92,0,0,1,5.28,8.61,32.63,32.63,0,0,1,1.85,11.3,32.22,32.22,0,0,1-1.85,11.25,24.49,24.49,0,0,1-5.28,8.6,23.2,23.2,0,0,1-8.34,5.55A29.38,29.38,0,0,1,899.29,531.18Zm0-11.51q12.57,0,12.57-15.84t-12.57-15.74q-12.57,0-12.57,15.74T899.29,519.67Z"/><path class="cls-1" d="M967.09,522.84a10.83,10.83,0,0,1-5.33,5.44,19.54,19.54,0,0,1-8.93,2A23.25,23.25,0,0,1,942,528a19.9,19.9,0,0,1-7.08-6,24.45,24.45,0,0,1-3.91-8.55,40.78,40.78,0,0,1-1.21-9.93,32.43,32.43,0,0,1,1.8-11,26.48,26.48,0,0,1,4.85-8.56,21.72,21.72,0,0,1,7.18-5.49,20.51,20.51,0,0,1,8.88-1.95q9.71,0,14.57,7.81v-6.44h13.73v52.49a25.23,25.23,0,0,1-2,10.4,21.15,21.15,0,0,1-5.49,7.5,23.9,23.9,0,0,1-8.24,4.59,33.38,33.38,0,0,1-20.17.06,24.05,24.05,0,0,1-8-4.33,20,20,0,0,1-5.23-6.82,20.89,20.89,0,0,1-1.9-9.08h12.78A9,9,0,0,0,945.7,540a12.55,12.55,0,0,0,8.3,2.59,14.55,14.55,0,0,0,9.29-3,9.91,9.91,0,0,0,3.8-8.19Zm-11.3-3.38a10.6,10.6,0,0,0,8.4-3.86q3.31-3.86,3.32-10.5,0-16.69-11.72-16.69t-11.72,15.84q0,7,3.32,11.09A10.35,10.35,0,0,0,955.79,519.46Z"/><path class="cls-1" d="M991.8,471.3l-3.27-5.81,21.86-12.78,5,8.66Zm-.21,58.51v-52h13.73v52Z"/><path class="cls-1" d="M1048.52,529.81a20.64,20.64,0,0,1-.85-4.65,17.14,17.14,0,0,1-6.44,4.39,24.5,24.5,0,0,1-9.29,1.63q-9,0-13.15-4a13.53,13.53,0,0,1-4.18-10.3,18.8,18.8,0,0,1,1.8-8.92,13.43,13.43,0,0,1,5-5.23,23.93,23.93,0,0,1,7.56-2.8c2.92-.59,6.1-1.14,9.55-1.63s5.78-1.15,7-2a4.82,4.82,0,0,0-.58-7.92,12.35,12.35,0,0,0-6.39-1.42q-4.76,0-6.81,2.11a10,10,0,0,0-2.59,5.6h-12.77a23.33,23.33,0,0,1,1.31-7.4,14.25,14.25,0,0,1,3.91-5.81,18.43,18.43,0,0,1,7-3.74,36.53,36.53,0,0,1,10.56-1.32,34.18,34.18,0,0,1,10.4,1.37,16.7,16.7,0,0,1,6.87,4,15.09,15.09,0,0,1,3.74,6.44,30,30,0,0,1,1.17,8.71v32.85Zm-1-25.45a7.62,7.62,0,0,1-3.07,1.69,55.77,55.77,0,0,1-5.8,1.37c-4,.78-6.66,1.76-8.14,3a6.25,6.25,0,0,0-2.22,5.17q0,5.81,6.66,5.81a13.23,13.23,0,0,0,4.91-.9,12,12,0,0,0,6.55-6,9.83,9.83,0,0,0,1-4.38Z"/><path class="cls-1" d="M1098.79,493.58c-.36-2.53-1.27-4.31-2.75-5.33s-3.8-1.53-7-1.53a14.39,14.39,0,0,0-6,1,3.43,3.43,0,0,0-2.11,3.33,3.86,3.86,0,0,0,2.11,3.54,28.25,28.25,0,0,0,6.34,2.37c3,.85,5.77,1.61,8.45,2.27a64.84,64.84,0,0,1,7.07,2.17,14.88,14.88,0,0,1,6.34,4.59q2.22,2.91,2.22,8,0,8.13-5.76,12.67t-17,4.54q-12,0-18.43-5.07a16.46,16.46,0,0,1-6.6-13h14.15a6.57,6.57,0,0,0,2.85,5.71q2.87,2,7.93,2a15.81,15.81,0,0,0,6.44-1.21,4.24,4.24,0,0,0,2.74-4.17,4,4,0,0,0-2.48-3.91,32.48,32.48,0,0,0-5.86-2c-4.37-1-7.89-2-10.56-2.85a27.07,27.07,0,0,1-6.76-3.06,13.22,13.22,0,0,1-5.12-5.28,14.66,14.66,0,0,1-1.43-6.45,16.14,16.14,0,0,1,1.16-6.12,11.83,11.83,0,0,1,3.81-4.91,19.35,19.35,0,0,1,6.81-3.22,37.75,37.75,0,0,1,10.08-1.16q11.31,0,16.64,4.33t5.86,12.77Z"/><path class="cls-1" d="M1142.93,529.81V459.68h27.14a35.24,35.24,0,0,1,13.1,2.38,28.71,28.71,0,0,1,10.3,6.81,31.66,31.66,0,0,1,6.7,10.77A40,40,0,0,1,1202.6,494a46.8,46.8,0,0,1-2.16,14.62,33.2,33.2,0,0,1-6.18,11.3,27.79,27.79,0,0,1-9.61,7.29,29,29,0,0,1-12.36,2.59Zm26.4-11.93q9.62,0,13.94-6t4.34-17.9a42.42,42.42,0,0,0-1.06-10.14,16.32,16.32,0,0,0-3.43-6.92A13.55,13.55,0,0,0,1177,473a28.92,28.92,0,0,0-9-1.21h-10.88v46.05Z"/><path class="cls-1" d="M1207.88,471.62V458.84h13.73v12.78Zm0,58.19v-52h13.73v52Z"/><path class="cls-1" d="M1264.28,522.84a10.85,10.85,0,0,1-5.34,5.44,19.5,19.5,0,0,1-8.92,2,23.3,23.3,0,0,1-10.83-2.27,19.78,19.78,0,0,1-7.07-6,24.27,24.27,0,0,1-3.91-8.55,40.78,40.78,0,0,1-1.21-9.93,32.43,32.43,0,0,1,1.79-11,26.69,26.69,0,0,1,4.86-8.56,21.72,21.72,0,0,1,7.18-5.49,20.47,20.47,0,0,1,8.87-1.95q9.72,0,14.58,7.81v-6.44H1278v52.49a25.23,25.23,0,0,1-2,10.4,21.28,21.28,0,0,1-5.49,7.5,24,24,0,0,1-8.24,4.59,33.38,33.38,0,0,1-20.17.06,24.1,24.1,0,0,1-8-4.33,20,20,0,0,1-5.22-6.82,20.89,20.89,0,0,1-1.9-9.08h12.78a9,9,0,0,0,3.11,7.34,12.54,12.54,0,0,0,8.29,2.59,14.53,14.53,0,0,0,9.29-3,9.89,9.89,0,0,0,3.81-8.19Zm-11.3-3.38a10.57,10.57,0,0,0,8.39-3.86q3.33-3.86,3.33-10.5,0-16.69-11.72-16.69t-11.73,15.84q0,7,3.33,11.09A10.35,10.35,0,0,0,1253,519.46Z"/><path class="cls-1" d="M1284.56,471.62V458.84h13.72v12.78Zm0,58.19v-52h13.72v52Z"/><path class="cls-1" d="M1334.19,495.59H1347v14.79a25.59,25.59,0,0,1-1.21,7.86,18.43,18.43,0,0,1-3.81,6.66,18,18,0,0,1-6.54,4.59,24,24,0,0,1-9.46,1.69,24.9,24.9,0,0,1-9.71-1.69,18.23,18.23,0,0,1-6.6-4.54,17.17,17.17,0,0,1-3.75-6.65,27.17,27.17,0,0,1-1.16-8V463.8h13.51v14.05H1347v9.71h-28.73V508.9q0,5,1.85,7.66c1.23,1.79,3.26,2.69,6.07,2.69s4.77-.88,6.08-2.64,2-4.26,2-7.5Z"/><path class="cls-1" d="M1385.31,529.81a20.64,20.64,0,0,1-.85-4.65,17.14,17.14,0,0,1-6.44,4.39,24.5,24.5,0,0,1-9.29,1.63q-9,0-13.15-4a13.53,13.53,0,0,1-4.18-10.3,18.8,18.8,0,0,1,1.8-8.92,13.43,13.43,0,0,1,5-5.23,23.93,23.93,0,0,1,7.56-2.8c2.92-.59,6.1-1.14,9.55-1.63s5.78-1.15,7-2a4.82,4.82,0,0,0-.58-7.92,12.35,12.35,0,0,0-6.39-1.42q-4.76,0-6.81,2.11a10,10,0,0,0-2.59,5.6H1353.1a23.33,23.33,0,0,1,1.31-7.4,14.25,14.25,0,0,1,3.91-5.81,18.43,18.43,0,0,1,7-3.74,36.53,36.53,0,0,1,10.56-1.32,34.18,34.18,0,0,1,10.4,1.37,16.7,16.7,0,0,1,6.87,4,15.09,15.09,0,0,1,3.74,6.44,30,30,0,0,1,1.17,8.71v32.85Zm-1-25.45a7.62,7.62,0,0,1-3.07,1.69,55.44,55.44,0,0,1-5.81,1.37c-3.94.78-6.65,1.76-8.13,3a6.25,6.25,0,0,0-2.22,5.17q0,5.81,6.66,5.81a13.23,13.23,0,0,0,4.91-.9,12,12,0,0,0,6.55-6,9.83,9.83,0,0,0,1-4.38Z"/><path class="cls-1" d="M1404.32,529.81v-71h13.73v71Z"/><path class="cls-1" d="M1436.63,507.42a14.81,14.81,0,0,0,3.44,9.4,10.44,10.44,0,0,0,8.18,3.48,11.53,11.53,0,0,0,6-1.53,6.92,6.92,0,0,0,3.32-4.27h14.16a22.77,22.77,0,0,1-8.45,12.35,23.94,23.94,0,0,1-14.37,4.33q-26,0-26-28.3a33.12,33.12,0,0,1,1.69-10.88,23.59,23.59,0,0,1,4.91-8.34,21.27,21.27,0,0,1,7.87-5.34,28.78,28.78,0,0,1,10.67-1.84q12,0,18.22,7.7t6.18,23.24Zm21.65-8.66a14.45,14.45,0,0,0-1-5,10.48,10.48,0,0,0-2.38-3.59,9.4,9.4,0,0,0-3.38-2.11,11.33,11.33,0,0,0-3.9-.69,9.75,9.75,0,0,0-7.13,3,12.84,12.84,0,0,0-3.43,8.4Z"/><path class="cls-1" d="M1508.66,493.58q-.53-3.79-2.75-5.33t-7-1.53a14.42,14.42,0,0,0-6,1,3.43,3.43,0,0,0-2.11,3.33,3.86,3.86,0,0,0,2.11,3.54,28.25,28.25,0,0,0,6.34,2.37c3,.85,5.77,1.61,8.45,2.27a65.75,65.75,0,0,1,7.08,2.17,14.91,14.91,0,0,1,6.33,4.59q2.22,2.91,2.22,8,0,8.13-5.76,12.67t-16.95,4.54q-12,0-18.43-5.07a16.46,16.46,0,0,1-6.6-13h14.15a6.55,6.55,0,0,0,2.86,5.71q2.85,2,7.92,2a15.81,15.81,0,0,0,6.44-1.21,4.25,4.25,0,0,0,2.75-4.17,4,4,0,0,0-2.49-3.91,32.48,32.48,0,0,0-5.86-2c-4.36-1-7.88-2-10.56-2.85a27.07,27.07,0,0,1-6.76-3.06,13.28,13.28,0,0,1-5.12-5.28,14.66,14.66,0,0,1-1.43-6.45,16,16,0,0,1,1.17-6.12,11.81,11.81,0,0,1,3.8-4.91,19.43,19.43,0,0,1,6.81-3.22,37.78,37.78,0,0,1,10.09-1.16q11.3,0,16.63,4.33t5.86,12.77Z"/></g></g></svg>