<svg xmlns="http://www.w3.org/2000/svg" viewBox="0 0 2373.54 879.79"><defs><style>.cls-1{fill:none;stroke:#0c011c;stroke-miterlimit:10;stroke-width:6px;}</style></defs><title>Recurso 7</title><g id="Capa_2" data-name="Capa 2"><g id="Recursos_gráficos" data-name="Recursos gráficos"><line class="cls-1" x1="501.05" y1="826.05" x2="501.05" y2="825.34"/><line class="cls-1" x1="501.05" y1="677.48" x2="501.05" y2="676.05"/><line class="cls-1" x1="994.8" y1="673.93" x2="994.8" y2="669.8"/><polyline class="cls-1" points="1501.05 669.8 1501.05 673.22 1501.05 675"/><polygon class="cls-1" points="662.29 142.83 501.05 677.48 501.05 825.34 3.74 675.36 205.87 5.18 662.29 142.83"/><polygon class="cls-1" points="1154.77 143.5 994.8 673.93 994.8 826.4 714.8 741.95 501.05 677.48 662.29 142.83 703.17 7.3 1154.77 143.5"/><polygon class="cls-1" points="1497.49 673.93 1501.05 675 1501.05 826.61 1213.38 739.85 994.8 673.93 1154.77 143.5 1196.92 3.74 1657.71 142.71 1497.49 673.93"/><polygon class="cls-1" points="2369.8 205.87 2167.68 876.05 1706.89 737.08 1501.05 675 1497.49 673.93 1657.71 142.71 1699.62 3.74 2369.8 205.87"/></g></g></svg>