<svg xmlns="http://www.w3.org/2000/svg" viewBox="0 0 108.18 152.49"><title>Recurso 5</title><g id="Capa_2" data-name="Capa 2"><g id="Capa_1-2" data-name="Capa 1"><path d="M110.09,58.25a2.51,2.51,0,0,1-1.34-.63,89.15,89.15,0,0,0-30-13.53,45.89,45.89,0,0,0-16.18-1.16c-7.62.94-12.67,5-15.31,12.21A82.4,82.4,0,0,0,44,67.78C42.76,73.86,41.68,80,40.1,86a84.3,84.3,0,0,1-9.72,22.09c-2.82,4.69-5.83,9.28-8.34,14.15a27.75,27.75,0,0,0-2.89,7.73,8.48,8.48,0,0,0,2.8,8.23,25.17,25.17,0,0,0,7.92,4.64,101.63,101.63,0,0,0,18.38,4.95c7.38,1.42,14.78,2.72,22.23,3.74a78,78,0,0,0,19.48.7,47.88,47.88,0,0,0,18.83-6.39c.45-.26.9-.52,1.36-.76a.83.83,0,0,1,.29,0c.08.42-.25.53-.5.69a47.88,47.88,0,0,1-17.69,6.74c-7.2,1.17-14.36.65-21.51-.34Q58.32,150.39,46,147.9a88.39,88.39,0,0,1-17.59-5.05,25.16,25.16,0,0,1-6.38-3.76,9.28,9.28,0,0,1-3.46-9.39,30.15,30.15,0,0,1,3.32-8.58c2.24-4.25,4.75-8.34,7.34-12.38A89.33,89.33,0,0,0,41.74,76.13c1-5.74,2-11.5,3.59-17.13a44.1,44.1,0,0,1,2.24-6.2,17.15,17.15,0,0,1,13-10.15A40.57,40.57,0,0,1,76,43a84.43,84.43,0,0,1,26.55,10.11c2.23,1.27,4.39,2.65,6.48,4.11A2.41,2.41,0,0,1,110.09,58.25Z" transform="translate(-2.31 -3.12)"/><path d="M110,63.16c-.61.1-.86-.33-1.19-.58A84.9,84.9,0,0,0,82.17,49.17a49.87,49.87,0,0,0-17.62-2.29,24.86,24.86,0,0,0-4.84.82A15.63,15.63,0,0,0,49.5,56a42,42,0,0,0-3.35,9.47C44.7,71.26,43.7,77.18,42.37,83a86.74,86.74,0,0,1-9.26,23.82c-2.91,5.11-6,10.09-8.48,15.45A25.72,25.72,0,0,0,22.94,127c-1.08,4.31.06,7.35,3.73,9.86a33.07,33.07,0,0,0,9.64,4.18,144.59,144.59,0,0,0,17.24,3.61C60.3,145.77,67,147,73.8,147.91a65.07,65.07,0,0,0,16,.47,45.33,45.33,0,0,0,19.36-7.27c.38-.24.71-.62,1.26-.59.06.54-.36.65-.62.82A45.4,45.4,0,0,1,89.25,149a63.09,63.09,0,0,1-13.53-.31c-8.22-1-16.35-2.51-24.51-3.83a120.19,120.19,0,0,1-15.92-3.49A30.49,30.49,0,0,1,25.77,137a8.62,8.62,0,0,1-3.59-9.14,34.74,34.74,0,0,1,3.87-9.78c1.76-3.36,3.66-6.65,5.62-9.9a90,90,0,0,0,11-29.26c1.12-5.64,2.1-11.32,3.75-16.85a43.42,43.42,0,0,1,2-5.28c2.74-6.15,7.58-9.4,14.14-10.29A42.64,42.64,0,0,1,78,47.5a83.53,83.53,0,0,1,31.14,14.65c.29.21.55.46.82.7C110,62.89,110,63,110,63.16Z" transform="translate(-2.31 -3.12)"/><path d="M110.19,68.3a1.24,1.24,0,0,1-1.13-.47,77.57,77.57,0,0,0-27.17-14.6,46.85,46.85,0,0,0-17-2.29c-7.19.48-12.55,3.68-15.37,10.56-.54,1.29-1,2.59-1.46,3.93A144.89,144.89,0,0,0,44.5,80.24a98,98,0,0,1-10.69,29,99.24,99.24,0,0,0-6.29,12.54,19.09,19.09,0,0,0-1.45,5.67,6.91,6.91,0,0,0,2.6,6.14,22.28,22.28,0,0,0,8,3.85,119.19,119.19,0,0,0,16.93,3.32c6.38.91,12.71,2,19.06,3.06A92,92,0,0,0,83.32,145a39.58,39.58,0,0,0,22.58-6.13c1.19-.73,2.33-1.54,3.5-2.3.29-.19.53-.51,1-.46.06.51-.38.66-.66.86-7.7,5.54-16.13,8.86-25.78,8.6a107.28,107.28,0,0,1-15.59-1.82c-6.42-1.11-12.87-2-19.3-3a87.41,87.41,0,0,1-13.92-3.09,22,22,0,0,1-6.33-3.08,7.7,7.7,0,0,1-3.31-7.5,26.51,26.51,0,0,1,2.62-8.19c2.06-4.42,4.45-8.68,6.78-13a93.46,93.46,0,0,0,9-25.6c1-4.89,2-9.8,3.42-14.59a37.62,37.62,0,0,1,2.48-6.23,15.87,15.87,0,0,1,11.49-8.6A35,35,0,0,1,75,51a76.2,76.2,0,0,1,33,15.24A7.5,7.5,0,0,1,110.19,68.3Z" transform="translate(-2.31 -3.12)"/><path d="M110.22,73.5c-.57.19-.73-.16-.94-.35a71.9,71.9,0,0,0-27.85-16A43.26,43.26,0,0,0,64.64,55c-6.65.58-11.51,3.69-14.24,9.94a71.82,71.82,0,0,0-3.79,12.48c-1.18,5.06-2.3,10.14-3.78,15.12-2,6.63-5.06,12.77-8.11,18.93a66.18,66.18,0,0,0-4.58,10.68,14.55,14.55,0,0,0-.67,4.49,6,6,0,0,0,2.33,4.67,16.07,16.07,0,0,0,5.1,2.59,65.56,65.56,0,0,0,12.92,2.57c8.06,1,16.08,2.17,24.05,3.73a73.89,73.89,0,0,0,8.79,1.15,35.19,35.19,0,0,0,20.63-5.1,51.53,51.53,0,0,0,5.86-4,2.49,2.49,0,0,1,1.16-.71c.19.44-.14.56-.33.71-8.57,7-18.14,10.78-29.39,9.49-5.25-.6-10.41-1.68-15.6-2.59s-10.13-1.4-15.2-2.09a73.82,73.82,0,0,1-13.26-2.66,16.15,16.15,0,0,1-4.9-2.47,7,7,0,0,1-2.75-6.31,22.58,22.58,0,0,1,1.73-6.71A115.78,115.78,0,0,1,36,107.57a105.57,105.57,0,0,0,9.32-27.14,92.64,92.64,0,0,1,3.74-13.88A20.22,20.22,0,0,1,54,58.67a16.92,16.92,0,0,1,10.1-4.24,41.63,41.63,0,0,1,16,1.73,71.84,71.84,0,0,1,29,16.06A3.69,3.69,0,0,1,110.22,73.5Z" transform="translate(-2.31 -3.12)"/><path d="M66.48,155.47a5.65,5.65,0,0,1-2.63-.2c-8.13-1.32-16.24-2.74-24.22-4.77a77.33,77.33,0,0,1-14.94-5.13,27.31,27.31,0,0,1-6.13-4,10.07,10.07,0,0,1-3.45-10.56,36.9,36.9,0,0,1,4.39-10c2.93-5,6.16-9.82,9.25-14.72A84,84,0,0,0,40,77c1.21-6.2,2.15-12.45,3.57-18.61a52.65,52.65,0,0,1,2.68-8.58c2.7-6.49,7.57-10.23,14.45-11.42a42.65,42.65,0,0,1,15,.34,91.91,91.91,0,0,1,33.41,13.67c.31.2.77.31.78.88-.55.17-.88-.27-1.24-.5a101.18,101.18,0,0,0-15.9-8.35,76.12,76.12,0,0,0-20.4-5.61,34.31,34.31,0,0,0-15.07,1.1A16.29,16.29,0,0,0,47.85,48a47.22,47.22,0,0,0-4.14,12.73C42.43,66.83,41.46,73,40.2,79.1a84.88,84.88,0,0,1-11.9,29C25.15,113,21.87,117.85,19,123a33.69,33.69,0,0,0-3.26,7.58,9.59,9.59,0,0,0,3.39,10.62,34.21,34.21,0,0,0,10.38,5.63,126.91,126.91,0,0,0,20,5.32c5.33,1.07,10.69,2,16.06,2.86C65.91,155,66.28,154.93,66.48,155.47Z" transform="translate(-2.31 -3.12)"/><path d="M110.14,79.25a4.69,4.69,0,0,1-1.53-1.33A65.07,65.07,0,0,0,77.17,60a35.2,35.2,0,0,0-13.56-.88,14.94,14.94,0,0,0-11.79,8.24,50,50,0,0,0-3.74,10.48c-1.36,5.18-2.49,10.42-4,15.56-1.87,6.44-4.76,12.46-7.49,18.55a44.76,44.76,0,0,0-3.55,10c-.07.39-.12.79-.18,1.19a7,7,0,0,0,3.92,7.54,26.8,26.8,0,0,0,7.1,2.5A124.37,124.37,0,0,0,57,135.23c5.92.68,11.78,1.76,17.68,2.6,6.57.94,13.07.92,19.41-1.39a47.07,47.07,0,0,0,15-8.93l.83-.68a1.47,1.47,0,0,1,.41-.14c.08.57-.37.77-.66,1a45.87,45.87,0,0,1-15.06,9.16,38.1,38.1,0,0,1-18,1.76C71.22,138,65.89,137,60.5,136.25c-4.4-.57-8.82-1-13.19-1.8a45.08,45.08,0,0,1-8.46-2.16,16.29,16.29,0,0,1-3.19-1.64,7.29,7.29,0,0,1-3.4-7.19,28.08,28.08,0,0,1,2.44-8.62c1.75-4.07,3.6-8.11,5.39-12.17a115.89,115.89,0,0,0,6.18-20,87.55,87.55,0,0,1,3.79-13,22.48,22.48,0,0,1,3-5.44c3.09-4,7.37-5.59,12.22-5.95a43.49,43.49,0,0,1,18,2.88A64.88,64.88,0,0,1,109.44,78C109.72,78.32,110.14,78.55,110.14,79.25Z" transform="translate(-2.31 -3.12)"/><path d="M43.52,155.17c-.24.37-.43.35-.63.3-7.93-1.95-15.79-4.1-23-8.11A23.86,23.86,0,0,1,14.19,143a10.52,10.52,0,0,1-2.81-10.16A34.83,34.83,0,0,1,16,122.6c3.13-5.21,6.6-10.2,10-15.25A84.27,84.27,0,0,0,38.84,74.94c1.1-6.18,2.2-12.36,3.37-18.53a51.79,51.79,0,0,1,3.22-10.78c2.72-6.35,7.53-10.06,14.25-11.4a43.79,43.79,0,0,1,16.22.17A94.25,94.25,0,0,1,106.73,46c.9.52,1.79,1.06,2.66,1.62.24.15.65.22.48.75-.42,0-.72-.26-1-.45a99.08,99.08,0,0,0-28.27-12,50.71,50.71,0,0,0-18.19-1.53c-4.57.54-8.83,1.9-12.23,5.23a21.49,21.49,0,0,0-4.85,7.91,77.94,77.94,0,0,0-3.5,14.18C40.51,69,39.38,76.32,37.51,83.49a82.74,82.74,0,0,1-11,24.11c-3.27,5-6.74,9.92-9.87,15A39.73,39.73,0,0,0,12.5,131c-1.9,5.84-.58,9.89,4.32,13.58A47.13,47.13,0,0,0,29.4,151a126,126,0,0,0,12.77,3.73A4,4,0,0,1,43.52,155.17Z" transform="translate(-2.31 -3.12)"/><path d="M28.54,155.16c-.24.39-.48.26-.69.18-5.46-2-10.79-4.27-15.33-8a15.9,15.9,0,0,1-4.06-4.84A11.76,11.76,0,0,1,8,133.27a36.69,36.69,0,0,1,3.93-8.33c3.09-5.1,6.62-9.91,10-14.83,4.9-7.19,9.39-14.58,12.11-22.93a136.2,136.2,0,0,0,4.59-19.84c1-5.79,1.79-11.62,3.14-17.35a48.85,48.85,0,0,1,2.85-8.64A18.89,18.89,0,0,1,58.1,30.18a40.61,40.61,0,0,1,14.66-.59c12.33,1.52,23.7,5.86,34.49,11.84.84.47,1.65,1,2.47,1.49.09,0,.2.14.11.4-.41.14-.73-.21-1.06-.4a113.47,113.47,0,0,0-13.55-6.67,84.94,84.94,0,0,0-22.73-6.13,45.57,45.57,0,0,0-11.84.13C52.45,31.5,47,36,44.19,43.82a94,94,0,0,0-3.83,16.45C39.13,67.64,38,75,36.09,82.28A80.72,80.72,0,0,1,24.69,107c-3.5,5.21-7.09,10.36-10.59,15.57a51,51,0,0,0-4.85,8.81,20.58,20.58,0,0,0-1.17,3.9c-.84,4.1.54,7.48,3.43,10.33a35.9,35.9,0,0,0,10.42,6.73c1.75.81,3.53,1.51,5.33,2.18A2.76,2.76,0,0,1,28.54,155.16Z" transform="translate(-2.31 -3.12)"/><path d="M17.72,155.21a.73.73,0,0,1-.84-.05,35.25,35.25,0,0,1-9.56-6.75,12.52,12.52,0,0,1-3.24-13.14A43.21,43.21,0,0,1,9.7,124.18c4-6.09,8.36-11.91,12.5-17.89A86,86,0,0,0,36,72.44c1.3-7.12,2.26-14.3,3.59-21.41a69.19,69.19,0,0,1,3.19-11.92c3-8,8.88-12.46,17.25-13.78a53.52,53.52,0,0,1,19.54.93,104.7,104.7,0,0,1,29.38,11.19c.36.2.85.28,1,.84-.45.21-.76-.1-1.08-.28a112.25,112.25,0,0,0-19.51-8.59,78.63,78.63,0,0,0-16.83-3.73,45.51,45.51,0,0,0-13.73.45,19.75,19.75,0,0,0-15.27,12.8,73.11,73.11,0,0,0-3.82,15c-1.25,7.33-2.28,14.69-3.8,22A84.74,84.74,0,0,1,22.48,107c-3.79,5.51-7.79,10.85-11.52,16.39a50.13,50.13,0,0,0-6.13,11.37c-1.74,5-.88,9.45,2.86,13.27a27.8,27.8,0,0,0,2.86,2.56,45,45,0,0,0,6.18,3.9C17.09,154.64,17.54,154.76,17.72,155.21Z" transform="translate(-2.31 -3.12)"/><path d="M110.12,85.23c-.46.09-.55-.28-.73-.51a57.87,57.87,0,0,0-25-18.59A43.27,43.27,0,0,0,67,62.64,17,17,0,0,0,56.66,65.9a16.88,16.88,0,0,0-4.79,6.36,67.94,67.94,0,0,0-4,12.29,150.65,150.65,0,0,1-5.8,19.14c-1.61,4-3.35,7.88-4.67,12a27.73,27.73,0,0,0-1.25,5.48,7.44,7.44,0,0,0,4.12,8,32.88,32.88,0,0,0,9.79,3.1c5.22,1,10.52,1.55,15.76,2.4,3.63.59,7.27,1.14,10.93,1.52a36.47,36.47,0,0,0,24.06-6,44.31,44.31,0,0,0,8.38-7,9.2,9.2,0,0,1,.77-.76c0-.05.14,0,.3-.08.1.58-.36.84-.64,1.14a42.19,42.19,0,0,1-10,8.09,37.09,37.09,0,0,1-24.89,4.93c-8.23-1.18-16.46-2.34-24.66-3.69a37.91,37.91,0,0,1-8-2.17,19.11,19.11,0,0,1-2.35-1.18,7.85,7.85,0,0,1-4.12-8.25,29.86,29.86,0,0,1,1.77-7.2c1.42-4,3.13-7.87,4.68-11.82A160.12,160.12,0,0,0,47.5,83.53a72.36,72.36,0,0,1,3.19-10.18c1.47-3.47,3.36-6.64,6.65-8.73A18.94,18.94,0,0,1,67.54,62,41.48,41.48,0,0,1,81,64.27a60.2,60.2,0,0,1,25.31,15.91,46.09,46.09,0,0,1,3.54,4.23C110,84.65,110.3,84.86,110.12,85.23Z" transform="translate(-2.31 -3.12)"/><path d="M78.19,133.58a71.73,71.73,0,0,1-14-1.86,114.22,114.22,0,0,1-11.69-2.66,26.08,26.08,0,0,1-6.13-2.67,9.29,9.29,0,0,1-4.63-8.17,24.54,24.54,0,0,1,1-7.34c2.5-8.64,4.73-17.35,7.39-25.94A38.56,38.56,0,0,1,53,78.21c3.09-5.77,8-8.51,14.43-8.69a37.09,37.09,0,0,1,15,3,48,48,0,0,1,21.36,16.29A32.88,32.88,0,0,1,109.18,100a21.71,21.71,0,0,1-3.69,19.21A35.06,35.06,0,0,1,83.91,133.1,26.74,26.74,0,0,1,78.19,133.58Zm-.11-.57a26,26,0,0,0,5.84-.49,34.55,34.55,0,0,0,21.76-14.59,20.58,20.58,0,0,0,3.3-16.34,32,32,0,0,0-6.15-13.13A47.17,47.17,0,0,0,82.59,73.2a36.54,36.54,0,0,0-15.4-3c-5.82.22-10.36,2.63-13.33,7.77a40.31,40.31,0,0,0-3.44,8c-2,6.32-3.5,12.79-5.47,19.13a59.5,59.5,0,0,0-2.58,11c-.57,5.14,1.12,8.33,5.7,10.66a30.06,30.06,0,0,0,5.71,2.16c4.44,1.22,9,2,13.48,2.89A59.54,59.54,0,0,0,78.08,133Z" transform="translate(-2.31 -3.12)"/><path d="M110.43,117.05a12.11,12.11,0,0,1-1.93,3.12,38.77,38.77,0,0,1-22.84,14.4,31.21,31.21,0,0,1-10.86.29c-8.28-1.12-16.54-2.37-24.68-4.25A25,25,0,0,1,43.21,128a8.51,8.51,0,0,1-4.5-8.6,31.78,31.78,0,0,1,2.13-9.2c3.24-8.62,5.67-17.48,8.08-26.35A41.43,41.43,0,0,1,53,73.59a15.2,15.2,0,0,1,12.32-7.66,35.54,35.54,0,0,1,15,2,53.67,53.67,0,0,1,25.55,17.51,36.8,36.8,0,0,1,3.84,5.79,2.32,2.32,0,0,1,.45,1.29c-.5-.12-.6-.53-.78-.83-7.85-13.32-19.65-21.12-34.51-24.57a28.24,28.24,0,0,0-10.49-.42,14.62,14.62,0,0,0-11.27,8A41.22,41.22,0,0,0,49.51,84c-2.52,9.55-5.39,19-8.73,28.28a26.13,26.13,0,0,0-1.51,7.38,7.86,7.86,0,0,0,4,7.73,26.55,26.55,0,0,0,8.4,3.07q11.38,2.39,22.93,3.87c11.57,1.49,21.28-2.53,29.66-10.29a33.21,33.21,0,0,0,5.21-6.25C109.69,117.47,109.75,117,110.43,117.05Z" transform="translate(-2.31 -3.12)"/><path d="M109.87,33.28c-.49.18-.78-.08-1.09-.24A116.27,116.27,0,0,0,89.6,24.92c-7.86-2.49-15.85-4.17-24.14-4a36.55,36.55,0,0,0-9.35,1.35,19.88,19.88,0,0,0-13.25,11.6,61.39,61.39,0,0,0-3.94,13.81c-1.34,7.23-2.21,14.54-3.57,21.77-1.59,8.44-3.74,16.7-7.51,24.46a109.82,109.82,0,0,1-9.07,15c-4.17,6-8.68,11.68-12.7,17.75-1,1.57-2,3.17-2.91,4.82-.17.33-.23.78-.78.89-.21-.51.13-.84.32-1.19A91.83,91.83,0,0,1,9.19,121c3.77-5.26,7.64-10.46,11.32-15.79A85.73,85.73,0,0,0,34,73c1.52-7.61,2.51-15.31,3.83-22.95a78,78,0,0,1,3.75-14.86c3.17-8.35,9.3-12.93,18-14.3a52,52,0,0,1,16.71.29A108.07,108.07,0,0,1,108.92,32.5C109.26,32.68,109.68,32.78,109.87,33.28Z" transform="translate(-2.31 -3.12)"/><path d="M109.91,28.4a4.28,4.28,0,0,1-1.44-.5,123.08,123.08,0,0,0-16.7-7c-8.6-2.8-17.36-4.71-26.47-4.53a32.79,32.79,0,0,0-14.17,3.16c-4.77,2.38-7.88,6.29-10.08,11A61.25,61.25,0,0,0,37,43.74c-1.47,6.89-2.48,13.86-3.81,20.77a121.15,121.15,0,0,1-7,24.75,109.66,109.66,0,0,1-10.55,18.52c-4.09,6-8.52,11.81-12.5,17.9-.14.22-.24.52-.64.51-.31-.44.09-.71.28-1,2.83-4.42,6-8.61,9-12.9A150.62,150.62,0,0,0,23.89,92.64a93.48,93.48,0,0,0,6.56-18.51c2.24-8.93,3.48-18,5.24-27.07a79.48,79.48,0,0,1,4.14-15.14,33.43,33.43,0,0,1,2.72-5.33C46.13,21,51.45,18,57.81,16.7a49.93,49.93,0,0,1,16.72-.31,107.27,107.27,0,0,1,34.62,11.27,5.45,5.45,0,0,1,.62.35S109.82,28.15,109.91,28.4Z" transform="translate(-2.31 -3.12)"/><path d="M109.83,23.21c-.45.29-.78-.08-1.1-.23A118,118,0,0,0,83,13.85a65.36,65.36,0,0,0-22.38-1.57,31,31,0,0,0-11,3.27c-5.12,2.73-8.51,7-10.93,12.19a82.55,82.55,0,0,0-5.32,16.9C31.54,52.82,30,61.07,28,69.24a115,115,0,0,1-16.75,37.59c-2.68,4-5.32,8-8,12-.2.3-.31.76-.89.7-.12-.53.28-.83.5-1.16,3.53-5.34,7.09-10.65,10.54-16,7.47-11.62,12.13-24.35,15.1-37.77,1.72-7.73,3.15-15.52,5-23.21A71.13,71.13,0,0,1,38.42,27,25.89,25.89,0,0,1,47.15,16.4a30.08,30.08,0,0,1,13.48-4.66c8.59-1,17,.18,25.3,2.25a119.63,119.63,0,0,1,23.13,8.56C109.37,22.7,109.77,22.76,109.83,23.21Z" transform="translate(-2.31 -3.12)"/><path d="M109.88,18.14c-.51.17-.83-.1-1.18-.26A127.42,127.42,0,0,0,86,9.81,82.24,82.24,0,0,0,68.25,7.29,45.32,45.32,0,0,0,53,9.34a26.56,26.56,0,0,0-14.78,12,64.49,64.49,0,0,0-6.21,15c-2.18,7.32-3.83,14.78-5.61,22.21-2.55,10.63-5.57,21.11-10.34,31A194.85,194.85,0,0,1,4.79,109.2l-1.62,2.53c-.16.26-.29.58-.76.55-.07-.72.45-1.17.76-1.67,2.8-4.42,5.55-8.88,8.17-13.41A124.8,124.8,0,0,0,23.16,68.56c2.35-8.31,4.17-16.76,6.29-25.13A105.34,105.34,0,0,1,35,26.22a34.13,34.13,0,0,1,8-11.8c4.5-4.06,9.92-6.06,15.79-7a61.32,61.32,0,0,1,17.22.09C87.61,9,98.49,12.6,109,17.44,109.31,17.58,109.71,17.64,109.88,18.14Z" transform="translate(-2.31 -3.12)"/><path d="M57.19,3.34a1.42,1.42,0,0,1-1,.44A30.17,30.17,0,0,0,35.64,18.47a77.67,77.67,0,0,0-6.89,16.18C26.4,42,24.63,49.42,22.61,56.83a199.28,199.28,0,0,1-8.94,26.81A172.06,172.06,0,0,1,3.19,103.58c-.15.26-.25.62-.73.55-.2-.53.24-.87.46-1.25C5.49,98.5,8,94.08,10.25,89.54A161.07,161.07,0,0,0,20.83,60.9c2.14-7.57,4-15.22,6.25-22.77,2-6.83,4.28-13.58,7.94-19.75,3.43-5.8,8-10.35,14.31-13A37.47,37.47,0,0,1,56,3.34C56.33,3.26,56.72,3,57.19,3.34Z" transform="translate(-2.31 -3.12)"/><path d="M44.05,3.4a.78.78,0,0,1-.48.6A36.92,36.92,0,0,0,32.28,16.7a91.68,91.68,0,0,0-6.82,16c-3,8.86-5.39,17.91-8.1,26.86a179.09,179.09,0,0,1-13.69,34c-.29.52-.38,1.22-1.13,1.5-.19-.55.14-.89.34-1.25a155.51,155.51,0,0,0,8.85-19.4c2.92-7.79,5.3-15.76,7.63-23.74,2.1-7.22,4.13-14.45,6.72-21.51a70.07,70.07,0,0,1,8.71-17.3,32.08,32.08,0,0,1,8-7.83A2.3,2.3,0,0,1,44.05,3.4Z" transform="translate(-2.31 -3.12)"/><path d="M37.16,3.49c-.94,1.08-1.92,2.13-2.82,3.23C29.64,12.45,26.47,19,23.79,25.87c-2.83,7.23-5.12,14.64-7.44,22-3,9.58-6,19.15-9.85,28.44-1,2.36-2,4.7-3.08,7-.16.37-.23.86-.73,1-.3-.38,0-.65.09-.92,5.86-12.54,9.83-25.76,14-38.91,2.25-7.14,4.51-14.27,7.42-21.17a68.81,68.81,0,0,1,8.91-16A34.21,34.21,0,0,1,36,4.07a2.89,2.89,0,0,1,1-.77Z" transform="translate(-2.31 -3.12)"/><path d="M31.53,3.18a8.79,8.79,0,0,1-1.62,2.49,84.13,84.13,0,0,0-9.19,17.07c-3.1,7.41-5.62,15-8.16,22.67C9.79,53.71,7,62,3.83,70.17a8.39,8.39,0,0,1-1,2.11c-.43-.57-.08-1,.06-1.3,1.66-4.2,3.23-8.44,4.68-12.71C10.33,50.17,13,42.05,15.82,34a143.24,143.24,0,0,1,9-21.17,62.44,62.44,0,0,1,5.66-8.74c.18-.22.36-.43.55-.63S31.22,3.33,31.53,3.18Z" transform="translate(-2.31 -3.12)"/><path d="M2.83,58.5c-.37-.39-.08-.73,0-1C6.67,47.21,10,36.77,14,26.59A122.14,122.14,0,0,1,24.65,5a7.72,7.72,0,0,1,1.44-1.88c.23.47,0,.71-.21,1-5.3,7.93-9,16.62-12.39,25.49-3.48,9.2-6.6,18.52-10,27.76C3.37,57.75,3.33,58.26,2.83,58.5Z" transform="translate(-2.31 -3.12)"/><path d="M2.61,44.4c5.17-14,10.05-28,18.12-40.74C13.2,16.58,8.32,30.66,3.08,44.58Z" transform="translate(-2.31 -3.12)"/><path d="M109.79,13.08c-3.43-1.32-6.8-2.79-10.27-4S92.56,6.7,89,5.76,81.85,4.11,78.25,3.4C82.44,2.69,107.63,10.46,109.79,13.08Z" transform="translate(-2.31 -3.12)"/><path d="M15.71,3.69C10.67,12.54,6.88,22,3,31.32,2.64,29.42,13,6.82,15.71,3.69Z" transform="translate(-2.31 -3.12)"/><path d="M95.39,155.32a56.5,56.5,0,0,0,15-5.78C109.15,151.51,97,156.26,95.39,155.32Z" transform="translate(-2.31 -3.12)"/><path d="M2.64,19a152.22,152.22,0,0,1,8-15.63C7.9,8.56,5.41,13.86,3.07,19.23Z" transform="translate(-2.31 -3.12)"/><path d="M109.81,7.77c-.53,0-11.5-4.22-11.93-4.59C99.35,3.18,108.83,6.83,109.81,7.77Z" transform="translate(-2.31 -3.12)"/><path d="M2.5,149.17a41.6,41.6,0,0,0,7,6C7.87,155.24,3.26,151.18,2.5,149.17Z" transform="translate(-2.31 -3.12)"/><path d="M2.91,8A20.46,20.46,0,0,1,5.27,3.48,22.84,22.84,0,0,1,2.91,8Z" transform="translate(-2.31 -3.12)"/><path d="M110.5,154.18a4.53,4.53,0,0,1-2.82,1.43A7.12,7.12,0,0,1,110.5,154.18Z" transform="translate(-2.31 -3.12)"/><path d="M76.91,132c-4.67.09-9.2-.92-13.71-2a56.15,56.15,0,0,1-10.38-3.28l-.22-.1c-6-2.72-8.33-6.48-8-13.07a52.84,52.84,0,0,1,1.67-9.68c1.4-5.75,2.65-11.54,4.76-17.09a36.63,36.63,0,0,1,2.76-5.71c3.19-5.31,7.95-7.8,14-7.95a33.23,33.23,0,0,1,13,2.5,43,43,0,0,1,19.83,15.14,30.32,30.32,0,0,1,4.93,10.33,20.45,20.45,0,0,1-4,18.52,31.88,31.88,0,0,1-20.86,12.29,4.59,4.59,0,0,1-.83.1Zm0-.47a23.93,23.93,0,0,0,3.59-.19,31.27,31.27,0,0,0,21.75-13.72,19,19,0,0,0,3.41-12.72,25.26,25.26,0,0,0-3.15-10.11,40.8,40.8,0,0,0-18.63-17.2,35,35,0,0,0-16-3.85c-5.72.12-10.25,2.45-13.35,7.37a36.12,36.12,0,0,0-3.32,7,135.05,135.05,0,0,0-3.88,14,70.69,70.69,0,0,0-2.07,10.7,18.26,18.26,0,0,0,.24,5.37c.78,3.71,3.33,5.89,6.51,7.5a50.09,50.09,0,0,0,11.12,3.7A59.93,59.93,0,0,0,77,131.56Z" transform="translate(-2.31 -3.12)"/><path d="M75.74,130.65a51.67,51.67,0,0,1-15.69-3.08,29.06,29.06,0,0,1-7.94-3.86A12,12,0,0,1,47,114.37a39.42,39.42,0,0,1,.94-10.83A73.89,73.89,0,0,1,52,89a29.15,29.15,0,0,1,3-5.56,15.31,15.31,0,0,1,12-6.68,30,30,0,0,1,14,2.69A37.49,37.49,0,0,1,99.2,95.11c2.62,4.49,4.06,9.29,3.35,14.56a20.27,20.27,0,0,1-5.32,10.94,29.35,29.35,0,0,1-16.47,9.61A22.86,22.86,0,0,1,75.74,130.65Zm0-.57a26.81,26.81,0,0,0,3.47-.19,28.47,28.47,0,0,0,16.61-8.62,21.78,21.78,0,0,0,5.65-9.22c1.48-5.11.56-10-1.71-14.66a35.35,35.35,0,0,0-15.26-15.6,32.2,32.2,0,0,0-16.6-4.43A14.67,14.67,0,0,0,57.08,82a22.63,22.63,0,0,0-3.77,5.66,63.58,63.58,0,0,0-4.56,14.74,41.89,41.89,0,0,0-1.19,12,11.41,11.41,0,0,0,4.69,8.67,30.75,30.75,0,0,0,9.52,4.43A48.27,48.27,0,0,0,75.75,130.08Z" transform="translate(-2.31 -3.12)"/><path d="M48.91,110.36c.42-7.24,1.76-14.28,5.12-20.79,2-3.83,4.73-6.93,8.95-8.42a18.47,18.47,0,0,1,9.83-.58c11,2.2,19.4,8.12,24.32,18.33,4.21,8.73,2.09,16.73-5,23.19a26.28,26.28,0,0,1-13.44,6.72,29.93,29.93,0,0,1-12.93-.94,37.55,37.55,0,0,1-10.06-4.12c-4.65-2.85-6.76-7.06-6.79-12.43Zm20.17-29.5a14.73,14.73,0,0,0-13.61,7.45,39,39,0,0,0-4.76,12.61,44.27,44.27,0,0,0-1.24,10.7,13.23,13.23,0,0,0,6.88,11.85,39.2,39.2,0,0,0,9.54,3.83,30.08,30.08,0,0,0,10.67,1.19,25.78,25.78,0,0,0,17.86-9.69,17.05,17.05,0,0,0,3-17.77A29.87,29.87,0,0,0,85.35,86.25,30.11,30.11,0,0,0,69.08,80.86Z" transform="translate(-2.31 -3.12)"/><path d="M72.22,127.55a29.73,29.73,0,0,1-15.12-4.92,13.12,13.12,0,0,1-6.22-10.55,36.48,36.48,0,0,1,4.59-20.42c3.11-5.58,7.9-8.19,14.34-8,10.43.32,21.79,8.7,25,18.63,2.24,6.91.55,12.87-4.5,17.91C85.61,124.93,79.91,127.52,72.22,127.55Zm1.23-.52a23.52,23.52,0,0,0,17.66-8.52A16.07,16.07,0,0,0,95,110.79c.82-4.39-.31-8.42-2.46-12.19A28.56,28.56,0,0,0,77,85.73a23.9,23.9,0,0,0-7.5-1.46,13.93,13.93,0,0,0-13.36,7.49A35.62,35.62,0,0,0,51.45,112,12.41,12.41,0,0,0,57.14,122,30.26,30.26,0,0,0,73.45,127Z" transform="translate(-2.31 -3.12)"/><path d="M71,87.08c6.62.47,13.26,4.21,18.09,11.15a18.53,18.53,0,0,1,3.37,9,14.29,14.29,0,0,1-4.06,11.28c-9.23,10-22.26,9-30.59,2.7a12.72,12.72,0,0,1-5.15-10,29.59,29.59,0,0,1,4.6-17.82C60,89.1,64,86.93,71,87.08Zm-.67.52c-5.38,0-9,1.44-11.66,4.92-4.21,5.57-5.73,12-5.42,18.84a12.2,12.2,0,0,0,5.65,9.94c8.48,5.73,19.64,6,28.15-2.21,4.94-4.74,6.32-10.87,3.56-16.86C86.38,93.14,79.07,88.45,70.28,87.6Z" transform="translate(-2.31 -3.12)"/><path d="M70.6,124.44a18.83,18.83,0,0,1-10.29-3.1,12.51,12.51,0,0,1-6-10.48,25.17,25.17,0,0,1,3.39-13.79c3-5.26,7.67-7.51,13.62-6.6C79.16,91.67,84.85,96,88,103.3c2.4,5.58,1.23,10.64-3,15A20.4,20.4,0,0,1,70.6,124.44Zm1.32-.58A19,19,0,0,0,85,117.44c4-4.33,4.73-9.42,2.15-14.75A20.49,20.49,0,0,0,75.14,92a17.79,17.79,0,0,0-6.71-1.07,11.7,11.7,0,0,0-9.93,6,24.49,24.49,0,0,0-3.67,13.47A12.07,12.07,0,0,0,60.77,121C63.74,122.84,67,123.84,71.92,123.86Z" transform="translate(-2.31 -3.12)"/><path d="M68.65,123a13.79,13.79,0,0,1-11.1-6.32,10.75,10.75,0,0,1-1.67-5.8,20.6,20.6,0,0,1,3-11.42A11.53,11.53,0,0,1,71.2,93.68c7.1,1.22,12,5.21,14.26,12.11a10.81,10.81,0,0,1-2.33,10.85A18.84,18.84,0,0,1,68.65,123Zm.91-.58A17.85,17.85,0,0,0,83,115.94a10.62,10.62,0,0,0,1.89-10.38A17.15,17.15,0,0,0,70,94.13a10.88,10.88,0,0,0-10.33,5.29,19.65,19.65,0,0,0-3.14,11.73,10.36,10.36,0,0,0,3.56,7.6A14.23,14.23,0,0,0,69.56,122.39Z" transform="translate(-2.31 -3.12)"/><path d="M69.64,121.59c-8.42,0-13.56-6.38-12-14a17.17,17.17,0,0,1,1.51-4.41c2.57-5.08,7.14-7.33,12.72-6.24A13.81,13.81,0,0,1,82.7,107.85a9.15,9.15,0,0,1-1.81,7.57A15.14,15.14,0,0,1,69.64,121.59Zm-.87-.55A15,15,0,0,0,80,115.59a9,9,0,0,0,1.61-9.53,12.92,12.92,0,0,0-10-8.52,10.09,10.09,0,0,0-11.34,5A15.31,15.31,0,0,0,58.18,108a10.74,10.74,0,0,0,.81,7.25C61.08,119,64.47,120.76,68.77,121Z" transform="translate(-2.31 -3.12)"/><path d="M79.78,109.5a9,9,0,0,1-3,7.12c-3.27,3.07-7.07,4.55-11.53,3.16a9.14,9.14,0,0,1-6.55-9.39,10.65,10.65,0,0,1,16-9.13A10.33,10.33,0,0,1,79.78,109.5Zm-20.45,1.26a8.71,8.71,0,0,0,6.86,8.68A11.43,11.43,0,0,0,78.63,113a7.24,7.24,0,0,0,.56-2.44,9.76,9.76,0,0,0-9.44-10.19A10.2,10.2,0,0,0,59.33,110.76Z" transform="translate(-2.31 -3.12)"/><path d="M68.67,102.45a7.92,7.92,0,0,1,8.15,8,8.79,8.79,0,0,1-8.65,8.65,8,8,0,0,1-8.12-8A8.62,8.62,0,0,1,68.67,102.45Zm0,.59a8.11,8.11,0,0,0-8.05,8.25A7.42,7.42,0,0,0,68,118.47a8.24,8.24,0,0,0,8.25-8A7.38,7.38,0,0,0,68.67,103Z" transform="translate(-2.31 -3.12)"/><path d="M68.07,104.55a6.51,6.51,0,0,1,6.62,6.59,6.91,6.91,0,0,1-6.86,6.74,6.6,6.6,0,0,1-6.54-6.59A6.68,6.68,0,0,1,68.07,104.55Zm-6.2,6.73a6,6,0,0,0,6,6,6.22,6.22,0,0,0,6.2-6.16,5.92,5.92,0,0,0-6.17-6A6.15,6.15,0,0,0,61.87,111.28Z" transform="translate(-2.31 -3.12)"/><path d="M67.72,116.71a5.3,5.3,0,0,1,0-10.6,5.3,5.3,0,1,1,0,10.6Zm-.08-.6a4.73,4.73,0,0,0,4.85-4.58,4.72,4.72,0,1,0-4.85,4.58Z" transform="translate(-2.31 -3.12)"/><path d="M71.79,111.6a4.09,4.09,0,1,1-8.17-.28,4.09,4.09,0,0,1,8.17.28Zm-4,3.4a3.51,3.51,0,1,0-3.68-3.47A3.57,3.57,0,0,0,67.83,115Z" transform="translate(-2.31 -3.12)"/><path d="M64.72,111.27a3,3,0,0,1,5.94.34,2.85,2.85,0,0,1-3.07,2.82A2.92,2.92,0,0,1,64.72,111.27Zm5.41.18a2.46,2.46,0,0,0-2.48-2.39,2.41,2.41,0,0,0-2.37,2.48,2.43,2.43,0,1,0,4.85-.09Z" transform="translate(-2.31 -3.12)"/></g></g></svg>