<svg xmlns="http://www.w3.org/2000/svg" viewBox="0 0 346.75 630"><defs><style>.cls-1{fill:none;stroke:#000;stroke-linecap:round;stroke-linejoin:round;stroke-width:2px;}</style></defs><title>Recurso 3</title><g id="Capa_2" data-name="Capa 2"><g id="Capa_1-2" data-name="Capa 1"><path class="cls-1" d="M298,10.5c-.67,10.33-2,20.68-1.84,31A389.5,389.5,0,0,0,299.79,90a288.27,288.27,0,0,1,2.48,59c-1.43,23.63-5.46,46.95-7.11,70.49-1.93,27.53-2.8,55.14,2.8,82.5,2.54,12.44,7.8,24,11.68,35.95,5.31,16.42,6,33.09,4.86,50-1.44,21.63-7,42.61-10.08,64A389.84,389.84,0,0,0,301,512a177.94,177.94,0,0,0,4.92,37.53c1.37,6,1.27,12.33,2.16,18.46,1.59,11,1,22,.85,33-.14,8.84-1.22,17.67-1.89,26.5" transform="translate(-13.39 -9.5)"/><path class="cls-1" d="M290,10.5a250,250,0,0,0-.89,36.5,260.61,260.61,0,0,0,3.75,37.53,149.27,149.27,0,0,1,2.07,23c.51,17,.57,34-1,51-1.24,13.52-2.84,27-4.49,40.5-1.24,10.14-2.27,20.27-2.53,30.5-.27,11-.23,22-.06,33,.32,21.05,4.92,41.14,12.76,60.45,5.13,12.63,7.25,25.64,7.85,39.05.92,20.49-2.76,40.51-6.53,60.49-2.66,14.09-4.71,28.21-6.14,42.49-1,9.68-1.2,19.38-1.55,29a172.13,172.13,0,0,0,3.19,38.5c2.18,11.4,4.37,22.76,4.76,34.48.22,6.49,1.24,13,.68,19.5-1,11.83-.44,23.8-2.85,35.52a22.42,22.42,0,0,0,0,4.49" transform="translate(-13.39 -9.5)"/><path class="cls-1" d="M306,11.5c-2.52,19.1-2.4,38.32-1.85,57.5.31,10.69,2.19,21.33,3.35,32,.84,7.67,2.12,15.32,2.41,23a441.38,441.38,0,0,1-2,57.49c-1.17,12.53-3.08,25-4.41,37.51a399.93,399.93,0,0,0-1.76,64c1.17,21.4,7.4,41.26,14.76,61,3.73,10,5.05,20.43,5.46,31,.83,21.18-2.63,41.84-6.76,62.55a304.17,304.17,0,0,0-5.37,37.94c-.78,11.17-1.68,22.3-1.93,33.51a197.72,197.72,0,0,0,4.15,44,184.61,184.61,0,0,1,4,40.52c-.23,11.34.29,22.7-1,34" transform="translate(-13.39 -9.5)"/><path class="cls-1" d="M314,11.5c-1,10.5-2.52,21-2.86,31.5-.35,11.15-1,22.38.46,33.49.67,5.17.34,10.33,1.22,15.54,1.78,10.56,2.78,21.28,3.6,32,.72,9.3,1.42,18.6.7,28-.63,8.3-.39,16.65-1,25-1,14.4-3.27,28.64-4.68,43-1,10.15-2.18,20.28-2.49,30.5-.37,12.17-.59,24.32,0,36.5.86,19,4.34,37.42,11.62,55,7.48,18,9.46,36.64,8.64,56-.89,20.73-6,40.68-9.09,61-2.26,14.88-4.17,29.82-4.3,45-.05,6-1,12-.77,18a258,258,0,0,0,5.34,43,117.72,117.72,0,0,1,2.68,22c.08,5.34.94,10.67.87,16-.11,8.17-1.43,16.3-.92,24.5" transform="translate(-13.39 -9.5)"/><path class="cls-1" d="M322.5,11.5c-.83,7.83-1.8,15.66-2.47,23.5-.8,9.49-2,19-1.89,28.5A362.24,362.24,0,0,0,321.83,112a284.88,284.88,0,0,1,2.39,59.49c-1.35,20.1-3.88,40-6.15,60-2.3,20.25-2.61,40.63-2,61a173.38,173.38,0,0,0,13.36,61c7.58,18.44,8.6,37.86,7,57.47-1.55,19.25-6.14,38-9.4,57-4.35,25.31-4.79,50.91-3.9,76.48.31,8.71,2.25,17.39,3.92,26,1.47,7.62,2.16,15.31,3.13,23,1.16,9.22.38,18.37.75,27.53a54.77,54.77,0,0,1-.46,6.5" transform="translate(-13.39 -9.5)"/><path class="cls-1" d="M60.5,22.5c.17,7.83-.2,15.72.62,23.49,1.26,11.83,3,23.65,6.87,35,3,8.83,6.69,17.41,9.09,26.48,4,15,4.6,30.19,3.39,45.52-1.7,21.58-7.06,42.6-10,64C65.94,249.93,65,282.75,72,315.51,75.3,331.17,75.63,347,75.11,363c-.35,10.71-.84,21.37-2.13,32-1.43,11.84-3,23.66-4.47,35.5C65.72,453.59,64,476.66,65.79,500a140.23,140.23,0,0,0,13.56,50.05c5,10.57,6.44,22.21,7.26,33.92.78,11.28-.66,22.35-1.44,33.52-.48,7-2.3,13.91-2.17,21" transform="translate(-13.39 -9.5)"/><path class="cls-1" d="M53,22.5c1.13,21.55,3.31,42.9,12,63,5.67,13.09,7.9,26.84,8.53,41,.76,17.42-1.83,34.47-5,51.51-3.61,19.36-7.13,38.75-8,58.49-.76,16.51-1.3,33,.56,49.49a232.76,232.76,0,0,0,4,24.49A133.33,133.33,0,0,1,67.93,336c.67,24.14-1.34,48.09-4.77,72a486.38,486.38,0,0,0-5.38,67c-.09,24,3.93,46.81,14.21,68.5a74.94,74.94,0,0,1,7,32c.05,7.83.14,15.67,0,23.5-.23,10.76-2,21.37-3.62,32-.34,2.3.64,5-1.35,7" transform="translate(-13.39 -9.5)"/><path class="cls-1" d="M282,11.5c0,10.17-.13,20.34,0,30.5a242.65,242.65,0,0,0,3.85,37.52,166.57,166.57,0,0,1,2.05,23,415.35,415.35,0,0,1-2,56c-1.3,12.71-3.9,25.3-4.78,38-1.24,18.12-2.81,36.23-1.82,54.5.82,15.22,2.17,30.26,6.19,45,2.7,9.88,7.21,19.12,10.07,29,5.13,17.65,5,35.46,3.51,53.54-1.46,17.76-5.9,35-8.56,52.5-2.07,13.58-3.34,27.26-4.07,41-1,18.65-.7,37.15,3.46,55.52,5.14,22.73,4.48,45.91,3.92,69-.25,10-2.18,20-3.35,30" transform="translate(-13.39 -9.5)"/><path class="cls-1" d="M46,22.5C47.42,32,47.59,41.58,49.45,51c2,10,5.47,19.52,9.09,29a121.24,121.24,0,0,1,7.63,39.5c.84,23-3.74,45.17-7.69,67.51-2.78,15.73-5,31.51-5.45,47.5-.28,10.66-.7,21.31-.18,32,.64,13.06,3.53,25.7,5.63,38.49a231.1,231.1,0,0,1,2.41,47c-.45,11-1.71,22-2.94,33-1.28,11.53-3.09,23-4.4,34.52-1.06,9.3-2.08,18.64-2.45,28-.44,10.82-.72,21.64-.22,32.51.77,17.06,3.86,33.46,11.11,49a106,106,0,0,1,10.14,44.5c.14,15.45-1.38,30.72-3.18,46-.71,6-2,12-3,18" transform="translate(-13.39 -9.5)"/><path class="cls-1" d="M68,23.5c0,3.67.1,7.34,0,11-.8,24.29,3.84,47.58,13,70,4.69,11.4,6.46,23.34,6.93,35.51.76,19.11-2.2,37.8-5.78,56.53A444.82,444.82,0,0,0,74.35,261a254.17,254.17,0,0,0,5,61c3.69,18.43,3.49,37.19,2.8,56-.74,20-3.81,39.7-6.26,59.48-2.3,18.62-4.14,37.26-3.79,56,.4,21.32,3.51,42.11,13.3,61.56,4.51,9,6.67,18.77,7.82,28.92a151,151,0,0,1,.59,26c-.57,9.52-.67,19.19-3.3,28.51" transform="translate(-13.39 -9.5)"/><path class="cls-1" d="M274.5,11.5a79.68,79.68,0,0,0,0,20c1.07,7.3,0,14.7,1.39,22,1.27,6.58,1.76,13.31,2.59,20a285.79,285.79,0,0,1,2.43,45c-.29,8.51-1.13,17-2,25.5-1,10.34-2.42,20.65-3.44,31-1.29,13.16-3,26.32-3.37,39.5-.45,17.84-.68,35.7,1.72,53.52,1.89,14.06,6.18,27.39,11.29,40.41,4.28,10.91,6.3,22.06,7.36,33.57,2,22.05-2.29,43.51-6.11,65-2.89,16.25-5.37,32.49-6.63,49a404,404,0,0,0-.58,41,145.24,145.24,0,0,0,4,28.47,178.86,178.86,0,0,1,3.71,29,196.45,196.45,0,0,1-.05,28c-.77,9.5-.67,19.11-2.74,28.53-1,4.72-1.09,9.65-1.59,14.48" transform="translate(-13.39 -9.5)"/><path class="cls-1" d="M339,13.5c-1.33,9.33-2.83,18.65-3.92,28-.45,3.81-.6,7.67-.95,11.5a321.87,321.87,0,0,0,0,56.48c1,12.21,3.18,24.32,4.32,36.52.87,9.29,1.48,18.6.69,28-.67,8-.22,16-.93,24-1,11.68-2.43,23.32-3.69,35-1.54,14.3-3.11,28.57-3.63,43a336.57,336.57,0,0,0,1.72,51.5,124.8,124.8,0,0,0,9.49,35c8.08,18.77,10.06,38.28,9.1,58.53-.76,15.93-4,31.4-6.69,47-2.27,12.94-4.59,25.84-5.58,39-.95,12.66-2,25.3-1.92,38,.06,14.37,2.65,28.44,5.17,42.48a210.81,210.81,0,0,1,2.82,21c.49,6.32-.59,12.69.54,19" transform="translate(-13.39 -9.5)"/><path class="cls-1" d="M330.5,14c-1.15,11.17-2.73,22.28-3.67,33.49-.6,7-.56,14-.86,21-.93,21.35,1.92,42.41,4.52,63.5,2.12,17.14,1.47,34.28.71,51.51-.94,21.31-4.78,42.26-6.32,63.48-1,13.5-2,27-1.89,40.51.21,25.52,4,50.32,14,74,4.9,11.61,6.64,23.9,7.12,36.48.79,20.68-2.79,40.83-6.55,61-2.35,12.59-4.34,25.21-5.69,38-1.59,15-1.82,30-1.85,45,0,11.67,2.27,23.06,4.14,34.48,1.09,6.66,2.18,13.3,3.06,20,1.37,10.36.35,20.69.82,31" transform="translate(-13.39 -9.5)"/><path class="cls-1" d="M75,23.5c0,5.83.09,11.67,0,17.5a176.26,176.26,0,0,0,13.44,71c4.44,10.8,6.16,22.26,6.64,34,1,23.94-3.48,47.18-7.87,70.54a293.68,293.68,0,0,0-5.29,48c-.25,11.51-.61,23,.06,34.5.58,9.83,2.83,19.36,4.46,29a264.24,264.24,0,0,1,2.8,61c-1.07,16.94-3.07,33.73-5.38,50.47A409.27,409.27,0,0,0,79.57,499c.14,14.83.68,29.74,5.5,44,2.93,8.64,6.46,17.09,10,25.51,4,9.64,5.62,19.71,5.92,30,.21,7.33.37,14.69-.07,22-.32,5.34-.29,10.79-1.89,16" transform="translate(-13.39 -9.5)"/><path class="cls-1" d="M33,22.5A132.4,132.4,0,0,0,42.51,61c8.19,19.22,10.64,39.39,9.38,60-.78,12.77-3,25.42-5.37,38C43,177.69,40,196.43,38.84,215.49c-1.08,17.75-1.37,35.4,1.21,53,1.2,8.21,3.33,16.3,4.37,24.52a262.11,262.11,0,0,1,1.75,43.5c-.53,12.9-1.52,25.71-3.19,38.49-1.59,12.17-3.88,24.29-4.85,36.51C36.59,431,34.93,450.39,36.78,470c1.12,12,2.9,23.66,6.79,35,3.2,9.27,8.22,17.79,10.55,27.49A124.46,124.46,0,0,1,57.51,573c-.78,8.84-1.06,17.72-2.48,26.51-1.62,10-2.49,20.13-5,30-.5,2,1,4.28-1,6" transform="translate(-13.39 -9.5)"/><path class="cls-1" d="M347,14.5c-.83,6.5-1.69,13-2.49,19.5-.87,7-1.88,14-2.46,21-.71,8.65-.91,17.34-1.58,26-.93,12,0,24.07,1.18,36,2,20.48,6,40.83,5.24,61.51-.59,16.36-1.53,32.71-3.71,49-3.84,28.83-6.32,57.81-5.19,87,.87,22.63,6.7,44,14.84,65.07,6.49,16.77,7.13,34.6,5.65,52.43-1.8,21.6-7,42.66-10.42,64-3.78,23.69-3.71,47.63-2.82,71.48.4,10.72,3.48,21.33,5.23,32,.68,4.14,1.12,8.32,1.51,12.5.44,4.83.69,9.67,1,14.5" transform="translate(-13.39 -9.5)"/><path class="cls-1" d="M267,12.5A303.3,303.3,0,0,0,270.86,63a181.22,181.22,0,0,1,2.23,28c-.06,15.51.31,31-1.16,46.49-1.14,11.87-3,23.66-4.39,35.51-1,9-2,18-2.47,27-.93,19-1.13,38,1,57A152.52,152.52,0,0,0,277,298.5c7.57,18.31,9.17,37.37,8.12,57-1.19,22.37-6.92,44-10,66-1.84,13.22-3.41,26.53-3.22,40,.11,8-.18,16-.06,24,.18,11.91,2.55,23.42,4.69,35A237.68,237.68,0,0,1,279.89,573c-.42,11-1.74,22-2.95,33-.67,6-1.94,12-2.94,18" transform="translate(-13.39 -9.5)"/><path class="cls-1" d="M27,23.5c1.15,11,4.56,21.35,8.59,31.46C43.45,74.68,45.86,94.81,44.27,116c-1.47,19.63-5.89,38.66-8.89,58-4.26,27.42-5.86,54.9-3.24,82.51,1,10.41,3.7,20.65,5.29,31A140.4,140.4,0,0,1,39,305a399.27,399.27,0,0,1-3,62.5c-1.5,11.5-3,23-4.49,34.5a334.7,334.7,0,0,0-1.69,64c1.18,18.23,7.71,34.58,14.62,51,3.53,8.4,5,17.35,5.59,26.47a236.91,236.91,0,0,1,0,25c-.57,13-2.44,25.74-4.54,38.5-1.23,7.49-2.33,15-3.52,22.5-.24,1.51-.66,3-1,4.5" transform="translate(-13.39 -9.5)"/><path class="cls-1" d="M260,13.5c-.18,15,1.82,29.71,3.85,44.52,2.72,19.89,2.6,39.89,1.39,60-.9,14.91-2.72,29.69-4.41,44.47-2.26,19.8-3.9,39.59-3.84,59.52.08,24.83,4,49,13.55,72,5.06,12.21,6.94,24.91,7.53,38,.95,21-2.83,41.52-6.65,62a379.85,379.85,0,0,0-6.57,52.5c-.32,7-.82,14-.86,21-.08,15.73,2.38,31.13,5.4,46.52,1.45,7.38,1.83,15,2.6,22.48,1.22,12,.24,24-.09,36-.25,9.21-1.55,18.36-2.73,27.52-1,7.83-2.17,15.65-3.17,23.48" transform="translate(-13.39 -9.5)"/><path class="cls-1" d="M21,23.5c2.16,12,7.17,23.06,11.08,34.47C35.64,68.4,37,79.1,37.5,90c.86,19.63-2.38,38.84-6,58-3.21,16.89-6,33.83-6.94,51-1.36,25.19-.52,50.13,4.68,75.06,4.09,19.65,3.36,39.84,1.93,59.95-1.64,23.15-5.77,46-8.06,69a333.55,333.55,0,0,0-1,53,127,127,0,0,0,12.34,47A89.48,89.48,0,0,1,43,540.5c.07,5.17,0,10.33,0,15.5-.08,12.63-1.82,25.07-3.92,37.51-2,11.78-3.48,23.65-5,35.5-.2,1.6-1.85,2.75-1.09,4.49" transform="translate(-13.39 -9.5)"/><path class="cls-1" d="M15.5,23.5c3.5,10,7.36,19.89,10.39,30A87.36,87.36,0,0,1,30,80c-.19,11,.68,22.06-1.07,33-2,12.37-4.41,24.66-6.41,37-1.91,11.77-3.68,23.56-4.66,35.48S16.43,209.15,16.52,221c.1,13.85,2.28,27.41,4.8,41a235.78,235.78,0,0,1,3.33,53c-1,23.2-4.56,46.05-7.54,69-2.43,18.72-2.94,37.6-2.64,56.49A139.28,139.28,0,0,0,28.56,499c5.1,10.67,6.75,22,7.31,33.54.86,17.6-.77,35.1-3.79,52.5-2.72,15.77-4.75,31.66-7.08,47.49" transform="translate(-13.39 -9.5)"/><path class="cls-1" d="M90.5,24.5c-.76,12.15-2.63,24.3-1,36.49.92,6.66.43,13.34,1.29,20,1.58,12.36,4,24.45,8.7,36,8.68,21.06,11.63,42.7,9.72,65.53-1.81,21.78-7,42.91-9.9,64.46a398.79,398.79,0,0,0-3.28,62.52c.31,13,3.31,25.72,5.51,38.49a183.3,183.3,0,0,1,2.49,40.51c-.42,8.5,0,17-1,25.51-1.54,12.47-2.24,25.07-4.2,37.47-1.56,9.82-2.63,19.69-3.7,29.54-1,9.59-.9,19.31-1.13,29-.6,24.45,3.42,47.9,14.38,70,4.37,8.84,5.93,18.53,6.78,28.43a142.3,142.3,0,0,1,.32,25" transform="translate(-13.39 -9.5)"/><path class="cls-1" d="M253,14.5c-.14,12.82,2.43,25.36,3.8,38,1.82,16.9,3.67,33.89,1.33,51-.83,6.07-.21,12.32-1.05,18.49-1.45,10.63-2.45,21.32-3.57,32-1.46,14-3.41,27.92-3.48,42-.1,18.89-.52,37.78,2.91,56.51,2.09,11.42,5.83,22.27,10.09,33,7.64,19.21,9,39.2,7.43,59.51-1.5,19.22-5.92,38-9.06,57a362.74,362.74,0,0,0-4.24,72c.33,9.37,2.06,18.77,3.94,28a194.27,194.27,0,0,1,4,41c-.11,11.51.27,23.07-1.18,34.49-1.49,11.68-2.26,23.47-4.83,35-.72,3.25-.73,6.66-1.06,10" transform="translate(-13.39 -9.5)"/><path class="cls-1" d="M246,15.5c.24,8.26,1.56,16.37,2.89,24.52a169.16,169.16,0,0,1,2,22.48q.5,17.75,0,35.5c-.31,12.39-2,24.69-3.35,37-1.83,16.63-4.17,33.2-4.71,50-.4,12.68-.47,25.34.18,38,.87,17,3.89,33.7,10.52,49.47,8.3,19.78,10.86,40.22,9.57,61.54-1,17.27-4.76,34-7.59,51-2.69,16.06-5.21,32.17-5.5,48.49-.18,10.33-.69,20.64-.19,31,.54,11.35,2.75,22.37,4.61,33.5,1,6.13,1.68,12.33,2.53,18.49,1.56,11.3,1.23,22.67.89,34-.3,9.85-1.31,19.69-2.45,29.49-1.6,13.86-3.61,27.68-5.44,41.51" transform="translate(-13.39 -9.5)"/><path class="cls-1" d="M98,25.5c-2,10.43-1.15,21-1.31,31.5-.39,25,2.16,49.61,12.18,73.06a107.15,107.15,0,0,1,8.2,41.44c.15,16.55-1.93,32.76-4.91,49-4.38,23.94-8,48-8.88,72.46a251.59,251.59,0,0,0,4.79,57.5,201.42,201.42,0,0,1,3.47,32A365.33,365.33,0,0,1,109.91,428c-1,11.38-3,22.66-4.38,34-1.48,12.3-3.35,24.57-3.57,37-.12,6.84-1,13.67-.89,20.5.46,22.53,3,44.53,13.7,65.12,4.46,8.59,6.52,18.38,7.48,28.36.6,6.2.38,12.36.75,18.52" transform="translate(-13.39 -9.5)"/><path class="cls-1" d="M239.5,19c1.17,9.83,2.13,19.7,3.55,29.49,1.88,13,1.11,26,.77,39s-1.94,26-3.38,39C238.87,140.65,237,154.78,236,169q-1.27,16.74-.92,33.5c.49,24.38,4.33,48,14.29,70.58,4.38,10,6.13,21,6.61,31.92a226.45,226.45,0,0,1-4.32,54c-3,15.23-6,30.57-7.38,46-1.68,18.74-3.28,37.53-1.45,56.5,1.22,12.65,4.4,24.91,5.68,37.48,1.43,14,4,27.88,1.6,42-.44,2.59,0,5.33-.07,8a276.38,276.38,0,0,1-3.91,37.51c-1.43,8.6-2.06,17.33-3.09,26-.32,2.67-1.47,5.23-1,8" transform="translate(-13.39 -9.5)"/><path class="cls-1" d="M105.5,28c-.5,6-1.4,12-1.42,18-.06,16.17-.79,32.37,1,48.5,1.62,15.06,5.81,29.45,11.39,43.53a113.72,113.72,0,0,1,7.72,38c.82,21.92-2.91,43.18-7,64.54a351.77,351.77,0,0,0-5.78,46c-1.14,20.44-2,40.85,2.2,61a252.39,252.39,0,0,1,5.28,64c-.63,13.2-1.93,26.38-3.68,39.54-2,15.27-4,30.57-5.37,46-1.34,15.7-1.11,31.39-.57,47a101.83,101.83,0,0,0,9.63,40.57c6.55,13.82,11.55,28.25,11.12,43.94" transform="translate(-13.39 -9.5)"/><path class="cls-1" d="M233.5,19.5c.5,5.67.69,11.38,1.56,17A178,178,0,0,1,236.4,80c-.58,6.5-.61,13-1.17,19.53-1,11.53-2.46,23-3.84,34.47-3.17,26.45-4.4,52.89-2.49,79.52,1.27,17.8,6,34.55,12.53,51,7.5,18.8,8.66,38.54,7,58.47-1.75,21.23-7,41.93-10,63a396.55,396.55,0,0,0-3.56,53c-.11,15.95,2.44,31.47,5.49,47a143.74,143.74,0,0,1,2.5,22.48c.42,11,.49,22,0,33A236.36,236.36,0,0,1,240.11,569c-1.81,11.09-2.78,22.31-4.11,33.48q-1,8.5-2,17" transform="translate(-13.39 -9.5)"/><path class="cls-1" d="M113.5,28.5c-1.19,4.08-.91,8.39-1.27,12.52a335.16,335.16,0,0,0-1.15,45.48c1,20.12,4.58,39.75,12.38,58.52,7.72,18.6,9.09,38,7.71,58-1.46,21.16-6.76,41.62-9.63,62.5-3.46,25.06-4.76,50.2-2.63,75.5,1.18,14,5.19,27.47,6.18,41.48a361.22,361.22,0,0,1,.07,49c-.7,10.72-2,21.35-3.22,32-1.06,9-2.83,18-3.87,27-1,8.46-1.84,17-2,25.49-.23,14.33-.93,28.73,1,43,1.39,10.28,3.43,20.44,7.84,30C130.3,600.71,135,612.67,137,625.5" transform="translate(-13.39 -9.5)"/><path class="cls-1" d="M227,23c1.81,4.33,1.36,9,1.82,13.52,1.58,15.45.76,31,0,46.47a318,318,0,0,1-3.65,33c-1.81,11.57-2.6,23.3-3.61,35-1.06,12.31-1.19,24.65-1,37,.29,22.35,3.29,44.2,12,65,8,19.09,9.94,39,8.6,59.51-1.23,18.78-5.52,37-8.5,55.51a343.73,343.73,0,0,0-4.74,50c-.13,8.68-.11,17.33.11,26,.25,10,2.09,19.76,4.08,29.49a215.61,215.61,0,0,1,4,47,358.29,358.29,0,0,1-4,47.51c-1.7,11.28-2.74,22.66-4.07,34-.68,5.83-1.33,11.67-2,17.5" transform="translate(-13.39 -9.5)"/><path class="cls-1" d="M121.5,29.5c-.83,7.17-2.12,14.31-2.41,21.5-.73,18-2,36-.12,54a172.46,172.46,0,0,0,12.16,48.45c5.12,12.28,7.16,25,7.82,38.05,1.16,22.55-3.56,44.5-7.5,66.49-2.58,14.42-4.84,28.85-5.45,43.51-.32,7.67-.75,15.33-1,23-.48,15.89,1.87,31.45,4.87,47,3.51,18.13,4.12,36.49,3.28,55q-.69,15.54-2.24,31c-1,10.2-2.48,20.36-4,30.51-1.87,12.77-2.79,25.62-3.49,38.5-1.2,22.22-.38,44.17,6.94,65.53,2.85,8.31,7.58,15.81,9.74,24.43a73.46,73.46,0,0,0,2.34,8" transform="translate(-13.39 -9.5)"/><path class="cls-1" d="M221.5,24.5c-1.7,3.1.64,5.95.59,9-.22,12,.55,24-.27,36s-1.74,24.06-3.64,36C216.06,118.9,215,132.48,214.1,146c-.8,12-1.3,24-1,36,.53,19.75,2.66,39.33,9.86,58,3.7,9.61,7.49,19.13,9.14,29.47,3,18.6,2.2,37-.54,55.53-2.79,18.87-7.46,37.44-9.07,56.49s-3.37,37.87-1.72,57c1.07,12.52,4.06,24.63,5.61,37,2,15.75,3.84,31.53,1.72,47.51-.78,5.91-.36,12-1,18-1.1,10.54-2.4,21-4,31.5-1.43,9.1-1.53,18.43-3.29,27.45-1.17,6,.47,12.22-1.8,18" transform="translate(-13.39 -9.5)"/><path class="cls-1" d="M215,27.5c0,3.33,0,6.67,0,10,.21,17.07-1.15,34-2.87,51-1.31,13-2.89,26-4.38,39-2.2,19-2.18,38-1.54,57a152.82,152.82,0,0,0,12.09,54.59c8.14,19.37,9.88,40,8.19,60.92-2,24.26-8.23,47.85-11.14,72a370.93,370.93,0,0,0-2.14,59c.43,10.88,2.77,21.74,4.89,32.49A139.89,139.89,0,0,1,221,489c.12,10.5.42,21-.09,31.49-.43,9-1.61,18-2.64,27s-2.65,17.91-3.33,27c-.53,6.87-2.46,13.65-2.77,20.52-.35,7.83-1.88,15.61-1.14,23.49" transform="translate(-13.39 -9.5)"/><path class="cls-1" d="M129,31.5c-1,9.33-2,18.66-3,28a38.11,38.11,0,0,0,0,4c0,12.83-.09,25.67,0,38.5a153,153,0,0,0,11.47,56,118.3,118.3,0,0,1,8.6,41c.69,22.41-3.37,44.17-7.5,66a365.75,365.75,0,0,0-6,81c.47,13.52,3.78,26.69,5.8,40a226.25,226.25,0,0,1,1.86,54c-.8,9.14-1.38,18.34-2.31,27.47-1.14,11.2-3,22.33-4.38,33.51-1,8.15-2.18,16.32-2.42,24.5-.36,12.49-1,25-.25,37.51.94,16.79,4.34,32.82,11.65,48,1.79,3.72,3.72,7.38,4.49,11.5" transform="translate(-13.39 -9.5)"/><path class="cls-1" d="M137,32.5c-1,8.67-2.41,17.31-2.85,26-.3,5.67-1,11.32-1.11,17-.16,9.66-.19,19.34,0,29,.41,21.79,4.05,42.85,12.79,63.08,4.53,10.48,6.42,21.85,7.3,33.41,1.89,24.64-2.56,48.61-7.25,72.48-5.44,27.66-6.42,55.53-5.81,83.53.23,10.47,2.66,20.72,4.55,31a192.68,192.68,0,0,1,3.4,32,350.94,350.94,0,0,1-1.11,40c-1.22,12.54-3.23,25-4.9,37.51a424.29,424.29,0,0,0-4,71.5,121.35,121.35,0,0,0,5.09,32c2.29,7.33,5.56,14.36,8.39,21.53" transform="translate(-13.39 -9.5)"/><path class="cls-1" d="M207.5,29.5a24.71,24.71,0,0,1,.34,11c-1,5.86-.44,11.7-.89,17.53-.71,9.19-1.86,18.36-2.71,27.52-1,10.18-2.35,20.31-3.4,30.46a413.05,413.05,0,0,0-2.28,47c.2,19.85,1.58,39.58,8.44,58.5,3.65,10.06,7.87,19.93,10,30.5,4.06,19.85,2.86,39.73-.13,59.48s-7.55,39.45-9.48,59.51c-2.08,21.52-2.69,43-.31,64.5.89,8.07,3.1,16,4.34,24a181.26,181.26,0,0,1,2.45,22c.44,14.33.6,28.72-1,43-1.34,12-2.45,24.1-4.8,36-1.25,6.38-1.27,13-2.14,19.47a211.61,211.61,0,0,0-2,31c0,2.48-1.83,4.9-.43,7.5" transform="translate(-13.39 -9.5)"/><path class="cls-1" d="M82.5,26a190.49,190.49,0,0,0-.24,32.48A236,236,0,0,0,84.78,82c2,12,5.84,23.23,10.15,34.49,6.7,17.53,8.12,35.75,7.24,54.48-1,21.89-6.61,43-9.62,64.5-1.81,12.93-3.54,25.9-3.5,39,0,15.69-1,31.42,1.92,47,1.69,9.13,3.57,18.22,4.58,27.48,1.89,17.17,1.69,34.29.61,51.52-.86,13.57-2.71,27-4.2,40.49-1.11,10-2.87,20-3.9,30C86.65,484.79,87,498.66,87,512.5a140.41,140.41,0,0,0,5,37c2.5,9.21,7.06,17.64,10.5,26.5,3.57,9.19,4.89,18.71,5.61,28.5.76,10.38-.7,20.68-.14,31" transform="translate(-13.39 -9.5)"/><path class="cls-1" d="M145,33.5c-.41,8.4-1.74,16.69-2.91,25-.53,3.79-.68,7.68-1,11.5-1.38,19.31-1.89,38.67-.1,58,1.35,14.6,4.41,28.95,10.08,42.45,7.93,18.85,10.57,38.25,9.49,58.56-1.16,22-6.64,43.29-9.61,65-4.45,32.52-6.58,65,.38,97.52,3.69,17.24,4.58,34.8,3.78,52.49-.4,8.66-.48,17.35-1.24,26-.82,9.37-2.27,18.68-3.42,28-1.23,10-2.75,19.94-3.63,30-1,11.83-1.92,23.63-1.9,35.51,0,19.76,2,39.15,10,57.5" transform="translate(-13.39 -9.5)"/><path class="cls-1" d="M200,31.5c.65,13.9-.86,27.71-2.11,41.49-1.13,12.38-3.86,24.63-4.75,37-1.44,20.29-3.1,40.54-1.38,61,1.31,15.58,3.53,30.77,8.77,45.47,2.95,8.3,6.51,16.36,8.5,25,4.3,18.75,3.88,37.67,1.34,56.49-2.2,16.25-5.76,32.32-8.3,48.53-2,13.07-2.83,26.28-3.64,39.49a203.93,203.93,0,0,0,1.62,42c1.24,8.54,3.34,17,4.37,25.52,1.93,16.1,3.8,32.19,1.73,48.51-.79,6.24-.27,12.66-1.11,19-1.32,10-2.35,20-3.55,30-.79,6.67-1.56,13.35-2.51,20a304.36,304.36,0,0,0-3,47.5" transform="translate(-13.39 -9.5)"/><path class="cls-1" d="M153,34.5c-.17,8.1-1.68,16-2.9,24C149,65.94,148.45,73.49,148,81c-.92,17.33-1.33,34.69.05,52a165.64,165.64,0,0,0,12.36,50c5.11,12.44,7.12,25.52,7.64,39,.88,22.76-3.72,44.83-7.66,67a372.4,372.4,0,0,0-5.5,46c-.69,13.35-1,26.67.07,40,.77,9.45,2.93,18.68,4.43,28,3,18.71,4.84,37.48,2.72,56.51-.68,6.09-.35,12.33-1.13,18.48-1.25,9.83-2.35,19.67-3.52,29.5S155,527.15,154.06,537s-2,20-1.94,30c.06,18.44,1.08,36.86,7.38,54.5" transform="translate(-13.39 -9.5)"/><path class="cls-1" d="M161.5,34.5c-1.17,10.17-2,20.39-3.57,30.49-3.6,22.58-3.28,45.31-2.8,68a138.63,138.63,0,0,0,10.38,51c8,19.07,10.72,38.84,9.67,59.51-.93,18.46-4.81,36.38-7.77,54.47-2.8,17.09-5.16,34.18-5.45,51.52-.15,8.67-.42,17.31-.1,26,.49,13.08,3.39,25.71,5.55,38.5a176.72,176.72,0,0,1,2.49,23.49c.48,14.67.56,29.39-1,44-1.31,12-2.88,24.05-4.64,36-1.51,10.22-2.53,20.59-3.45,30.94-1.21,13.7-.45,27.35-.77,41-.24,10.51,2,20.75,4,31" transform="translate(-13.39 -9.5)"/><path class="cls-1" d="M169.5,34.5Q168.26,44.75,167,55c-1,8-2.18,16-2.95,24-.87,9-1.78,18-2,27-.29,15-.65,30,1,45A156.85,156.85,0,0,0,174,194.51c8,19.4,10.13,39.69,8.55,60.49S175.85,296,173,316.49c-4.28,30.32-6.56,60.7-.78,91,3.11,16.26,5.37,32.55,5.17,49-.16,13.17-.28,26.36-2.1,39.53C174,505,173.09,514,172,523c-1.22,9.84-2.95,19.64-3.84,29.51-.48,5.31-.9,10.68-1,16-.27,13.67-.9,27.4,1.08,41,.48,3.28-.44,7.17,2.3,10" transform="translate(-13.39 -9.5)"/><path class="cls-1" d="M193,33.5c-1.17,10.82-1.19,21.72-2.88,32.52-1.55,9.91-1.79,20-3.19,30-2.85,20.26-3.24,40.62-2.91,61a164.54,164.54,0,0,0,12.09,60.46c5,12.27,7.47,24.9,8.46,38,1.64,21.93-2.8,43.18-6.59,64.51-2.7,15.24-4.88,30.53-6.12,46-.91,11.35-.74,22.67-.84,34-.12,12.73,2.34,25.09,4.78,37.54,1.73,8.83,3.23,17.84,3.21,27,0,11.5.33,23-.12,34.5-.36,9.2-1.66,18.36-2.67,27.52-1,8.68-2.52,17.27-3.3,26-1,11.2-3.09,22.31-3.78,33.52-.66,10.79-.14,21.66-.14,32.49" transform="translate(-13.39 -9.5)"/><path class="cls-1" d="M177.5,34.5c-.83,8-1.62,16-2.51,24-.77,6.84-1.67,13.66-2.49,20.5-.85,7.16-2.08,14.31-2.42,21.5-.93,19.84-1.51,39.63.69,59.52,1.79,16.08,6.38,31.11,12.19,46,7.69,19.69,8.18,40.3,6.46,61-1.76,21.23-7.36,41.88-10,63-2.36,18.79-3.88,37.61-3.28,56.51A214.18,214.18,0,0,0,181.38,425a160.36,160.36,0,0,1,2.78,22,194.64,194.64,0,0,1,.76,24c-.58,12-1,24.06-2.83,36-1.44,9.1-1.71,18.38-3.17,27.48a349.81,349.81,0,0,0-4.72,65c.17,6.29-.08,12.8,1.8,19" transform="translate(-13.39 -9.5)"/><path class="cls-1" d="M185,34.5c-.47,10-1.75,20-2.78,30-1,9.67-2.22,19.32-3.33,29-1.49,13-2,26-2.28,39-.24,10.16.43,20.34.92,30.5.94,19.81,8.11,38.07,14.5,56.49,5,14.49,5.49,29.35,5.11,44.51-.56,22.28-6.39,43.68-9.54,65.51a380.82,380.82,0,0,0-3.74,43c-.46,15.26-.32,30.42,2.16,45.5,1.4,8.51,3.27,17,4.42,25.51,2.3,17.1,2,34.31,1,51.49-.5,8.35-1.48,16.68-2.47,25-1,8.51-2.33,17-3.46,25.5-.88,6.66-1.47,13.37-2.56,20-1.69,10.3-.63,20.69-1.32,31-.49,7.29.2,14.66.37,22" transform="translate(-13.39 -9.5)"/><path class="cls-1" d="M39.5,22.5c.92,5.82,1.58,11.7,2.29,17.53C43.18,51.41,47.17,62,51.13,72.45a117.82,117.82,0,0,1,7.94,41.05c.13,16.55-1.89,32.76-4.87,49-3.91,21.29-7.36,42.67-8.44,64.45a274.43,274.43,0,0,0,5,67.56c3.47,17.53,3.16,35.51,2.41,53.46-.71,17.14-2.9,34.06-5.22,51-2.44,17.77-4,35.61-4.89,53.51-.53,10.69.72,21.34,1.43,32,1.14,17.12,8.16,32.48,14.58,48,4.15,10,5.19,20.48,5.87,31,.85,13.22-.41,26.41-2.09,39.48-1.24,9.71-2.29,19.5-4.81,29a34.39,34.39,0,0,0-.54,5.49" transform="translate(-13.39 -9.5)"/></g></g></svg>