<svg xmlns="http://www.w3.org/2000/svg" viewBox="0 0 248.3 790.95"><defs><style>.cls-1{fill:none;stroke:#000;stroke-linecap:round;stroke-linejoin:round;stroke-width:2px;}</style></defs><title>Recurso 4</title><g id="Capa_2" data-name="Capa 2"><g id="Capa_1-2" data-name="Capa 1"><path d="M211,786.2l4.57-1.63h-.08c9.62-1.81,19.25-3.56,28.86-5.43,6.16-1.2,12.28-2.58,18.82-4v3.93c-19.08,4.28-37.91,8.52-56.74,12.72-9.75,2.18-19.59,4-29.26,6.51a76.52,76.52,0,0,1-30.57,1.73c-42.21-6-84.52-11.35-126.8-17-1.66-.22-3.29-.66-4.94-1l0-1.8a24,24,0,0,1,5.09-.45c14,1.73,28.07,3.59,42.11,5.4,1.46.19,2.93.35,5.57.67,0-6.64.15-12.87,0-19.1-1.34-48.07,6.06-94.91,19.36-141a24,24,0,0,0,.12-11.54c-8-34.19-17.26-68.11-24.22-102.5-7.57-37.41-8.5-75.43-4.65-113.45.64-6.29,2.66-12.43,4-18.65a18.18,18.18,0,0,0,.08-3.47c.07-.32.16-.64,0-.2-.11-.41,0-.05.08.3-.59-.34-1.18-.68-1.78-1l0,0q1.92-9,3.84-17.89c.18,2.48.38,4.94.57,7.4l.1.29-.23-.17-.45-7.48c-.21-13,5-24.11,12.58-34.06s15.92-19.23,24-28.78c1.82-2.15,3.78-4.2,5.88-6.53-2.45-7.44-5-14.82-7.32-22.25C88.58,231.45,78.7,196.71,73,161c-6.51-41-5.63-82,1-122.9,1.13-7.06,2-14.17,2.92-21l-1.63-5.55,1.26-.86C81.62,14,86.81,17.22,91.78,20.73c26.45,18.67,50.51,39.77,67.93,67.53,17.06,27.18,25.13,56.5,20.12,88.59-2.08,13.3-5.39,26.4-8.14,39.6-8.6,41.24-4.62,81.88,6.76,121.94,9.09,32,19.29,63.72,28.62,95.68,12.09,41.4,20.13,83.51,20.8,126.79a426.22,426.22,0,0,1-18.61,132c-8.32,27.19-17.82,54-27,80.93-2.34,6.86.27,12.21,3.71,18l16.15-3.84-.14.13,9.12-2ZM83.11,392.66l0,.32,0-.21-1.42-.59-1-1.14-1.26-.92-.65.13.1-.67c-.87,1.15-2.46,2.27-2.49,3.44-.2,9.13-.11,18.28-.11,27.42a37.16,37.16,0,0,0,3.26-12.75c.2-6-.52-12.05-.86-18.06.28.19.56.38.88.56l1.28.75c.33.37.66.74,1,1.1C82.27,392.24,82.7,392.44,83.11,392.66Zm20.09-96.52-1.43.87-.47,1.65-.33.2.15-.53.23.31c.09-.54.19-1.09.31-1.64l1.65-1-.28-.09.26-.09Zm-11.37,313-.11-1.44H92s-.13.1-.11.11l.08,1.23.15.1ZM78.28,386.9v.3l-.15-.2.27.09c-.34-.4-.68-.8-1-1.18L76,384.76l-.2-.17a1.34,1.34,0,0,1,.27.07l1.44,1.21C77.77,386.22,78,386.57,78.28,386.9Zm81.91,401.8c0,.36.07.72,0,.34.2.35,0,.06-.13-.23l-.19-.37S160.21,788.68,160.19,788.7ZM134,59.15l-1.38-.93v-.37c-.26-.47-.06-.1.16.25l1.35.93.2.4ZM81.09,15.7l-.17.18.29-.08,2.12,1-.2.1.29.09Zm55,568.13,1.12.17c-3.09,8.22-4.51,16.47-1.79,25.19,1,3.16.78,6.69,1.13,10.09l-.12,4.48q-2.4-9.28-4.79-18.57c-6.23,9.86-1.61,19.75.3,29.79l4.51-11.27.09-4.5c5.68-11.61,5.36-23.31.52-35.08l-.4-3.79,1-2.13-.22-.1c-.28.76-.55,1.52-.82,2.33-.19,1.16-.38,2.32-.56,3.49l-.12.17ZM170.85,771c-.2.49-.4,1-.1.26.06.75,0,.19,0-.36.38-.7.77-1.39,1.16-2.08l.69-3.37c.36-.91.72-1.82,1.09-2.72,1.17-2.5,2.33-5,3.48-7.49l.22-3.86c.34-1,.69-2,1-3.06l3.17-3.58c.33-1,.65-2,1-3l.35-3.91q1.31-5.14,2.62-10.29c.48-.32,1.3-.54,1.41-.95q6.13-23.22,12.15-46.47c.25-.87.49-1.74.74-2.61l-.75-.09.12,2.79a29.42,29.42,0,0,0-2.18,4.67c-3.86,14.24-7.61,28.5-11.37,42.79L183,737.93l-.48,3.8c-.32,1-.65,2-1,3l-3.17,3.56c-.31,1.05-.62,2.1-.89,3.2-.09,1.28-.17,2.55-.25,3.83q-1.74,3.73-3.45,7.5c-.39.91-.77,1.83-1.13,2.78s-.45,2.2-.67,3.31ZM98.39,618.33v.92h0v-.9c-.33-.38-.65-.76,0,0C97.62,617.79,98,618.05,98.39,618.33Zm33.12-24c.65-.59,1.31-1.18,1.94-1.82,0-1,0-2-.08-3,.62-3.05,1.15-6.12,1.87-9.15,1-4.39-1.15-15.43-3.69-19-5.4,8.22-3,16.91-.52,25.55.29,1,1.55,1.72,2.34,2.6l.09,3.12c-.65.59-1.29,1.18-1.92,1.81v1.61l.31,0Zm47.11,135.91.93-2.85a13.89,13.89,0,0,0,2-3.1C185.05,713.59,189,703,191.65,692c2.59-10.56,3.9-21.44,5.77-32.18l-1.2-.26c-2.4,8.75-5,17.44-7.15,26.25-3.33,13.85-6.32,27.79-9.42,41.74-.36.91-.72,1.82-1.07,2.73v1.76h.12Zm-5.06,9.45c-.64.56-1.28,1.12-1.92,1.7,0,.22.07.44.07.42l0-.48c.6-.59,1.2-1.17,1.77-1.82.09-1.32.17-2.64.26-4,.55-1.05,1.1-2.1,1.62-3.19l.28-1.68h-.53c.12.61.23,1.21.35,1.82-.55,1.06-1.09,2.12-1.61,3.2Zm17.49-11.85c.36-1.23.73-2.46,1.08-3.7l.67-3.42,8.88-25.83-1.73-.54q-3.51,13.25-7,26.48c-.22,1.15-.44,2.29-.67,3.43s-.71,2.47-1.08,3.7l-.27.21C190.78,728.45,190.92,728.17,191.05,727.88ZM67.17,371.75l.13.57-.23-.48-.42-2-.62.29C66.41,370.64,66.8,371.19,67.17,371.75ZM212.75,651.46l1.12-3.57-.64-.13c-.18,1.26-.37,2.52-.54,3.78.06.22.12.43.11.38S212.78,651.71,212.75,651.46ZM139.52,380.27l-.4,4.7h.62c-.07-1.56-.14-3.13-.22-4.7l-1.08-6.74c-.74-7.75-1.11-15.57-2.32-23.25-1.16-7.32-3.19-14.5-4.84-21.73l-1.67.31c.48,5.24.6,10.55,1.52,15.71,1.43,8,3.34,15.89,5.18,23.79a36.18,36.18,0,0,0,2.14,5.15C138.81,375.77,139.16,378,139.52,380.27Zm4.15,383.36L147,752.05c.54-2.79,1.09-5.59,1.63-8.38a15.41,15.41,0,0,0,2-3.45c3.29-12,7.19-23.92,9.48-36.13,2.52-13.36,3.52-27,5.18-40.51l-1.73-.25c-8.51,26.14-7.58,54.08-14.78,80.47l-1.68,8.33q-1.68,5.79-3.34,11.62l-2.35,7.75,1.34.27Zm-9.95-502.3-.62-2.49c-.58-3.77-.89-7.61-1.81-11.29-6.36-25.64-9.28-51.71-10.17-78-1-30.3,2.6-60.19,7.88-89.94,1.18-6.69,2.28-13.4,3.4-20l-6.82-6.23c-15.71,70.25-14,139.05,5,208l2.62-2.6c.21.82.42,1.65.62,2.48-.54,1.78-1.09,3.56-1.86,6.09l1.23,2.87,1.54-.29C134.36,267.06,134,264.21,133.72,261.33ZM75.5,539.6c.1-.27.19-.55,0,.14.13-.72.08-.44,0-.16l3.63,15.84,1.36-.39Q78,547.34,75.5,539.6Zm51.64-257.8c0,.36.09.72,0,.32.26.33,0,.06-.16-.21-.75-3-1.49-6-2.28-9.17l-2.64,4.76c.67,1.87,1.37,3.84,2,5.53Zm-57.52,98c-3.19,2.44-5,13-2.88,18.22,1-6.31,2-12.27,2.89-18.24l-.25-3.21-.68.11Zm102-202.17q3.18-12,6.37-24.09l-1.72-.38q-2.3,12.29-4.55,24.58l-.72,3.35.8.08Zm-1.58,176.23.09.3-.21-.2q-1.64-9.85-3.28-19.72l-2.31.54Q167.22,344.29,170.08,353.84ZM73.39,341.48q-2.6,11.47-5.18,22.94l2.16.38q1.48-11.7,2.94-23.44l.48-3.53-.65,0ZM102.28,611.6,98.15,600l-1.78.42c1,5,2,9.92,3.28,16.16,1.35-2.53,2-3.8,2.69-5.08l-.09-.38S102.27,611.37,102.28,611.6ZM144.2,344.79c0,.3,0,.6,0,.28l-.12-.19c1-8.48-3.31-15.61-5-23.41l-2.25.63Q140.53,333.44,144.2,344.79Zm-3.62,27.63.39-2.53h-.65c.11.82.21,1.65.32,2.47L146,406.3l1.51-.28c-1.11-6.67-2.05-13.37-3.38-20C143.2,381.44,141.76,377,140.58,372.42Zm18.7-18.69c-.05.35-.09.7,0,.25.16.44.05.13-.07-.17q-2.48-12.74-5-25.47l-1.69.37A65.57,65.57,0,0,0,159.28,353.73Zm-52.85,246-4.9-12.21c-2.25,5.4-1.42,12.23,2,18.15l2.89-6V594.2c5.3-6.79.6-13.08-1.38-19.55a26.05,26.05,0,0,0-.82,9.89,88.23,88.23,0,0,0,2.2,9.67Zm9,9-5.25-14.91c-3.86,8,.36,14.67,1.81,22.37,1.41-3.05,2.44-5.26,3.46-7.48l.12-2.08h-.25ZM138,294.9q-1.92-6.51-3.85-13c-.43-1.94-.77-3.9-1.29-5.82-3.46-12.65-7.48-25.19-10.29-38-2.92-13.29-5.07-26.78-6.87-40.28-2.9-21.8-5-43.76-2.79-65.71,2.48-25,6-49.87,9.2-74.79,1-7.51.36-8.92-6.86-12.57-8.35,37-12.07,74.3-10,112s9.18,74.43,19.62,110.77l4.74-2.68c-.21,4.24-.52,7.45-.48,10.66s.42,6.37.65,9.56l1.35-.07c.4-1.55.79-3.09,1.2-4.7l1.91,1.52c-1.18,6.9-2.48,13.82,2.21,20.29.59-2.63,1.12-5,1.64-7.32.16,4.4-.09,8.88.59,13.2.9,5.69,2.54,11.27,3.86,16.9C144.59,314.12,142.15,304.34,138,294.9Zm53.78,143.36.12-2-.7.07c.23.63.45,1.26.67,1.89q3.53,18.7,7.06,37.4l1.69-.3c-.18-2.25,0-4.59-.6-6.75C197.34,458.42,194.5,448.36,191.74,438.26Zm1.55-9.57v1.87l.58-.12c-.22-.55-.44-1.11-.67-1.66q-7.94-29.62-15.86-59.26l-1.68.46c3.86,14.08,7.59,28.19,11.65,42.2C188.93,417.79,191.29,423.19,193.29,428.69ZM147.86,542.45c0-.23-.06-.46,0-.24.13-.26,0-.05-.08.15a38.7,38.7,0,0,0,1.71,28.72C154.15,561.27,152.89,551.75,147.86,542.45Zm-21,68.36c5.34-10.28,2.76-20.4-.69-31.6-2,6.08-4.42,10.85-2.54,16.68,1.57,4.87,2.28,10,3.37,15.05-.29.4-.58.79-.17.22C126.78,611.86,126.83,611.33,126.87,610.81Zm-6.3,18.47c1.75-4.61,3.5-9.22,4.94-13-1.55-6.67-2.86-12.32-4.45-19.21-3,7.3-4.66,13.1-2.49,19.66,1.31,4,1.36,8.35,2,12.56v1.61h.14Zm19.76-211.8v9.36l.45,0-.45-9.28c-1.44-12.05-2.6-24.14-4.43-36.13-1.18-7.81-3.33-15.47-5-23.2l.06-.22,0,.14c2.45,18.93,4.89,37.86,7.43,56.78C138.53,415.83,139.68,416.61,140.33,417.48Zm37.19,291c.54-.53,1.39-1,1.55-1.59,3.33-12.64,6.89-25.24,9.71-38,1.46-6.62,1.59-13.53,2.32-20.31a127.26,127.26,0,0,0-7.88,24.62c-2.33,11.7-3.78,23.57-5.58,35.4l-.28,2.51H178ZM140.7,394.34v-4.66l-.7.05c.26,1.51.51,3,.77,4.53.63,11.44.9,22.91,2,34.3.74,7.62,2.66,15.13,4,22.68l1.29-.1a11,11,0,0,0,.48-2.23c.25-10.76.79-21.51-2.29-32.08C144.13,409.42,142.53,401.85,140.7,394.34ZM94.77,599.69l3.21-9.8q1.72-4.6,3.43-9.22v-1.73h0v1.77a21.07,21.07,0,0,1-2-4q-11-41.7-21.86-83.41c-.66-2.55-1.2-5.13-1.8-7.7-.46,7.12-.73,14.27.92,20.94,5.5,22.26,11.73,44.34,17.58,66.51,1.48,5.59,2.56,11.28,3.82,16.93-3.42,1.24-2.48-2-2.8-3.15-4.23-15.24-8.23-30.54-12.34-45.81-1.29-4.77-2.73-9.5-4.1-14.26a28.23,28.23,0,0,0,.61,9c4.81,19.55,9.75,39.07,14.61,58.61.43,1.74.53,3.56.79,5.37l-1.74,4.34.93.25C94.29,602.83,94.53,601.26,94.77,599.69Zm82.65,94.94a12.29,12.29,0,0,0-1.67,2.78q-9.28,31.86-18.42,63.77c-1.08,3.8-1.72,7.73-2.56,11.59,5.54-7.9,17.33-46.22,22.67-78.21-.05-.27-.11-.53-.16-.8ZM148.34,352.71l-.23.16.35-.1c.35,4.91.31,9.9,1.15,14.73,2.66,15.37,5.49,30.71,8.6,46,1.49,7.36,3.74,14.56,5.65,21.84C162.65,407,155.86,379.76,148.34,352.71ZM107.92,37l.48-2.08-1-.23L107,36.08a22.48,22.48,0,0,0-2,4.42,452.62,452.62,0,0,0-9,77.83c-1.38,45.55,6.7,89.81,18.4,133.56,1.83,6.82,4,13.56,6,20.33l1.93-.14c.15-1.79.77-3.69.37-5.34-4.27-17.76-9.37-35.34-12.94-53.23-7.91-39.6-10.19-79.58-5-119.75,2.24-17.32,5.16-34.55,7.88-52.55Zm17.42,455.66a11.67,11.67,0,0,1-1.65-3c-6.27-28.92-13.82-57.65-18.35-86.84-5.48-35.27-2.81-70.74,3.21-105.9a22.83,22.83,0,0,0,0-3.88l-1.58-.34c-.87,1.84-2.16,3.59-2.55,5.53-6.4,31.81-9.13,63.9-7,96.33,2,30.37,8.32,60,15.85,89.36,2.1,8.17,4.39,16.28,6.59,24.42l.92-.09c1.51-5.23,3-10.46,4.52-15.73l.27-2.26-.27,0ZM88.29,23c-20.52,89.15-5.73,174.47,24.25,258.91l2.71-3.26C102.38,237.89,91.67,196.9,87,154.56c-4.69-42.76.07-85,8-126.91Zm44.1,412.44-1,.2c-.39-1.2-.85-2.39-1.15-3.61a364.61,364.61,0,0,1-10.57-98c.13-5-1.76-10-2.71-15.08l-1.43.29c-5.87,48.85.09,96.57,13.75,144.27,7.67-21.11,2.75-101.28-7.22-120.21-.06,1.12-.14,1.94-.14,2.76a344.69,344.69,0,0,0,9.42,80.68A74,74,0,0,1,132.39,435.44ZM101.25,301.1l-1.26-.63c-1,1.79-2.45,3.49-2.84,5.4-6.78,33.64-9.61,67.58-6.77,101.85,3.22,39,12.09,76.92,23.28,114.34.43,1.46,1,2.89,1.84,5.4,2.56-7.18,4-12.82,1.91-19.48-3.94-12.69-7-25.68-10.11-38.61-11.92-49-16.84-98.42-9.19-148.62C99.11,314.19,100.21,307.65,101.25,301.1Zm38.08-49.47c-14.67-60.7-10.12-121.28,2.72-181.29l-7.19-7.83c-14.76,65-15.3,129,.2,193.67ZM97.47,29.6C88.14,73.15,85,116.3,90.14,159.78c4.69,39.63,14.58,78.14,27.88,115.8C106.57,236.4,97.76,196.68,94.47,156,91.15,114.75,96,74,103.6,34ZM151,81.77l-6.79-8.86c-13,59-15.68,117.16-3.06,175.91a2.69,2.69,0,0,0,1.49-1.52c.5-.85,1.06-1.67,1.72-2.7C135,189.92,139,135.64,151,81.77ZM112.44,301.83l-1.93.08c-12,62.48-3.46,123.26,15.55,183.29,1.1-5.3,2.26-10.73,1.71-16-.65-6.06-2.78-12-4.3-17.93-11.34-44.44-15.45-89.41-10.3-135.13C113.7,311.48,112.72,306.61,112.44,301.83ZM80.48,18c-.44.53-.79.75-.84,1-1.06,5.72-2.17,11.43-3.1,17.18-6.77,42.06-7.76,84.22-.79,126.33,6.81,41.15,18.55,81,32.09,120.43a16.59,16.59,0,0,0,1.28,2.38,8.45,8.45,0,0,0-.19-5.27c-5.76-19.62-12-39.13-17.22-58.9-8-30.44-14-61.3-15.25-92.88A428.22,428.22,0,0,1,80.76,51c1.44-10,2.94-20,4.43-30.2Zm30,526.38c2.67-6.68,3.84-12,1.89-18.3A606,606,0,0,1,88.49,412.8c-.57-5.24-.92-10.5-1.38-15.75l-1.21-.42c-.78,1-2.05,1.89-2.26,3a34.2,34.2,0,0,0-.86,8.87c.87,11.13,1.81,22.26,3.16,33.33C90.14,476.54,99.8,510,110.46,544.33Zm-31,243.61,1.13-.62c.73-7.85,1.68-15.67,2.14-23.53A527.78,527.78,0,0,1,97.82,666.2a28.83,28.83,0,0,0-2.61-20.26,8.88,8.88,0,0,0-.66,1.36c-12,45-18.24,90.7-16.52,137.35C78.08,785.76,79,786.84,79.48,787.94Zm-6.11-1.36c.41-7.71,1-15.27,1.19-22.83A485,485,0,0,1,92.27,644.46c1.78-6.43.32-11.76-1.8-17.87C76.8,656.57,63.74,778.54,73.37,786.58Zm7.39-367.12c-3.86,11.37-2.71,22.87-1.25,34.46,3.84,30.5,12.22,59.93,20.74,89.33,1.66,5.74,3.28,11.48,4.91,17.22l1.73,0c.47-4.63,2.42-9.7,1.2-13.83C95.76,504.93,84.69,463,80.76,419.46ZM102,668.87H99.69c-3.08,16.63-7,33.17-9,49.94-2.6,21.93-3.7,44.05-5.3,66.1-.09,1.28,1.17,2.66,2.23,4.91.93-4.63,1.76-7.54,2.07-10.5a845.27,845.27,0,0,1,13.82-88.2C105,684.12,102.6,676.31,102,668.87Zm44.84-428c-5.24-50.29.13-99.82,11-148.47-1.47-2.29-2.52-4-3.63-5.63a9.89,9.89,0,0,0-1.51-1.29C141.51,137.18,138.11,188.75,146.85,240.84Zm-41,456.67c-6.87,30.08-12,60.38-12.26,91.86l4,.3c.51-3.32.87-5.88,1.29-8.43,2.3-14,4.14-28,7.06-41.82C108.9,725.39,110.09,711.54,105.81,697.51ZM160.49,96.88c-11,46.13-15.9,92.19-10.77,138.91l2.6.24c-3.4-45,1.78-89.07,11.9-132.38C162.82,101.12,161.66,99,160.49,96.88Zm-56.2,470.43C93.8,529.18,81.92,491.72,76,452.7c-.16,10.18-.39,20.48,1.92,30.16,7,29.26,15,58.29,22.55,87.4.26,1,.65,1.92,1.33,3.91C102.87,571.24,103.53,569.41,104.29,567.31ZM168,109.43l-2.44,0c-8.67,39.18-13.79,78.67-10.24,119a9.46,9.46,0,0,0,1.44-5.13c-.64-34.5,4.35-68.34,11.49-102C169.07,117.5,168.15,113.38,168,109.43ZM146.91,777l1.62.16c5.06-16.79,10.83-33.41,15-50.42,4.2-17.19,6.79-34.78,10.08-52.19l-2.17-.46Q159.17,725.56,146.91,777Zm10.42-330.65c-.88-36.64-9.59-71.85-18.58-107a43.57,43.57,0,0,0,.77,11.26c3.59,21.15,7.81,42.21,10.56,63.46C151.52,425.16,153.57,435.9,157.33,446.37Zm-2.61-94.68c2.21,29.68,15.1,80.06,19.35,86.07C171.16,408,163.33,379.71,154.72,351.69Zm-69,41c2.29-27.65,4.62-55.72,7-83.79-7.36,26-9.56,52.73-10.6,79.59Zm75-172.66c.26-4.59.48-9.19.79-13.78,1.7-24.61,6.05-48.8,11.32-72.86.75-3.42-.11-7.19-.23-10.8C165.13,137.93,156.88,207.58,160.71,220ZM102.36,790.41h6.06c1-18.57,2.08-36.67,3.11-54.78l-2-.2c-1.45,8.91-3.11,17.79-4.28,26.74C104.05,771.28,103.35,780.45,102.36,790.41ZM146.9,682.73c-4.51,9.87-13.28,67.43-11.1,73.15C142.16,731.93,145.26,708.08,146.9,682.73ZM86.52,317.4l-1.25-.22c-5.74,20.59-7.77,41.8-9.47,63.08l3.26,4.16Zm61.4,388.8c6.68-17.79,9.92-36,8.33-55.34C147.27,668.81,150.5,688,147.92,706.2Zm26.44-76.5c-8.31,16.46-6.3,33.84-8.17,51.87C173.17,664.34,176.38,647.74,174.36,629.7Zm-9.52-266.59-2.51.47q8.86,36,17.74,72.06l2.56-.63Zm-10.92,253.4c-7.06,12.81-4.95,26-3.73,39.85C157,643.23,157,630.18,153.92,616.51Zm20.15-111.37c4.19-14.5-.29-27.61-4.91-41.52C167.31,478.32,167.49,492,174.07,505.14ZM132.73,720.6c6.77-17.53,6.66-35.21,5.74-53-1.48,3.71-3.22,7.45-3.5,11.3C134,692.58,133.46,706.31,132.73,720.6Zm32.41-114.7c5.57-12.13,5.9-24.23,1.3-36.19C161.62,579.16,161.1,591.25,165.14,605.9ZM136.69,768.25l1.73.4a267.69,267.69,0,0,0,13.5-65Q144.32,736,136.69,768.25ZM168,636.55c5.86-12.67,7-25.16,3.47-38.12C165.36,610.56,165.7,623.18,168,636.55Zm-20.23-12.41c5.17-12.31,6.07-24.14,1.53-36.07C142.44,599.57,145,611.54,147.77,624.14Zm12.14-81.71c-4.75,11.86-4.11,23.29.34,34.58C165.65,565.55,165.29,554.12,159.91,542.43Zm-8.27-103.2c-.94,14.78-2.43,28.32,4.25,41.23C159,466.65,157.34,453.42,151.64,439.23Zm21.74,253c7-16.13,9.58-33.1,9.17-51.63C174.67,657.62,176.7,675.36,173.38,692.25Zm2.16-217.78c2.7-16.21-3.38-30.55-7.93-45.16A108.67,108.67,0,0,0,175.54,474.47Zm-7.85,21.26c-3.35,12.44-3.09,23.94,2.69,34.8C175.36,518.78,172.45,507.55,167.69,495.73Zm-2.14-20c1.75-16.33-.32-32.37-5.66-42.62C160.42,447.74,158.48,462,165.55,475.71Zm19.82,175.8c5.48-13.2,8.58-26.75,5.4-41.54C185.1,623.62,185.32,637.55,185.37,651.51Zm-38.87-9.82c-7.9,14.27-3.71,28.28-4.45,41.88C148.83,670.54,147.25,656.73,146.5,641.69Zm38.89-26.19c5-13,5.85-25.59,2.1-38.62C183.15,586.34,182.45,598.69,185.39,615.5Zm-42.33-20.34c5.25-11.13,5.54-21.87.63-32.52C137.69,573.12,139.25,583.84,143.06,595.16Zm20.85,30.52c-7.17,13-3.8,26.5-4.94,40.41C165.63,652.8,166.07,639.69,163.91,625.68ZM175.25,522.6c-3.82,11.8-3.47,19.43,1.46,34.14C181.2,545.1,180.72,534,175.25,522.6Zm6.63,61.5c4.15-12.12,5.43-23.64-.08-35.75C177.85,560.54,178.18,572.08,181.88,584.1Zm-40.31-77.25c3.81-11.29,4.39-22.28-1.4-33.35C137.56,484.84,135,495.9,141.57,506.85ZM148,528.28c5-10.57,4.14-20.79-1.17-31.19C143.71,507.84,141.62,518.19,148,528.28Zm-10.39,41.18c5.09-10.27,5.12-20.31-.08-30.26C132.3,549.2,133,559.25,137.59,569.46Zm54.64,16.37c4.7-12.7,3.78-24.9-.3-37.59C188.14,561.12,188.81,573.36,192.23,585.83Zm-32.13,8.71c-4.57,10.22-4.9,25.11-1.1,33.84C164.59,617.56,162.91,606.35,160.1,594.54Zm17.12,49.28c6.74-13.46,5.91-25.93,3.86-39C174.6,617.27,178,630,177.22,643.82Zm-34.35-32.56c-7.06,11.55-3.2,22.6-2.25,34.15C147.9,634.15,144.67,623.06,142.87,611.26Zm10.56-91.5c-4.55,10.72-4.26,21,.91,31.26C158.07,540.51,159.45,530.24,153.43,519.76ZM130.29,653c-4.5,9.69-5.61,29.62-2.75,40.19C133.36,680.56,131.3,667.31,130.29,653Zm29.86-182.49C158,482.58,157,494,162.92,505A47.16,47.16,0,0,0,160.15,470.51Zm2.3-258.95,1.85.31c.18-.24.48-.46.52-.72,3.67-22,7.36-43.91,10.92-65.88.4-2.49,0-5.1,0-7.66l-2.1-.19Q168.07,174.49,162.45,211.56Zm14,219c.44,17.85,4.39,38.36,8.38,44.57C186,459.85,181.81,445.51,176.42,430.54Zm5,100.75c2.92-14.23,1.64-26.66-3.1-33.44A48.36,48.36,0,0,0,181.45,531.29Zm-17.73-10.16c-4.78,10.8-1,20.74,2.24,31.3C170.19,541.46,169.37,531.13,163.72,521.13Zm-18-40.89c3.05-12.33,1.5-27.44-3.32-34.68C140.64,457.17,140.17,468.81,145.76,480.24Zm-12.06-30.4c-.85,12.26-5,23.41,1.65,35C137.25,473,140.12,461.83,133.7,449.84ZM171,546.77c-4.88,11.53-2.28,21.9.79,32.78C177.05,568.27,174.69,557.83,171,546.77Zm28.67,68.61-1.83-.18-5.58,41.94,1.33.17C198.81,643.79,201.31,629.88,199.71,615.38ZM187.5,556.45c3-11,3.75-21.82-1.81-32.93C182.47,537,183.05,546.5,187.5,556.45ZM138.8,454.12c2.35-13.46,1.49-26.17-3.46-38.53C135.66,428.23,132.58,441.13,138.8,454.12Zm57.83,124.65c-2.32,12.43-4.8,25.31-1.67,38.59A61.34,61.34,0,0,0,196.63,578.77Zm-42-12c-4.41,9.88-4.26,20.55.26,30.85C160.71,587.41,157.5,577.25,154.65,566.8Zm-29.71,89c6.4-10.93,3.55-21.36,1.36-32.41C119.72,634.22,123.83,644.67,124.94,655.75ZM176,607.88c4.93-11,4.25-21.46,1.09-32.6C171.84,586.28,173.54,596.76,176,607.88Zm-41.7,58.78c6.16-10.9,3.37-22.17,2.15-34.34C129.81,644.1,134,655.48,134.31,666.66Zm16-193.14c-3.7,11-2.31,21.07,2.44,31.31C156.92,493.91,154.44,483.9,150.33,473.52Zm-18.78,72.63c4.93-10.13,4.84-19.94-.33-26.88C127.19,528.32,126.61,537.34,131.55,546.15ZM171.3,367l-1.82.48,16.14,61.39,2-.53Q179.47,397.63,171.3,367Zm12.95,137.92c2.48-12.79-.28-23.75-4.9-35C177.34,482.13,179.65,493.17,184.25,504.88Zm-25.12,22.39c4.56-10.15,2.31-19.21-2-29.25-1.14,5.75-2.07,10.42-2.84,14.27Zm33.94-22.13c2-12.31-.45-23.08-4.88-34.56C187.05,482.93,188.22,493.92,193.07,505.14Zm4.14,53.36c3.21-11.26,2.14-21.37-1.82-31.73C190.67,537.78,194.6,547.68,197.21,558.5Zm-53.87-11.23c5.25-9.28,2.56-17.79-1.36-26.57C136.87,530.19,140.14,538.66,143.34,547.27Zm-17,18.13c4.41-10.91,4.18-18.45-.52-25.15C121.23,548.42,122.45,556.62,126.34,565.4Zm-10.77,10.37c-3.89,10.23-3.5,19.43,1,26.9A32.78,32.78,0,0,0,115.57,575.77Zm10.36-75.45-4,15c1.15,3.7,2.24,7.23,3.6,11.58C129.33,517.68,131.37,509.38,125.93,500.32Zm70.75.52c-1.85,11.45-.43,21.71,3.59,32.28C202.63,520.78,201.83,513.44,196.68,500.84Zm-4.39-28,1.63-.34q-4.09-19.67-8.2-39.33l-1.45.3C185.69,446.82,186.73,460.29,192.29,472.81ZM191,530.37c3.12-10.74,1.29-20.18-2.76-29.82C185.22,510.86,187.44,520.26,191,530.37Zm-54-5.13c4.74-8.71,2.45-16.69-1.06-25C131.64,509,133,517,137.05,525.24Zm70.68,65.23,1.43,0c3.05-11.25,2.85-27.25-1.43-33.08Zm-87-32.68c-3.69,11.05-3.26,19.2.77,24.67C126.13,574.52,124.27,566.56,120.7,557.79Zm79.37-2.9v31.92h1.37C205,576.08,204.08,565.45,200.07,554.89Zm5.51,32.64-2.06,0v33C207.36,610.9,206.84,599.24,205.58,587.53Zm-125.53-262c-.89,1.46-1.42,2-1.51,2.53-2.31,14.26-4.61,28.52-6.75,42.8-.2,1.3.67,2.77,1,4.16l.7-.22C75.66,358.73,77.78,342.66,80.05,325.53ZM131.21,505c3.67-8.65,2.86-16.78-.87-24.77C126.56,489.21,126.77,496.3,131.21,505Zm69.1.94,1.4-.25c1.85-11.46-2.06-21.93-5.23-32.52l-1.84.32Zm5.23,54.27c2-10.67,2.57-20.37-1.16-30.08C200.82,540.09,202.64,549.71,205.54,560.16Zm-84.89-15.9c4.09-7.47,4.5-14.85,0-22.44C116.94,529.39,116.38,536.76,120.65,544.26Zm-10.21,35.17c4.49-8.3,4.44-15.94-.15-22.27C106.46,568.16,106.47,569.65,110.44,579.43Zm5.16-17.87c4.41-8.43,4.3-15.2-.13-21.31C111.3,547.14,112.12,554.23,115.6,561.56Zm83.86,99c5.78-11.09,6.71-23,7-35l-1.49-.24ZM72.09,449.16H73.8V415.8l-1.71,0Zm136.34,176.3c4.78-9.8,6.15-23.26,3-32.86Q210,609,208.43,625.46Zm-87.65,45c3.66-9.14.24-18-.58-27C115.92,652.6,120.73,661.52,120.78,670.51Zm8.7,54.16,2-28C125.79,710,125.35,716.3,129.48,724.67ZM70.59,447.82l-2.26.15q1.14,16.66,2.26,33.33l2.32-.16Q71.76,464.48,70.59,447.82Zm79.81-95.05,2.09-.28q-2.36-14-4.72-27.94l-2.67.48Q147.74,338.91,150.4,352.77ZM116.88,639.7c4.1-8-.24-15.27-1.43-22.84C111.17,624.77,116.16,632.1,116.88,639.7ZM70,408.29l1.83.17L73.61,383l-1.69-.13C69,391.16,70.21,399.79,70,408.29Zm41.45,221.86c-3.22,7.93.59,15.14,2.09,22.59C115.88,644.93,112.73,637.61,111.41,630.15ZM72.75,518.9l2.08-.38q-2.25-15.48-4.49-31l-1.71.24Q70.7,503.34,72.75,518.9ZM212,558.39l2.26-.17q-.93-12-1.85-24l-2.3.18ZM123.85,705.57V677.38C120.2,686.8,121.77,696.19,123.85,705.57Zm82.71-175.8,1.26,0c1.71-8.25.6-17.37-3.63-21.94Zm-97.82,97.34c3.08-7.61-1.23-13.65-1.89-21.07C104.15,612.4,104.87,619.51,108.74,627.11Zm17.92-299.5,1.93-.22-3.06-19.5C121.36,315.09,125.19,321.19,126.66,327.61Zm-9.85,355.22,1.72-.14-2-24.06-1.43.11C113.4,666.94,115.88,674.82,116.81,682.83Zm88.76-202.24-2.25.22,3.63,23,1.85-.27Q207.18,492.09,205.57,480.59ZM67.34,413.41l-1.17.07v26h1.17Zm146.24,117.9,1.95-.39-2.76-21.06-2.07.27Zm-.87,102.85-1.78-.48q-2.9,14.25-5.8,28.49l1.5.31Q209.66,648.32,212.71,634.16Zm3.78-70.62-1.3-.14v25h1.3ZM127,349.53l1.74-.41q-2.43-11.47-4.88-22.93l-2.07.45Q124.37,338.09,127,349.53Zm26.47-41.27-2.29.55q2.25,9.48,4.49,19l1.91-.43Zm7.95,26-2.21.31,5.61,23.16,1.46-.33Zm-21.34-79.43c-1.84,6-4.44,12.08.82,18Q140.46,263.84,140.05,254.84ZM120.54,293l-2.38.33,1.89,13.5,2.33-.33Zm-17,327-1.6.24c-.88,5.73,1.92,10.93,2.77,16.41l1.87-.29Q105.1,628.14,103.57,620Zm31.35-287.33,1.59-.43-4.71-17.75-1.79.48Q132.47,323.79,134.92,332.64Zm10.15-59.44,2.36-.15q-.44-6.94-.88-13.89l-2.22.14Zm65.86,209.94-1.78.19q1.86,9.48,3.71,18.95l1.31-.24ZM143.81,274.92l-2.45.33L143.43,289l2.2-.33Q144.73,281.83,143.81,274.92Zm-79,198,1.46.16q-.59-10.24-1.16-20.5l-1.52.09Q64.22,462.81,64.82,472.93Zm68.09-171.49-2,.52,3.78,13.74,1.85-.46Zm74.7,163,1.2-.24-5.07-22.65-1.15.26Q205.09,453.13,207.61,464.45Zm10.89,76.08-1.81.12,1.38,18.68,1.48-.1Zm-17.43-92.24-1.37.29q2,10,4.1,20.05l1.34-.29Q203.12,458.32,201.07,448.29ZM154.63,305.78l1.81-.31-2.37-13.72-2,.36Q153.34,299,154.63,305.78Zm-6.25-1,2-.34-2.07-12.58-2,.33Zm-6.66-14.87-2.32.39q1.74,6.36,3.46,12.7l1.79-.44Q143.18,296.25,141.72,289.93Zm6.87,31.94,1.74-.39q-1.5-6.69-3-13.38l-1.81.41Q147.06,315.18,148.59,321.87Zm-39.2,336.6,1.43-.38q-1.29-7.53-2.59-15.06l-2,.39Q107.82,650.93,109.39,658.47ZM137,273.8l-2,.27q.88,5.6,1.75,11.19l2.11-.3Zm81.33,330.92-1.59-.16-1.65,17.09,1,.12Q217.23,613.25,218.35,604.72Zm-90.08-307.9,2-.34L128.34,286l-1.9.32Zm20.81-9,2.2-.2q-.59-5.7-1.19-11.4l-1.71.14Zm11.59,37.92,1.5-.29q-1.29-6.92-2.57-13.83l-1.68.32Q159.3,318.82,160.67,325.72ZM117.13,282.9c-5.3,3.79-1.58,6.2-1.64,8.86l1.64-.08Zm1,24.49-1.79.35q1.45,5.65,2.9,11.32l1.61-.36Q119.48,313,118.12,307.39Zm8.59,422.94-1.81.17,1,10.46,1.66-.15C127.28,737.32,127,733.82,126.71,730.33ZM220.2,585.12h.88V574.05h-.88Zm-94.07-287.6-1.47.43,3,10.21,1.48-.43Q127.62,302.62,126.13,297.52Zm9,432.36-1-.43-2.24,11.27,1.25.22ZM154,251.49h-1v8.91h1Zm-39.89,50.27,1.54-.41q-1.26-4.53-2.51-9.05l-1.54.41C112.39,295.73,113.23,298.74,114.06,301.76ZM124.49,748.5l-1.52.19.51,6.69,1.45-.15C124.78,753,124.64,750.74,124.49,748.5Zm32.33-512.85-.89,0v8.81l.89,0ZM118.56,706.84l1.21-.29c-.49-2.4-1-4.81-1.46-7.21l-1.27.3C117.55,702,118.05,704.44,118.56,706.84Zm37.4-429,1.36-.17c-.4-3.09-.81-6.18-1.21-9.27l-1.36.17C155.15,271.69,155.56,274.78,156,277.87Zm-9.45,510.22-1.58.5q1.23,3,2.48,6l1-.37C147.78,792.2,147.15,790.15,146.51,788.09ZM67.08,507.41l.93-.12q-.62-4.69-1.25-9.39l-.92.11ZM158.4,254.56l-1.51.09c.29,2.44.59,4.88.88,7.31l1.23-.13Zm-5.09,538.71,1.3-.63-2.1-4.76-1.34.65Q152.24,790.9,153.31,793.27Zm65.62-264.93.91-.19-1.5-7.93-1.18.25ZM122.3,292l1.55-.22c-.7-2.48-1.41-5-2.11-7.43l-1.23.3Zm9,476.37,1.29.09q.21-3.19.4-6.39l-1.05-.08Q131.56,765.18,131.25,768.36Zm17-520.34-1.25.21c.4,2.61.81,5.23,1.22,7.84l1.14-.19Zm67.59,241.57-.85.14c.37,2.47.73,4.93,1.1,7.4l1-.17ZM112.67,683.4l1.11-.25q-.81-3.39-1.6-6.8l-1,.22Q111.93,680,112.67,683.4Zm42.24,97.22,1.6-.18q-.45-2.62-.88-5.23l-1.27.14C154.55,777.11,154.73,778.86,154.91,780.62Zm-26.19-24.68,1.34.15c.32-2.08.65-4.16,1-6.24l-1.12-.19C129.51,751.76,129.12,753.85,128.72,755.94Zm-.9,31.09-.77.09.32,4.94,1.34-.18C128.41,790.26,128.11,788.65,127.82,787Zm-5.92-20.3-.86-.15c-.27,1.54-.55,3.08-.83,4.62l.81.14ZM62.71,420.66l-.59.15v6.12l.59,0Zm79.15-163.51,1,.14c.3-1.52.61-3.05.91-4.57l-1.31-.2Zm2.65,527.56c.59-.12,1.12-.21,1.12-.23-.13-1.16-.31-2.32-.49-3.47l-.89.11C144.34,782.3,144.42,783.49,144.51,784.71Zm79.89-206,.2.18v-4.44h-.2ZM151.3,267.24l-.84.17c.31,1.3.62,2.61.92,3.91l.67-.15Zm12.36,37.66-.77.5c.4,1.12.81,2.25,1.22,3.37l.74-.27Zm-4-17.58-1,.2c.18,1.15.36,2.3.55,3.44l.83-.13Zm-9.28-42.83,1.23.33c.13-1.11.27-2.22.4-3.33l-.74-.15C151,242.39,150.67,243.44,150.38,244.49ZM221.66,564h-.31c0,.6,0,1.19,0,1.78,0,0,.13.09.2.13Zm-61.52-319.7.42-.08v-2.63h-.42ZM118.25,723.77l.61-.07-.29-2.49-.63.07Zm45.36-498.1-.71.15.33,1.65.46-.1ZM63.21,391.49l.67-.19-.26-1.74-.41.06ZM121,738.8l.75.24v-2.19l-.45-.05Zm5.19,31,.56,0V768l-.38,0Zm25.17,14.66.83.07c-.1-.48-.2-1-.58-2.77C151.4,783.54,151.36,784,151.32,784.42Zm-5.88-536c.11.6.06.34,0,0C145.4,248.75,145.36,249,145.44,248.42ZM134.32,791.83h.31v-1.64h-.31Zm67-241.9c.13-.82.17-1.1,0,0Zm-71.86-82.35c-.05-.56,0-.3,0,0C129.56,467.29,129.62,467,129.49,467.58Zm57.93,102.68.15-.41-.14-.07Zm-85.06,74.43h.44l-.09-1.49h-.35Zm37.31,145.75-.45.1.19,1.21.36-.07Zm-75-408.69.72-.24-.2-.4Zm9.94,8.36c-.09.07-.26.18-.25.22a2.61,2.61,0,0,0,.26.53C74.57,390.61,74.57,390.36,74.56,390.11Zm91.92-140.82-.16.3.23,0Zm-8.09,384.14.08.35.12-.28ZM81.57,397.91c-.08.45-.12.69,0,0C81.62,398.62,81.6,398.37,81.57,397.91Zm-19-2.66-.17.32.23.05Zm1.83-9.44c.11-.09.29-.19.28-.22a3.84,3.84,0,0,0-.28-.53Zm20.1,207.12v0ZM62.37,370.51l.21.17v-.34Zm86.18,46.75-.14.27.17.07Zm12-143.21h-.28v1.15h.37ZM153.5,515.82c-.07.45-.11.73,0,0C153.61,516.57,153.57,516.28,153.5,515.82Zm-66.85,85v-.45l-.33.39Zm.69,2.91Zm-3.79-14.92-.18.28.23.07Zm2.07,8.3-.12-.3-.1.3Zm4.94,7.82-.17.24.22.07Zm-2.24,3.25.33,0-.14-.45Zm7.22,1.74-.2.29.27.07Zm.94,4.38.2-.37-.3-.06ZM111.71,619l-.17-.41-.15.42Zm-11.22,9.38c0-.21.05-.41.07-.62C100.54,628,100.51,628.21,100.49,628.42Zm1.17,2.64-.32,0,.12.43Zm1,4-.12-.31-.1.31Zm98.76,55.86.14.36.13-.36Zm-25,36a1.56,1.56,0,0,0-.09.34s.15.08.24.11a1,1,0,0,0,.08-.33S176.5,726.94,176.42,726.9Zm-28.87-99.16-.21.35.29.06ZM161.62,779l-.12-.3-.1.3Zm-2.92,19.7-.32,0,.14.37ZM126.79,272.54l-.3-.19,0,.31Z" transform="translate(-14.86 -10.68)"/><path d="M35.08,779.85H29.26l-.08-1.35,5.79-.38Z" transform="translate(-14.86 -10.68)"/><path d="M251.17,775.8h-5.52l0-1.08h5.47Z" transform="translate(-14.86 -10.68)"/><path d="M60.61,375.34l.08,1.66h-.1v-1.64Z" transform="translate(-14.86 -10.68)"/><path d="M202.15,787.08l2.37-1.49h-.07L202,787Z" transform="translate(-14.86 -10.68)"/><path d="M202.12,787.94l-1.67-.45,1.7-.41L202,787c0,.37,0,.74,0,1.11Z" transform="translate(-14.86 -10.68)"/><polygon points="179.74 777.89 179.44 777.8 179.69 777.66 179.74 777.89"/><path d="M215.57,784.57l-.14,0c-.49,0-.23,0,0,0Z" transform="translate(-14.86 -10.68)"/><path d="M204.52,785.59l.79.16-.85-.16Z" transform="translate(-14.86 -10.68)"/><path d="M209.89,784.92l-.11.09Z" transform="translate(-14.86 -10.68)"/><path d="M209.78,785,211,786.2l.1-.1-1.21-1.18Z" transform="translate(-14.86 -10.68)"/><path d="M106.92,35.92l1.16,1.16Z" transform="translate(-14.86 -10.68)"/><path class="cls-1" d="M78.5,15C77.33,23.67,76.1,32.33,75,41c-1.57,12.49-3.57,25-4.41,37.51-1.84,27.42-1.33,54.92,3.63,82,4.37,23.87,10.32,47.49,16.41,71,4.41,17,10.14,33.72,15.4,50.52.61,2,2,3.69,3,5.52" transform="translate(-14.86 -10.68)"/><path class="cls-1" d="M87.5,21c-1.83,9-4.4,17.92-5.35,27-2,19.11-3.82,38.29-4.5,57.49-1.1,31.06,2.87,61.67,9.73,92A779.91,779.91,0,0,0,110,279c1.31,3.82,4.07,7.67.51,10.63V298" transform="translate(-14.86 -10.68)"/><path class="cls-1" d="M97,28.5c-.67,2.5-1.44,5-2,7.5C90.38,57.59,88.13,79.47,87,101.5c-1.38,25.86-.32,51.61,4.72,77,4.89,24.65,11,49.06,16.9,73.51,1.87,7.78,4.57,15.36,7,23A12.56,12.56,0,0,0,117,277.5" transform="translate(-14.86 -10.68)"/><path class="cls-1" d="M105,33.5c-3,20.33-6.93,40.58-8.77,61a363,363,0,0,0,2,84,596.07,596.07,0,0,0,19.24,88c.82,2.74,1.88,5.41,2.84,8.11l1.66.51L112.5,284" transform="translate(-14.86 -10.68)"/><path class="cls-1" d="M116.5,42.5c-1,1.33-2.6,2.54-2.91,4C106.26,81.29,102,116.44,103.7,152a428.63,428.63,0,0,0,6,53.47c3.51,20,8.71,39.72,13.37,59.52.43,1.84,2.23,3.35,3.4,5" transform="translate(-14.86 -10.68)"/><path class="cls-1" d="M102.5,299.5c-1.33,8.67-2.93,17.3-3.93,26-1.14,10-2.33,20-2.43,30C96,372,95.81,388.57,97.25,405c1.34,15.43,4.23,30.79,7.38,46,3.77,18.12,8.48,36,13,54,.53,2.14,2.09,4,3.17,6" transform="translate(-14.86 -10.68)"/><path class="cls-1" d="M125,52.5c-1.33,5.5-3.12,10.94-3.91,16.51-2.1,14.8-3.85,29.65-5.57,44.49-2.51,21.64-3.22,43.34-.45,65,2.51,19.71,5.31,39.39,8.57,59,1.35,8.13,4.19,16,6.36,24" transform="translate(-14.86 -10.68)"/><path class="cls-1" d="M130,55c6.45,7.06,1.59,14.78.81,22-2.11,19.56-6,39-7.62,58.54-2.64,31.13-.12,62.17,4.89,93,1.46,8.92,3.95,17.67,5.9,26.51a63.56,63.56,0,0,1,1.9,10.51c.14,2.86-.77,5.77-1.22,8.66l-1.36-.11c1.06,3.81,2,7.66,3.28,11.41.29.85,1.59,1.36,2.42,2" transform="translate(-14.86 -10.68)"/><path class="cls-1" d="M110,299.5c-1.5,9.33-3.93,18.63-4.31,28-.79,20-1.15,40-.55,60,1,33.39,10.51,65.32,18.38,97.5a10.57,10.57,0,0,0,1,2" transform="translate(-14.86 -10.68)"/><path class="cls-1" d="M143.5,71.5c-1.83,9-4.05,17.94-5.41,27-2,13.45-4.21,26.95-4.9,40.5-.93,18.46-1.14,37-.49,55.48.49,13.87,2.68,27.69,4.37,41.5.57,4.72,1.93,9.34,2.93,14" transform="translate(-14.86 -10.68)"/><path class="cls-1" d="M77.5,13.5C80.33,15.33,83,17.61,86,18.91c7.92,3.38,13,10.55,20.76,14.48,6.46,3.27,11.13,10,16.73,15.07,2.47,2.22,5.61,3.74,7.9,6.11,3.44,3.57,6.45,7.56,9.56,11.44,4.08,5.1,8.09,10.26,11.43,14.51-2.08,10.89-4.18,20.9-5.89,31-4.59,27.13-7.12,54.47-5.89,82,.72,16,2.85,32,4.39,48a6.83,6.83,0,0,0,1,2" transform="translate(-14.86 -10.68)"/><path class="cls-1" d="M90,624c-2.5,8.17-5.46,16.23-7.4,24.52-3.36,14.42-6.46,28.92-9,43.5-1.67,9.72-2.25,19.64-3.1,29.48-.82,9.49-1.55,19-1.94,28.5-.18,4.15.9,8.34.84,12.5-.1,8.17-.6,16.33-.93,24.5" transform="translate(-14.86 -10.68)"/><path class="cls-1" d="M115,316.5c-.67,4.33-1.7,8.65-1.93,13-.55,10.83-1.15,21.67-1,32.5a370.15,370.15,0,0,0,9,74c1.84,8.37,3.94,16.68,6,25a23.72,23.72,0,0,0,1.47,3.51" transform="translate(-14.86 -10.68)"/><path class="cls-1" d="M159.5,94c-1,3.5-2.42,6.94-2.93,10.51-3.14,22.15-6.47,44.28-9,66.5-2.38,21.31-1.23,42.67.79,64,.81,8.56-1.92,16.69-5.4,24.49" transform="translate(-14.86 -10.68)"/><path class="cls-1" d="M95,643c-2.17,7.17-4.73,14.24-6.41,21.52-2.67,11.59-5,23.27-7,35a253,253,0,0,0-3,26.48c-1.25,20.66-2.08,41.33-3.08,62" transform="translate(-14.86 -10.68)"/><path class="cls-1" d="M94.5,306a64.68,64.68,0,0,1,0,7.5c-1.41,12-3.26,24-4.37,36C89,361,87.83,372.53,88.21,384c.49,15.2,2.22,30.37,3.84,45.5,3.4,31.74,11.68,62.43,20.42,93,1.27,4.43,4.39,8.47,3,13.49" transform="translate(-14.86 -10.68)"/><path class="cls-1" d="M81,416.5c1.33,8.5,2.54,17,4,25.49,2.22,12.69,4,25.49,7.1,38,5.37,21.95,11.53,43.7,17.38,65.53.27,1,.66,2,1,3" transform="translate(-14.86 -10.68)"/><path class="cls-1" d="M153.5,83c4.17,7.17,8.69,14.16,12.4,21.55,3.48,6.93,6.82,14.08,8.89,21.51,2,7.06,1.66,14.74,3.34,21.91,2.7,11.58-1.16,22.42-2.72,33.52-.39,2.75-1.91,5.34-2.91,8" transform="translate(-14.86 -10.68)"/><path class="cls-1" d="M170.5,199.5c-.5,3.33-.29,7-1.67,9.92-2,4.17-3.51,7.64-2.12,12.66,1.1,3.93,0,8.67-.82,12.9-1.06,5.25-2.89,10.35-4.39,15.52" transform="translate(-14.86 -10.68)"/><path class="cls-1" d="M166.5,106.5c-1.67,5-4,9.89-4.87,15-3,18.45-6.31,36.91-7.88,55.5-1.38,16.4-.63,33-.7,49.48,0,2.83,1.16,5.75.75,8.47-.25,1.66-2.47,3-3.8,4.53" transform="translate(-14.86 -10.68)"/><path class="cls-1" d="M100,666.5c-1.83,6.83-4,13.59-5.42,20.52q-3.92,19.66-7,39.49c-1.12,7.27-1.49,14.65-2.06,22Q84.17,766,83,783.5a35.29,35.29,0,0,0,.46,5.5" transform="translate(-14.86 -10.68)"/><path class="cls-1" d="M77,449.5c1.33,6.5,2.63,13,4,19.5,3.31,15.67,6.21,31.45,10.11,47S100,547,104.5,562.5" transform="translate(-14.86 -10.68)"/><path class="cls-1" d="M171,120.5c-1.83,6.67-4.22,13.24-5.4,20-4.48,25.62-7.76,51.39-7.56,77.48a22.61,22.61,0,0,0,1,4.5" transform="translate(-14.86 -10.68)"/><path class="cls-1" d="M123,337.5c.17.67.65,1.79.45,1.93-3.37,2.37-2.41,5.86-2.45,9.07a313.15,313.15,0,0,0,9.45,79c.72,2.91.72,6,1.05,9" transform="translate(-14.86 -10.68)"/><path class="cls-1" d="M108,692c-4.73,2-4.64,6.74-5.37,10.53-3,15.43-5.87,30.91-8,46.49-1.84,13.41-2.63,27-4,41.36-4.19-.28-8.7-.37-13.15-.92-9.69-1.2-19.35-2.59-29-4C40.66,784.37,32.84,783.1,25,782c-2.81-.38-5.67-.36-8.5-.53" transform="translate(-14.86 -10.68)"/><path class="cls-1" d="M75,482c1.33,3.67,3,7.26,4,11C84.06,512.48,89,532,94,551.5c2.08,8,4.32,16,6.49,24" transform="translate(-14.86 -10.68)"/><path class="cls-1" d="M172,671.5c-4.42,9.43-7.23,19.34-9.58,29.48-5.23,22.56-10.92,45-16.41,67.52-.4,1.65-.68,3.33-1,5" transform="translate(-14.86 -10.68)"/><path class="cls-1" d="M261.5,777c-6.5,1.67-13,3.5-19.51,5-14.64,3.27-29.33,6.35-44,9.54-3.51.77-7,2-10.51,2.36-2.1.21-4.32-.87-6.49-1.37" transform="translate(-14.86 -10.68)"/><path class="cls-1" d="M190,644.75c.83,1.25,2.39,2.51,2.38,3.75-.07,6.5.27,13.17-1,19.47-3.17,15.27-6.8,30.47-11,45.48-1.77,6.3-5.67,12-8.25,18.08-1.55,3.67-2.32,7.67-3.59,11.46A10,10,0,0,0,170,753" transform="translate(-14.86 -10.68)"/><path class="cls-1" d="M175,134.5c-1.83,6.83-4.31,13.57-5.38,20.52-2.86,18.61-5.14,37.31-7.56,56-.14,1.1.61,2.32.94,3.49" transform="translate(-14.86 -10.68)"/><path class="cls-1" d="M131.5,312l3.61,7.15,4.81-1.62c2.4,9.82,7.39,19.68,6.4,28.9-1.2,11.28,2.57,21.1,3.86,31.55,1.34,10.77,4.27,21.33,6.27,32a114.24,114.24,0,0,1,2.42,17.49c.22,7.32-.54,14.67-.87,22" transform="translate(-14.86 -10.68)"/><path class="cls-1" d="M177,690.5c-6.13,7.39-6.38,16.88-8.94,25.52-5,16.94-9.68,34-14.58,51-1.71,5.92-4,11.78,1.52,17" transform="translate(-14.86 -10.68)"/><path class="cls-1" d="M200,670.5c-1.83,5.33-3.89,10.6-5.46,16-4.78,16.47-9.16,33-14.17,49.45-1.5,4.92-4.54,9.37-6.87,14" transform="translate(-14.86 -10.68)"/><path class="cls-1" d="M180,602.5q-1.87,4.35-3.74,8.7l.67.1q-2.72,10.85-5.44,21.7a7.23,7.23,0,0,1-1,3c-4,4.49-2.88,10.4-4.51,15.52-1.94,6.08-4.49,12-6.38,18a84.23,84.23,0,0,0-3,13.49c-1.23,9-1.52,18.09-3.19,27-3.08,16.41-6.74,32.72-10.47,49-1.1,4.8-3.24,9.35-4.91,14" transform="translate(-14.86 -10.68)"/><path class="cls-1" d="M87.5,315c.17,2.33.87,4.78.42,7-4.14,20.14-5.66,40.56-7,61a11.68,11.68,0,0,1-2.34,6.42L83,396" transform="translate(-14.86 -10.68)"/><path class="cls-1" d="M150.5,326c1.13,7.78,1.18,15.76,4.94,23,1.5,2.9,2.34,6.15,3.44,9.14L168.5,362" transform="translate(-14.86 -10.68)"/><path class="cls-1" d="M174.5,365c.17,3.33-.23,6.82.59,10,4.47,17,9.28,34,13.86,51a33.87,33.87,0,0,1,.55,6" transform="translate(-14.86 -10.68)"/><path class="cls-1" d="M154,348.5c-2,5.5-1.38,10.88-.09,16.52q6.6,28.92,12.47,58c.83,4.17-.1,8.66.17,13,.5,8.17,1.28,16.33,1.95,24.5" transform="translate(-14.86 -10.68)"/><path class="cls-1" d="M162.5,330.5l-5.71.85c1.93,8.21,3.59,15.18,5.19,22.16a4.85,4.85,0,0,1,0,2.48c-3.12,9,1.47,17.13,3.17,25.48,3,14.77,7.23,29.29,10.15,44.07,1,4.91-.78,10.3-.68,15.46.08,3.51,1.24,7,1.89,10.5,1.71,9.17,2.28,18.31.08,27.52-.37,1.54.12,3.34.44,5,1.59,8-.31,15.76-2,23.5" transform="translate(-14.86 -10.68)"/><path class="cls-1" d="M70,522.5c7.19-1.8,9.17-1,11,5.51,5.29,19.3,10.4,38.65,15.49,58,.37,1.41,0,3,0,4.49" transform="translate(-14.86 -10.68)"/><path class="cls-1" d="M168.5,362.5c-2.46,6.61,1.36,12.44,2.66,18.47,3.36,15.6,7.57,31,11.29,46.54.7,2.92,1.51,6.16.9,9-1.75,8.08,2.49,15.29,2.66,23,.12,5.67.38,11.33.47,17,.08,5-.78,10.17.23,15,1.15,5.44-.09,10.15-1.71,15" transform="translate(-14.86 -10.68)"/><path class="cls-1" d="M212,589.5a27.06,27.06,0,0,0-1.48,3,31.27,31.27,0,0,0-2,6.5c-.7,6.14-.91,12.34-1.66,18.48-.26,2.07-1.8,4-2.37,6-1.46,5.3-2.86,10.62-4,16-.91,4.28-.89,8.82-2.21,12.94-1,3.25-3.51,6-5.34,9" transform="translate(-14.86 -10.68)"/><path class="cls-1" d="M72.5,379c-4.41,4.57-2.68,10.67-3.91,16-.66,2.89-.17,6-.69,9a9.36,9.36,0,0,1-2.46,4.95c-5.95,5.56-8.32,16.24-4.94,23.57" transform="translate(-14.86 -10.68)"/><path class="cls-1" d="M60,450c.17,5,.13,10,.56,15,.38,4.36,1.27,8.68,1.94,13" transform="translate(-14.86 -10.68)"/><path class="cls-1" d="M64,493c-1.79,6.59-.15,12.82,2,19" transform="translate(-14.86 -10.68)"/><path class="cls-1" d="M190,645.5c-4.53,8.64-7,17.92-8.52,27.5-.51,3.19-1.47,6.31-1.95,9.5-1.42,9.49-2.81,19-3.93,28.51-.21,1.75.9,3.66,1.4,5.49" transform="translate(-14.86 -10.68)"/><path class="cls-1" d="M127.5,353.75c2,14.25,3.82,28.53,6.06,42.74,1.71,10.88,3.93,21.68,6,32.5.08.41.95.68,1.45,1" transform="translate(-14.86 -10.68)"/><path class="cls-1" d="M112,730c-5.37,2.38-4.54,7.92-5.29,12-2.55,14.06-4.25,28.29-6.17,42.47a48.42,48.42,0,0,0,0,6.49" transform="translate(-14.86 -10.68)"/><path class="cls-1" d="M176,568.5c-3,18-8.58,35.28-12.84,52.92l1.26-.06L167,638.5" transform="translate(-14.86 -10.68)"/><path class="cls-1" d="M204.5,685c-5.23,1.57-5.65,6.56-6.88,10.54-3.34,10.72-6,21.68-9.21,32.43-1.17,3.87-1.52,7.25,1.09,10.53" transform="translate(-14.86 -10.68)"/><path class="cls-1" d="M80.5,324c.17,2,.69,4,.44,6-1.89,15.18-3.93,30.34-6,45.51a7.37,7.37,0,0,1-1,2" transform="translate(-14.86 -10.68)"/><path class="cls-1" d="M190,607.5c-1.83,5.83-4.74,11.58-5.23,17.52-.64,7.72-3.42,14.33-6.71,21a27.49,27.49,0,0,0-2,7c-1.11,5.81-2,11.66-3,17.49" transform="translate(-14.86 -10.68)"/><path class="cls-1" d="M138,335.5c-4.33,2.56-1.54,6.48-1.3,9.48.52,6.56,3.47,13.12,3,19.5-.91,12.75,2.74,24.71,4.35,37,.36,2.73,1.6,5.34,2.43,8" transform="translate(-14.86 -10.68)"/><path class="cls-1" d="M153,699.5c-.67.83-1.69,1.57-1.95,2.51-2.91,10.65-5.67,21.33-8.56,32-2.27,8.35-4.94,16.6-6.87,25-1,4.34-.68,9-1.17,13.46a45.3,45.3,0,0,1-1.45,6" transform="translate(-14.86 -10.68)"/><path class="cls-1" d="M141,366.5c1.5,6.17,3.18,12.3,4.45,18.51,1.38,6.79,2.46,13.64,3.48,20.5.18,1.26-.71,2.64-.9,4-.28,2-.36,4-.53,6" transform="translate(-14.86 -10.68)"/><path class="cls-1" d="M211,630c-4.23,3.64-2.63,9-3.92,13.52-2.12,7.42-3.75,15-5.58,22.48" transform="translate(-14.86 -10.68)"/><path class="cls-1" d="M203.5,436c2.5,7.83,4.84,15.72,7.56,23.48,1.84,5.27.37,10.09-1.06,15" transform="translate(-14.86 -10.68)"/><path class="cls-1" d="M131,355c1.5,5.17,3.62,10.24,4.39,15.52Q139.1,396.2,141.9,422c.62,5.6.06,11.32.14,17a9.71,9.71,0,0,0,1,2.75" transform="translate(-14.86 -10.68)"/><path class="cls-1" d="M146.5,626a58.45,58.45,0,0,0,.05,7.49c.79,6-3.88,10-5.39,15.06-1.42,4.77-1.49,10-2.16,15" transform="translate(-14.86 -10.68)"/><path class="cls-1" d="M159,592.5q-3.17,9.86-6.34,19.71l1.83.15c1,6.38,2.3,12.73,2.91,19.15.39,4.11.55,8.55-.59,12.43-1.58,5.39-4.48,10.39-6.81,15.56" transform="translate(-14.86 -10.68)"/><path class="cls-1" d="M69,411.5c.17,4.67.41,9.33.48,14,.08,5.5,0,11,0,17.33l-7,2.67" transform="translate(-14.86 -10.68)"/><path class="cls-1" d="M146,680.5c-4.07,6.23-5.32,13.35-6.51,20.5-1.13,6.84-2.33,13.67-3.48,20.5-.08.49.18,1.33,0,1.45-9,5.14-4.82,14.23-6.47,21.55" transform="translate(-14.86 -10.68)"/><path class="cls-1" d="M188.5,433.5l3,15.5q2,10.25,4,20.5" transform="translate(-14.86 -10.68)"/><path class="cls-1" d="M73.5,453.5q.5,12.25,1,24.5c0,1,.33,2.14,0,3-4.14,9.36.28,18.37,1.07,27.52.38,4.34,1,8.67,1.48,13" transform="translate(-14.86 -10.68)"/><path class="cls-1" d="M198,571.5l2.4,20.13.93-.14c-.27,3.84-.44,7.68-.85,11.51-.72,6.56-3.36,12.48-5.66,18.62-2.43,6.47-2.31,13.88-3.33,20.88a20.1,20.1,0,0,1-.49,2" transform="translate(-14.86 -10.68)"/><path class="cls-1" d="M135,412.5a23.33,23.33,0,0,0-1,4.5c-.08,9.67.31,19.35-.17,29-.29,5.87-1.77,11.7-3,17.49-.18.83-1.9,1.34-3.45,2.35,2.33,7,4.69,14.07,7.06,21.17" transform="translate(-14.86 -10.68)"/><path class="cls-1" d="M74.5,334c-.17,4,0,8.05-.57,12-1.08,7.2-2.6,14.34-3.93,21.51" transform="translate(-14.86 -10.68)"/><path class="cls-1" d="M221.5,535.5c.67,6.17,1.19,12.35,2,18.49.81,5.86,1.84,11.7,3,17.5.65,3.23-1.4,11.78-3.55,13.26" transform="translate(-14.86 -10.68)"/><path class="cls-1" d="M177,150.5c-2,7.67-4.33,15.27-5.88,23-1,4.88-.79,10-1.12,15" transform="translate(-14.86 -10.68)"/><path class="cls-1" d="M65,447.5c.83,3.33,2.6,6.75,2.31,10-.64,7.34,2.93,14.94-1.31,22" transform="translate(-14.86 -10.68)"/><path class="cls-1" d="M74,531.75c-.83,2.25-2.61,4.63-2.32,6.72a108.74,108.74,0,0,0,3.94,17c.79,2.56,2.89,4.7,4.38,7,.84,1.33,2,2.56,2.44,4,3.16,10.66,6.16,21.37,9.24,32.2L89,599.5" transform="translate(-14.86 -10.68)"/><path class="cls-1" d="M188,567.5c.83,5.67,1.62,11.34,2.53,17,.3,1.9.93,3.75,1.65,6.6-.33,4.39-.76,9.89-1.18,15.4" transform="translate(-14.86 -10.68)"/><path class="cls-1" d="M130,692.75c.83,1.42,2.42,2.86,2.37,4.25-.23,7.34-1,14.66-1.31,22-.08,1.82.61,3.67.94,5.5" transform="translate(-14.86 -10.68)"/><path class="cls-1" d="M146,679.75c.67,1.08,1.95,2.19,1.9,3.25-.31,7.5-1,15-1.34,22.5-.08,1.65.61,3.33.94,5" transform="translate(-14.86 -10.68)"/><path class="cls-1" d="M214.5,642.25c3.51-.53,2.74,2.22,2.41,3.73-.89,4.06-2.24,8-3.41,12" transform="translate(-14.86 -10.68)"/><path class="cls-1" d="M206,689.5c-1.17,5.33-2.3,10.67-3.52,16-.57,2.52-1.31,5-2,7.5" transform="translate(-14.86 -10.68)"/><path class="cls-1" d="M200,444c-.83,1-2.51,2.15-2.37,3,1.45,8.2,3.18,16.36,4.92,24.51.12.58.95,1,1.45,1.51" transform="translate(-14.86 -10.68)"/><path class="cls-1" d="M204,476.5c-2.39,1.84-2.78,4-2.12,7,1.24,5.74,1.79,11.64,2.61,17.47a3,3,0,0,1,0,1.49c-4,9.28,1.19,19.19-2,28.51-.51,1.5-1,3-1.5,4.5" transform="translate(-14.86 -10.68)"/><path class="cls-1" d="M168,327.5l-5.26,2.64c1.39,10.19,2.92,20.33,7.26,29.86" transform="translate(-14.86 -10.68)"/><path class="cls-1" d="M217,599.5a46.64,46.64,0,0,0-1.95,6.51c-.83,5.47-1.52,11-2,16.5-.15,1.79.59,3.66.92,5.49" transform="translate(-14.86 -10.68)"/><path class="cls-1" d="M129,651.5c-2.36,4.74-4.48,9.44-4.68,15-.1,2.71-2.33,5.28-3.26,8-.64,1.89-.6,4-1.09,6s-1.3,4-2,6" transform="translate(-14.86 -10.68)"/><path class="cls-1" d="M216,485c3.79,5.77,3.79,12.05,2.5,18.5" transform="translate(-14.86 -10.68)"/><path class="cls-1" d="M221,516.5c1.12,6.17,3.91,12.33-.3,19.09-1-1.16-2.33-2-2.62-3.11-1.36-5.23-3.44-10.48-1.08-16" transform="translate(-14.86 -10.68)"/><path class="cls-1" d="M214,479.5c.33,1.83,1.52,4.1.85,5.42-2.81,5.57-.46,10.5,1.15,15.58" transform="translate(-14.86 -10.68)"/><path class="cls-1" d="M209,478c-3.93,3.84-.36,8.06-.28,12,.11,5.35,1.78,10.67,2.78,16" transform="translate(-14.86 -10.68)"/><path class="cls-1" d="M144,600.5l.6-2.88-.76-.17q-3.93,16.15-7.84,32.3" transform="translate(-14.86 -10.68)"/><path class="cls-1" d="M152,437.5c2.5,7.83,5.08,15.64,7.42,23.52.4,1.34-.25,3-.42,4.48" transform="translate(-14.86 -10.68)"/><path class="cls-1" d="M76,534.5c1.5,5.33,2.88,10.7,4.54,16,1.25,4,1.94,7.78-.54,11.51" transform="translate(-14.86 -10.68)"/><path class="cls-1" d="M142,442.5c-.83,6.33-2.39,12.68-2.32,19,.1,8.24-2.21,16-3.18,24L135,497.75" transform="translate(-14.86 -10.68)"/><path class="cls-1" d="M205.5,563.5c0,5.67.39,11.37-.16,17-.3,3.09-2.17,6-3.34,9" transform="translate(-14.86 -10.68)"/><path class="cls-1" d="M215.5,559c-.83,2-2.28,4-2.39,6-.44,7.81-.44,15.66-.61,23.49" transform="translate(-14.86 -10.68)"/><path class="cls-1" d="M172,670.75c2.79.42,2.53,2,2.09,4.27-1.11,5.78-1.87,11.63-2.5,17.49-.13,1.27.91,2.66,1.41,4" transform="translate(-14.86 -10.68)"/><path class="cls-1" d="M164,518.5q4.13,12,8.24,24.07l-1.71.29c-1.41,4.74-2.82,9.47-4,13.55.19,8.61-2.77,15.82-5.49,23.09" transform="translate(-14.86 -10.68)"/><path class="cls-1" d="M165,660c0,6.17-.08,12.33.05,18.5a42.77,42.77,0,0,0,.95,6" transform="translate(-14.86 -10.68)"/><path class="cls-1" d="M200,552c-.83,5-1.65,10-2.51,15-.26,1.51-1,3-.9,4.5s.91,2.67,1.41,4" transform="translate(-14.86 -10.68)"/><path class="cls-1" d="M138,663.75c.83,1.42,2.29,2.79,2.39,4.26.3,4.81,0,9.66.18,14.49.07,1.68.93,3.33,1.43,5" transform="translate(-14.86 -10.68)"/><path class="cls-1" d="M201,445.5c1.5,5.33,2.95,10.68,4.52,16,.7,2.38,1.65,4.68,2.48,7" transform="translate(-14.86 -10.68)"/><path class="cls-1" d="M124,674.5c.5,5.67.92,11.34,1.54,17a47.22,47.22,0,0,0,1.46,6" transform="translate(-14.86 -10.68)"/><path class="cls-1" d="M109.5,290l-10,6.91c-1.62,2.85-2.33,4.63-3.48,6.06C90,310.36,83.45,317.29,78.15,325.1c-5.85,8.61-10.46,18-10.67,28.9a14.51,14.51,0,0,1-.48,2.5" transform="translate(-14.86 -10.68)"/><path class="cls-1" d="M127.5,331.75c.83,5.92,1.82,11.82,2.4,17.76.16,1.6-.9,3.32-1.4,5" transform="translate(-14.86 -10.68)"/><path class="cls-1" d="M74,388.5l.48,6.5c-2.94,9.4-.13,18.68,1,28" transform="translate(-14.86 -10.68)"/><path class="cls-1" d="M214.5,535.75c.5,6.75.88,13.51,1.57,20.24.23,2.21,1.26,4.34,1.93,6.51" transform="translate(-14.86 -10.68)"/><path class="cls-1" d="M135,586.5c-.83,3.67-1.71,7.32-2.48,11a12.63,12.63,0,0,0-.46,4.49c1.2,7,2.61,14,3.94,21" transform="translate(-14.86 -10.68)"/><path class="cls-1" d="M112,672.5l4.5,15.5" transform="translate(-14.86 -10.68)"/><path class="cls-1" d="M219.5,570q.25,10.75.5,21.5" transform="translate(-14.86 -10.68)"/><path class="cls-1" d="M129,650.75c2.86,2.53,2.61,2.56,3.56,9.74a91.13,91.13,0,0,1-1.56,32" transform="translate(-14.86 -10.68)"/><path class="cls-1" d="M185,521.5c-1.33,7.33-3.53,14.65-3.68,22-.08,4.46,3.23,8.92,4.6,13.51.91,3.05,1.08,6.31,1.58,9.48" transform="translate(-14.86 -10.68)"/><path class="cls-1" d="M109.5,669.25c-4,2-2.68,5.83-2.33,8.73.48,3.92,2.2,7.68,3.27,11.54.11.37-.61,1-.94,1.48" transform="translate(-14.86 -10.68)"/><path class="cls-1" d="M131,558.5l-4.67,11.13.71.13q-3.57,12.76-7.13,25.52l1.44-.12a37.44,37.44,0,0,1,1.62,4.35c1.24,5.15,2.36,10.32,3.53,15.49" transform="translate(-14.86 -10.68)"/><path class="cls-1" d="M195,470.5c-3,9.35,0,18.26,2,27.25" transform="translate(-14.86 -10.68)"/><path class="cls-1" d="M193.5,508.75c1.69,8.44.73,16.49-1.63,24.86-1.12,4-3.05,9.55,1.47,14,1.5,1.49,1,4.87,1.7,7.33.49,1.88,1.29,3.68,2,5.51" transform="translate(-14.86 -10.68)"/><path class="cls-1" d="M135,585.5c.67-3.55,1.33-7.11,2.1-11.2l5.4,23.2" transform="translate(-14.86 -10.68)"/><path class="cls-1" d="M147,494.5c3.05,7.54,8.43,14.58,4.81,23.5,3.86,0,3.86,0,1.69-4" transform="translate(-14.86 -10.68)"/><path class="cls-1" d="M208,507.25c1.12,8.73,4.83,17.22.73,26.35-1.43,3.19.07,7.6-.3,11.39-.57,5.86-1.6,11.68-2.43,17.51" transform="translate(-14.86 -10.68)"/><path class="cls-1" d="M136,630.5c-4.57,5.9-5.79,12.8-6,20" transform="translate(-14.86 -10.68)"/><path class="cls-1" d="M76.5,428.5l-1.45-5.24,2-.27L76.5,448.5" transform="translate(-14.86 -10.68)"/><path class="cls-1" d="M147,640.5c.33,2,.71,4,1,6a89.13,89.13,0,0,1-1,33" transform="translate(-14.86 -10.68)"/><path class="cls-1" d="M132.5,279.5l-.6,8.95-2.24.61c2.28,5.48,4.94,10.84,6.71,16.48,1.19,3.78,1.13,8,1.63,12" transform="translate(-14.86 -10.68)"/><path class="cls-1" d="M135,725c.33,2.83,1.21,5.73.86,8.48-.44,3.57-1.86,7-2.86,10.52" transform="translate(-14.86 -10.68)"/><path class="cls-1" d="M116,614.5c1.17,5,2.36,10,3.48,15,.29,1.31.35,2.67.52,4" transform="translate(-14.86 -10.68)"/><path class="cls-1" d="M142,272.5a10,10,0,0,0-1.62,9.54c.41,1.45-.26,3.42-.94,4.93-1.8,4,1.18,15.71,5.06,19" transform="translate(-14.86 -10.68)"/><path class="cls-1" d="M121,640.5c.83,4.83,1.61,9.68,2.54,14.49A18,18,0,0,0,125,658.5" transform="translate(-14.86 -10.68)"/><path class="cls-1" d="M66,493c4.68,3.39,1.74,8.79,3.38,13.05a23.36,23.36,0,0,1,1,8.45c0,2-.91,4-1.41,6" transform="translate(-14.86 -10.68)"/><path class="cls-1" d="M126,621.5c-1.83,5-3.61,10-5.52,15-.86,2.22-2,4.34-3,6.51" transform="translate(-14.86 -10.68)"/><path class="cls-1" d="M116.5,648.5l3.5,25" transform="translate(-14.86 -10.68)"/><path class="cls-1" d="M175,627.5c.33,4,.61,8,1,12,.21,2,.65,4,1,6" transform="translate(-14.86 -10.68)"/><path class="cls-1" d="M146,301.5c4,7,5.34,14.64,6,22.5" transform="translate(-14.86 -10.68)"/><path class="cls-1" d="M166.5,566c1,3.5,1.92,7,3,10.49.66,2.06,1.64,4,2.47,6" transform="translate(-14.86 -10.68)"/><path class="cls-1" d="M101,580l-.56-4.45.85-.13L106,599" transform="translate(-14.86 -10.68)"/><path class="cls-1" d="M154.5,554.75c.46,6.87-2.23,13-4.3,19.32-1.13,3.46-.2,7.6-.2,11.43" transform="translate(-14.86 -10.68)"/><path class="cls-1" d="M168,461.5c-.33,4.5-.59,9-1,13.5a21.09,21.09,0,0,1-1.21,4" transform="translate(-14.86 -10.68)"/><path class="cls-1" d="M180,601.75c1,1.75,2.42,3.39,2.91,5.27,1,3.76,1.42,7.65,2.09,11.48" transform="translate(-14.86 -10.68)"/><path class="cls-1" d="M159.5,238a39.69,39.69,0,0,0-1,5c-.2,3.06.79,6.38-2.52,8.54a1.8,1.8,0,0,0-.49,1.46c1.06,7.78-3,15-2.74,22.49.25,6.22,2.8,12.43,4.88,18.45.54,1.56,3.16,2.39,4.83,3.56" transform="translate(-14.86 -10.68)"/><path class="cls-1" d="M124,305.5c-2,3.81-3.69,7.57-1.61,12.05.55,1.17-.12,3-.41,4.45-.41,2-1.41,4-1.39,6,0,4.17.58,8.33.91,12.5" transform="translate(-14.86 -10.68)"/><path class="cls-1" d="M169,461.5c1.5,4,2.89,8.05,4.55,12A29.43,29.43,0,0,0,176.5,478" transform="translate(-14.86 -10.68)"/><path class="cls-1" d="M167,315c-7.82-2.85-9.59-10.59-3.84-17.7,4.06,4.35,6,9.26,4.84,15.2" transform="translate(-14.86 -10.68)"/><path class="cls-1" d="M172,339.5c-2.64,5.59,1.2,10.35,2,15.49a16.32,16.32,0,0,0,1.46,3.51" transform="translate(-14.86 -10.68)"/><path class="cls-1" d="M183,638.5c.17,3.67.2,7.35.55,11a42.71,42.71,0,0,0,1.45,6" transform="translate(-14.86 -10.68)"/><path class="cls-1" d="M137,630.5c.67,4.33,1.3,8.67,2,13,.22,1.35.65,2.67,1,4" transform="translate(-14.86 -10.68)"/><path class="cls-1" d="M167,426c1.17,2.67,2.31,5.34,3.51,8,1.13,2.51,2.32,5,3.49,7.5" transform="translate(-14.86 -10.68)"/><path class="cls-1" d="M160.5,592c.83,3.67,1.59,7.35,2.53,11,.49,1.88,1.3,3.68,2,5.51" transform="translate(-14.86 -10.68)"/><path class="cls-1" d="M148.5,454.5c1.49,10,1.27,19.89-2.41,29.53-.48,1.26.56,3,.35,4.46-.86,6-1.8,12-3,18s-2.56,11.69-4,17.5a20.59,20.59,0,0,1-1.95,4" transform="translate(-14.86 -10.68)"/><path class="cls-1" d="M108,640c1,3.5,1.92,7,3,10.49.66,2.06,1.64,4,2.47,6" transform="translate(-14.86 -10.68)"/><path class="cls-1" d="M159,249.5c6.47,3.76,3.68,9.7,3.46,15a14.93,14.93,0,0,1-1,3.28c3.24,4.27,3.69,9,.84,14l1.39.05q-.37,7.59-.74,15.19" transform="translate(-14.86 -10.68)"/><path class="cls-1" d="M151,437.5c-.33,3.33-.62,6.67-1,10-.24,2-.65,4-1,6" transform="translate(-14.86 -10.68)"/><path class="cls-1" d="M118,694.5c.83,2.33,1.77,4.64,2.47,7,.94,3.13,1.12,6.65,2.68,9.41,1.9,3.34,1.54,5.87-.65,8.58" transform="translate(-14.86 -10.68)"/><path class="cls-1" d="M143,609.5c.83,3.67,1.6,7.35,2.53,11a13,13,0,0,0,3.17,6.08L153,614.5" transform="translate(-14.86 -10.68)"/><path class="cls-1" d="M138.5,537.5q2.5,8,5,16" transform="translate(-14.86 -10.68)"/><path class="cls-1" d="M149.5,416q1.25,10.38,2.5,20.75" transform="translate(-14.86 -10.68)"/><path class="cls-1" d="M127,621.5c.83,4,1.61,8,2.53,12a32.69,32.69,0,0,0,1.47,4" transform="translate(-14.86 -10.68)"/><path class="cls-1" d="M159.5,468c-1,7.67-1.94,15.34-3,23-.72,5-1.65,10-2.48,15" transform="translate(-14.86 -10.68)"/><path class="cls-1" d="M128,761.25c-3.25,1.51-5.18,7.14-4,11.75.44,1.68,1,3.33,1.49,5" transform="translate(-14.86 -10.68)"/><path class="cls-1" d="M174.5,508.75c-.73,9.42,3.59,17.46,7,25.75" transform="translate(-14.86 -10.68)"/><path class="cls-1" d="M112,627.5q2,7.75,4,15.5" transform="translate(-14.86 -10.68)"/><path class="cls-1" d="M171,544.5c1.17,3.17,2.29,6.35,3.52,9.49.73,1.87,1.65,3.68,2.48,5.51" transform="translate(-14.86 -10.68)"/><path class="cls-1" d="M63,416.5c2.72,5,1.31,10,0,15" transform="translate(-14.86 -10.68)"/><path class="cls-1" d="M155,564.5c1,3.33,1.95,6.68,3,10,.55,1.71,1.31,3.34,2,5" transform="translate(-14.86 -10.68)"/><path class="cls-1" d="M156,483.5c-1.17-2.67-2.3-5.35-3.51-8-.77-1.7-1.66-3.34-2.49-5" transform="translate(-14.86 -10.68)"/><path class="cls-1" d="M136,320l3,15.75" transform="translate(-14.86 -10.68)"/><path class="cls-1" d="M146.5,276.75c.28,5.2-1.27,10.9,4,14.75" transform="translate(-14.86 -10.68)"/><path class="cls-1" d="M181.75,546c-.42.33-1.11.6-1.21,1-1.39,5.82-3,11.61-3.9,17.51-.38,2.49.76,5.22,1,7.88,2.95,9.29,5,18.69,3.38,28.6" transform="translate(-14.86 -10.68)"/><path class="cls-1" d="M126.5,577c1.33,6,2.68,12,4,18,.25,1.15.34,2.33.51,3.5" transform="translate(-14.86 -10.68)"/><path class="cls-1" d="M148,582.5c-.17.5-.58,1.37-.46,1.45,5.9,3.91,3.79,10.78,6,16,.08.2.32.33.49.5" transform="translate(-14.86 -10.68)"/><path class="cls-1" d="M185.5,479a43.85,43.85,0,0,1-3-4.52c-1.31-2.6-2.37-5.31-3.54-8" transform="translate(-14.86 -10.68)"/><path class="cls-1" d="M145,246c-2.5,4.17-6.5,8-3,13.5" transform="translate(-14.86 -10.68)"/><path class="cls-1" d="M127,763q1.75,7.25,3.5,14.5" transform="translate(-14.86 -10.68)"/><path class="cls-1" d="M129,760c4.8-4.37,5.34-9.77,1.06-15.61-5,4.91-2,11.34-3.56,16.61" transform="translate(-14.86 -10.68)"/><path class="cls-1" d="M160.5,540c1.17,3.5,2.28,7,3.53,10.49a37.2,37.2,0,0,0,2,4" transform="translate(-14.86 -10.68)"/><path class="cls-1" d="M167,493.5c-.5,2.5-1.05,5-1.49,7.5-.93,5.29-2.29,10.36-1.87,16,.32,4.19-2.64,8.64-4.14,13" transform="translate(-14.86 -10.68)"/><path class="cls-1" d="M81.5,401.5q-.5,7-1,14" transform="translate(-14.86 -10.68)"/><path class="cls-1" d="M141,287.5c5.12,5.42,5.35,11.76,3.5,18.5" transform="translate(-14.86 -10.68)"/><path class="cls-1" d="M168,493.5l6,14" transform="translate(-14.86 -10.68)"/><path class="cls-1" d="M172,595.5l3,14" transform="translate(-14.86 -10.68)"/><path class="cls-1" d="M110,591c-2,5.54-4.47,10.8-1.66,17.07,1.7,3.78,1.83,8.26,2.66,12.43" transform="translate(-14.86 -10.68)"/><path class="cls-1" d="M213,644.5c-1.76,4.39-4.09,8.75-1,13.5" transform="translate(-14.86 -10.68)"/><path class="cls-1" d="M139,336.5c1,2.67,1.88,5.39,3,8a50,50,0,0,0,3,5" transform="translate(-14.86 -10.68)"/><path class="cls-1" d="M220,616c3.37.85,3,3.31,1.93,5.47a94,94,0,0,1-4.93,8" transform="translate(-14.86 -10.68)"/><path class="cls-1" d="M178.5,494l5.5,12.5" transform="translate(-14.86 -10.68)"/><path class="cls-1" d="M191,546l-3,13.5" transform="translate(-14.86 -10.68)"/><path class="cls-1" d="M159.5,466.5a50.2,50.2,0,0,1,7,19c.38,2.43,1,4.83,1.48,7.25" transform="translate(-14.86 -10.68)"/><path class="cls-1" d="M157.5,496c1.17,3,2.27,6,3.53,9a20.47,20.47,0,0,0,2,3" transform="translate(-14.86 -10.68)"/><path class="cls-1" d="M200,612c.5,2.5,1.09,5,1.47,7.5.31,2,.36,4,.53,6" transform="translate(-14.86 -10.68)"/><path class="cls-1" d="M140.5,471c.83,2.33,1.53,4.73,2.54,7a50,50,0,0,0,3,5" transform="translate(-14.86 -10.68)"/><path class="cls-1" d="M126.5,498c7,9.61,4.87,19.71.81,29.42-1.74,4.15-2,7.29.1,11.13,1.16,2.06,1.27,4.68,2.15,6.93A18.51,18.51,0,0,0,132,549" transform="translate(-14.86 -10.68)"/><path class="cls-1" d="M190,606.75c4.61,1.44,1.67,5.6,2.92,8.29.76,1.63.75,3.63,1.08,5.46" transform="translate(-14.86 -10.68)"/><path class="cls-1" d="M176,428c1,2.17,1.93,4.37,3,6.49.89,1.72,2,3.34,3,5" transform="translate(-14.86 -10.68)"/><path class="cls-1" d="M63,384c-.83,3.33-2,6.63-2.37,10-.21,2.1.87,4.32,1.37,6.49" transform="translate(-14.86 -10.68)"/><path class="cls-1" d="M175,520.5l-4,13" transform="translate(-14.86 -10.68)"/><path class="cls-1" d="M225,584.5v5.84c-3.37,1.86-7.15,3-7.15,4.16,0,2.68,1.81,5.37,2.89,8.06l1.69-.52q-.72,6.74-1.43,13.46" transform="translate(-14.86 -10.68)"/><path class="cls-1" d="M184.5,507.75q.5,6.38,1,12.75" transform="translate(-14.86 -10.68)"/><path class="cls-1" d="M132,558.5c1,2.5,1.86,5.07,3,7.48,1,1.94,2.57,3.58,3.36,5.56.52,1.29.1,3,.1,4.46" transform="translate(-14.86 -10.68)"/><path class="cls-1" d="M153,289c-5.45,5.09-2.43,11.95-.26,15.72,3.87,6.73,4.28,13.86,6.25,20.78.38,1.32.68,2.67,1,4" transform="translate(-14.86 -10.68)"/><path class="cls-1" d="M159,540.5l-4,13" transform="translate(-14.86 -10.68)"/><path class="cls-1" d="M149,537.5q2.5,8,5,16" transform="translate(-14.86 -10.68)"/><path class="cls-1" d="M187,567.5c-1.17,5.83-2.29,11.68-3.54,17.49A9.59,9.59,0,0,1,182,587.5" transform="translate(-14.86 -10.68)"/><path class="cls-1" d="M196,575.5l-3,13" transform="translate(-14.86 -10.68)"/><path class="cls-1" d="M125,286.5v7.17c-4.58,6.45.12,12.32,3.63,18.16A48.87,48.87,0,0,0,136,336.5" transform="translate(-14.86 -10.68)"/><path class="cls-1" d="M131.5,516l6,15.5" transform="translate(-14.86 -10.68)"/><path class="cls-1" d="M142,518.5c6.38,10,7.75,20.25,2,31" transform="translate(-14.86 -10.68)"/><path class="cls-1" d="M152,519q-1.75,6-3.5,12" transform="translate(-14.86 -10.68)"/><path class="cls-1" d="M144.5,559l4.5,14.5" transform="translate(-14.86 -10.68)"/><path class="cls-1" d="M106,572.5c2.38,4.74,4.69,9.41,4.62,15,0,2.49,1.32,5,1.86,7.51.91,4.31,1.69,8.66,2.52,13" transform="translate(-14.86 -10.68)"/><path class="cls-1" d="M224.5,569c-4.31,4.52-1,9.31-.5,14" transform="translate(-14.86 -10.68)"/><path class="cls-1" d="M65.5,356.5c.67.33,2,.83,1.91,1-1.13,4.34.81,8,1.82,12.09,1.78,7.08,5,12.66,10.77,16.93" transform="translate(-14.86 -10.68)"/><path class="cls-1" d="M91,790.5c7.33.49,14.57,4.56,22,.5" transform="translate(-14.86 -10.68)"/><path class="cls-1" d="M195,524q2.5,5.75,5,11.5" transform="translate(-14.86 -10.68)"/><path class="cls-1" d="M116,573.5l5,12" transform="translate(-14.86 -10.68)"/><path class="cls-1" d="M104,609.5c-1.82,7.41,1,13.79,4.5,20" transform="translate(-14.86 -10.68)"/><path class="cls-1" d="M125,492c-.27-1.63-.55-3.25-.82-4.88l1.76-.38c.35,1.42,1.29,3,1,4.23-1.62,6.23-3.71,12.33-5.34,18.55-.71,2.73-.73,5.65-1.06,8.48" transform="translate(-14.86 -10.68)"/><path class="cls-1" d="M134,782.5c-3.21,3.5-2.44,7.84-2.5,12" transform="translate(-14.86 -10.68)"/><path class="cls-1" d="M137,499l4,11" transform="translate(-14.86 -10.68)"/><path class="cls-1" d="M125.5,295c4.32,3.92,4.63,9.23,4.93,14.5,0,.64-.93,1.33-1.43,2" transform="translate(-14.86 -10.68)"/><path class="cls-1" d="M143,442.5l4.5,11.5" transform="translate(-14.86 -10.68)"/><path class="cls-1" d="M101,586c-3.69,5.56-1.93,11.29-.49,17,.43,1.68,1,3.33,1.49,5" transform="translate(-14.86 -10.68)"/><path class="cls-1" d="M144,306.5c.72,7,3.59,14,0,21" transform="translate(-14.86 -10.68)"/><path class="cls-1" d="M160.5,580.75l-1.5,11" transform="translate(-14.86 -10.68)"/><path class="cls-1" d="M142.5,260.75c-.17,3.67-.33,7.33-.5,11" transform="translate(-14.86 -10.68)"/><path class="cls-1" d="M148,586q-1.75,5.75-3.5,11.5" transform="translate(-14.86 -10.68)"/><path class="cls-1" d="M123.5,341q1.75,5.75,3.5,11.5" transform="translate(-14.86 -10.68)"/><path class="cls-1" d="M130,693.5c-2.77,3.14-3.66,6.93-4.08,11-.18,1.72-1.25,3.34-1.92,5" transform="translate(-14.86 -10.68)"/><path class="cls-1" d="M131,603.5,126.5,620" transform="translate(-14.86 -10.68)"/><path class="cls-1" d="M155,519c1.67,6.33,3.36,12.66,4.94,19,.12.48-.61,1.16-.94,1.74" transform="translate(-14.86 -10.68)"/><path class="cls-1" d="M160,430c.83,1.67,1.64,3.35,2.51,5s1.66,3,2.49,4.5" transform="translate(-14.86 -10.68)"/><path class="cls-1" d="M186,521.5l5,11" transform="translate(-14.86 -10.68)"/><path class="cls-1" d="M98.5,597l-3,10" transform="translate(-14.86 -10.68)"/><path class="cls-1" d="M197,498.5l5,10.5" transform="translate(-14.86 -10.68)"/><path class="cls-1" d="M157,249.5l-2.94-2.2c-4,1.39-3.32,4.77-3.56,7.7-.5,6.17-.94,12.34-1.58,18.49-.08.73-1.25,1.34-1.92,2" transform="translate(-14.86 -10.68)"/><path class="cls-1" d="M126,537c-7.61,10.17-5.43,20.33,0,30.5" transform="translate(-14.86 -10.68)"/><path class="cls-1" d="M111,299.5c4,4.77,5.69,10.09,4,16.25" transform="translate(-14.86 -10.68)"/><path class="cls-1" d="M157,648.5c.17,4.33.19,8.68.55,13a79,79,0,0,0,1.45,8" transform="translate(-14.86 -10.68)"/><path class="cls-1" d="M116,537.5l4.5,9.5" transform="translate(-14.86 -10.68)"/><path class="cls-1" d="M224,592.5c2,3.7,1.18,7-1.5,10" transform="translate(-14.86 -10.68)"/><path class="cls-1" d="M135,498.5l-3.5,9.5" transform="translate(-14.86 -10.68)"/><path class="cls-1" d="M115,614.5l-4.6,11.79c-.63,2.7-1.34,6.51-2.49,10.18-.47,1.5-1.91,2.7-2.91,4" transform="translate(-14.86 -10.68)"/><path class="cls-1" d="M188,468l5,8.5" transform="translate(-14.86 -10.68)"/><path class="cls-1" d="M112,555.5l4,9" transform="translate(-14.86 -10.68)"/><path class="cls-1" d="M137,532.5q-2.75,10-5.5,20" transform="translate(-14.86 -10.68)"/><path class="cls-1" d="M188,498l5,9.5" transform="translate(-14.86 -10.68)"/><path class="cls-1" d="M151.5,779.5c-3.6,1.58-3.32,4.35-2.54,7.51,1.13,4.61,1.52,9.54,6.37,12.55L158,796" transform="translate(-14.86 -10.68)"/><path class="cls-1" d="M102,637l2.31-.58c.24,4.86,2.35,9.81-1.81,14.08" transform="translate(-14.86 -10.68)"/><path class="cls-1" d="M170,210.5c1.44,3.26,1.89,6.18-2.5,7.5" transform="translate(-14.86 -10.68)"/><path class="cls-1" d="M202.5,553q1.25,4.75,2.5,9.5" transform="translate(-14.86 -10.68)"/><path class="cls-1" d="M130,477.5l-3.5,9.5" transform="translate(-14.86 -10.68)"/><path class="cls-1" d="M127.5,270c.33,4.83.6,9.67,1.06,14.49.08.88.94,1.68,1.44,2.51" transform="translate(-14.86 -10.68)"/><path class="cls-1" d="M144,554.5c.19,1.33.37,2.66.58,4.14l-2.18-.54q-1.69,6.71-3.4,13.4" transform="translate(-14.86 -10.68)"/><path class="cls-1" d="M200.5,536.75c-.17,3.42-.47,6.83-.45,10.25a37.07,37.07,0,0,0,.9,5.68l2-.36L201,546" transform="translate(-14.86 -10.68)"/><path class="cls-1" d="M121,519.5l4.5,9.5" transform="translate(-14.86 -10.68)"/><path class="cls-1" d="M197,471l4,8.5" transform="translate(-14.86 -10.68)"/><path class="cls-1" d="M122,733.5c.33,3.17.67,6.33,1,9.5" transform="translate(-14.86 -10.68)"/><path class="cls-1" d="M160,269.5c-1.7,3.17-2.41,6.33,0,9.5" transform="translate(-14.86 -10.68)"/><path class="cls-1" d="M138,295c-.33,3.17-.67,6.33-1,9.5" transform="translate(-14.86 -10.68)"/><path class="cls-1" d="M120,281c-.5,1.33-1.81,3.1-1.36,3.93,2.19,4.12-.43,6.94-2.14,10.07" transform="translate(-14.86 -10.68)"/><path class="cls-1" d="M206,584.5c.67,3,1.33,6,2,9" transform="translate(-14.86 -10.68)"/><path class="cls-1" d="M196,498.5c-.67,3-1.33,6-2,9" transform="translate(-14.86 -10.68)"/><path class="cls-1" d="M197.5,656c.83,3,1.67,6,2.5,9" transform="translate(-14.86 -10.68)"/><path class="cls-1" d="M174,339c3.64,5.27,5.54,11,5.05,16.74L174.5,361" transform="translate(-14.86 -10.68)"/><path class="cls-1" d="M134.5,448l4,9" transform="translate(-14.86 -10.68)"/><path class="cls-1" d="M120,519.5l-4,9" transform="translate(-14.86 -10.68)"/><path class="cls-1" d="M120,596.5q-2.5,8.63-5,17.25" transform="translate(-14.86 -10.68)"/><path class="cls-1" d="M69,511.5c-4.59,1.47-4.66,2-1,8,.19.32.33.67.5,1" transform="translate(-14.86 -10.68)"/><path class="cls-1" d="M115,573.5l-4,8.5" transform="translate(-14.86 -10.68)"/><path class="cls-1" d="M130.5,262.5q1.25,4.75,2.5,9.5" transform="translate(-14.86 -10.68)"/><path class="cls-1" d="M146.5,773.5,136,775" transform="translate(-14.86 -10.68)"/><path class="cls-1" d="M67,401l-5.17-1.31-.57,1.42Q63.12,405.06,65,409" transform="translate(-14.86 -10.68)"/><path class="cls-1" d="M167,247.5c.2,1.47.41,2.94.63,4.53l-4.13,1" transform="translate(-14.86 -10.68)"/><path class="cls-1" d="M204,527l4,6.5" transform="translate(-14.86 -10.68)"/><path class="cls-1" d="M120,554l-4.5,16.5c-.2.74-.33,1.5-.5,2.25" transform="translate(-14.86 -10.68)"/><path class="cls-1" d="M113,290.5c2.43,2.89,3.2,6.19,3.75,10,.51,3.51,3.08,6.71,4.75,10" transform="translate(-14.86 -10.68)"/><path class="cls-1" d="M70,444.5l3,8" transform="translate(-14.86 -10.68)"/><path class="cls-1" d="M140,785c.83,2.17,2,4.27,2.43,6.51,1,5.74,3.26,7.21,9.07,5.49" transform="translate(-14.86 -10.68)"/><path class="cls-1" d="M116.5,316l3.5,6.5" transform="translate(-14.86 -10.68)"/><path class="cls-1" d="M153,325.5l4.5,6" transform="translate(-14.86 -10.68)"/><path class="cls-1" d="M163,623.5l-4,12" transform="translate(-14.86 -10.68)"/><path class="cls-1" d="M99.5,617.5c2.74,4.38-.1,6.31-3.5,8" transform="translate(-14.86 -10.68)"/><path class="cls-1" d="M64,358l-1,7.5" transform="translate(-14.86 -10.68)"/><path class="cls-1" d="M123.5,793l3.08,2H142.5" transform="translate(-14.86 -10.68)"/><path class="cls-1" d="M78,563c-.26,3.82-.52,7.64-.84,12.22l6.34-1.72" transform="translate(-14.86 -10.68)"/><path class="cls-1" d="M163,772.5c-3.33,3-7.21,1.89-11,1.5" transform="translate(-14.86 -10.68)"/><path class="cls-1" d="M136.5,271l3.25,5" transform="translate(-14.86 -10.68)"/><path class="cls-1" d="M210,551.5c.33,2.5.54,5,1.06,7.49a11.76,11.76,0,0,0,1.69,3" transform="translate(-14.86 -10.68)"/><path class="cls-1" d="M99,616.5,95.75,616c.31,3.71.53,6.38.75,9" transform="translate(-14.86 -10.68)"/><path class="cls-1" d="M35.5,779l-7,.5" transform="translate(-14.86 -10.68)"/><path class="cls-1" d="M148,350.5l4,6" transform="translate(-14.86 -10.68)"/><path class="cls-1" d="M101,626.5c.72,1.81,1.44,3.63,2.33,5.9L98.5,634" transform="translate(-14.86 -10.68)"/><path class="cls-1" d="M123,323.5l4,7" transform="translate(-14.86 -10.68)"/><path class="cls-1" d="M115,537.5c-.83,2.5-1.61,5-2.52,7.49-.56,1.54-1.31,3-2,4.51" transform="translate(-14.86 -10.68)"/><path class="cls-1" d="M140,252l-3.5,6" transform="translate(-14.86 -10.68)"/><path class="cls-1" d="M177,722.5c.17,2.67.47,5.33.46,8,0,2.83-.29,5.67-.46,8.5" transform="translate(-14.86 -10.68)"/><path class="cls-1" d="M219,617.5c-2.41,2.17-1.56,4.33,0,6.5" transform="translate(-14.86 -10.68)"/><path class="cls-1" d="M155.5,786l-13,1" transform="translate(-14.86 -10.68)"/><path class="cls-1" d="M80.5,388.5l4,6.5" transform="translate(-14.86 -10.68)"/><path class="cls-1" d="M80,416.5c-.83,2.17-1.67,4.33-2.5,6.5" transform="translate(-14.86 -10.68)"/><path class="cls-1" d="M146.5,321l2.8,4.19,3.7-.44" transform="translate(-14.86 -10.68)"/><path class="cls-1" d="M162,798c-.9,2-2,3.53-4.5,2" transform="translate(-14.86 -10.68)"/><path class="cls-1" d="M109.5,556l2.14-1.43-1.91-1.75c-1.16,3.48-2.2,6.58-3.23,9.68" transform="translate(-14.86 -10.68)"/><path class="cls-1" d="M83,585c-.17,2-.84,4.11-.41,6,1.43,6.22,3.21,12.36,5,18.5.14.49,1.26.69,1.93,1" transform="translate(-14.86 -10.68)"/><path class="cls-1" d="M251.5,775h-6" transform="translate(-14.86 -10.68)"/><path class="cls-1" d="M66,384q-1.25,7.75-2.5,15.5" transform="translate(-14.86 -10.68)"/><path class="cls-1" d="M79.5,17,85,18.5" transform="translate(-14.86 -10.68)"/><path class="cls-1" d="M106,604l-1.5,4.5-1.29-.52L102,611" transform="translate(-14.86 -10.68)"/><path class="cls-1" d="M174.5,746l-5.5-1.5" transform="translate(-14.86 -10.68)"/><path class="cls-1" d="M63,368q-1.24,5.25-2.5,10.5" transform="translate(-14.86 -10.68)"/><path class="cls-1" d="M87,589.5V598" transform="translate(-14.86 -10.68)"/><path class="cls-1" d="M207,622.5c.33,3,.67,6,1,9" transform="translate(-14.86 -10.68)"/><path class="cls-1" d="M206.5,785.5l-7,2" transform="translate(-14.86 -10.68)"/><path class="cls-1" d="M121.5,282c.87,1.31,1.75,2.61,2.55,3.82l4-1.32" transform="translate(-14.86 -10.68)"/><path class="cls-1" d="M64.5,369c.67,3,1.69,6,1.88,9,.12,2.05,1.78,5.65-4,5.49l2.58-5" transform="translate(-14.86 -10.68)"/><path class="cls-1" d="M104.5,294c.17,4.17-2.62,5.38-6,6" transform="translate(-14.86 -10.68)"/><path class="cls-1" d="M167,201.5v5" transform="translate(-14.86 -10.68)"/><path class="cls-1" d="M74.5,383c.17,1.33.42,2.66.48,4,.08,1.83,0,3.67,0,5.5" transform="translate(-14.86 -10.68)"/><path class="cls-1" d="M133,259l-1.5,4" transform="translate(-14.86 -10.68)"/><path class="cls-1" d="M181,358c2.79,2.33,3.39,5.18,2,8.5" transform="translate(-14.86 -10.68)"/><path class="cls-1" d="M107,36l4.5,2" transform="translate(-14.86 -10.68)"/><path class="cls-1" d="M100,28.5l3,2.5" transform="translate(-14.86 -10.68)"/><path class="cls-1" d="M93.5,611l1.38-4L96,606.7l2,8.3" transform="translate(-14.86 -10.68)"/><path class="cls-1" d="M136.5,584.5c0,2.09-5.72,2.07-2,5.5" transform="translate(-14.86 -10.68)"/><path class="cls-1" d="M117,647.5c.24-1.46.48-2.93.71-4.39l-1.71-.2v4.59" transform="translate(-14.86 -10.68)"/><path class="cls-1" d="M126,273.5c-.22-.82-.43-1.64-.77-2.92L122,273" transform="translate(-14.86 -10.68)"/><path class="cls-1" d="M149,411.5c-.21,1.71-.43,3.42-.64,5.12l-1.53-.05L148,419.5" transform="translate(-14.86 -10.68)"/><path class="cls-1" d="M59.5,386.5l.5,4" transform="translate(-14.86 -10.68)"/><path class="cls-1" d="M81,396.5v4" transform="translate(-14.86 -10.68)"/><path class="cls-1" d="M87.5,396l-3.74-.6Q82.88,398,82,400.5" transform="translate(-14.86 -10.68)"/><path class="cls-1" d="M106,566.5l.57-4-2.14.09.57,3.88" transform="translate(-14.86 -10.68)"/><path class="cls-1" d="M90.5,615c1.14,3.86-.41,9.13,5.5,10.5" transform="translate(-14.86 -10.68)"/><path class="cls-1" d="M91.5,599.5c.17,2.17.33,4.33.5,6.5" transform="translate(-14.86 -10.68)"/><path class="cls-1" d="M138,532.5c1,2.44,1.2,4.59-2,5.5" transform="translate(-14.86 -10.68)"/><path class="cls-1" d="M147,254.5l2.5,5.5" transform="translate(-14.86 -10.68)"/><path class="cls-1" d="M62,376l3,.5" transform="translate(-14.86 -10.68)"/><path class="cls-1" d="M131,553.5v3.06l1-.06v-3" transform="translate(-14.86 -10.68)"/><path class="cls-1" d="M96.5,611.5a20,20,0,0,1-3,0c-1.35-.21-2.67-.64-4-1" transform="translate(-14.86 -10.68)"/><path class="cls-1" d="M87,607l7.5.5" transform="translate(-14.86 -10.68)"/><path class="cls-1" d="M85,599c1.17.33,3.14.41,3.35,1,.6,1.86.48,4,.65,6" transform="translate(-14.86 -10.68)"/><path class="cls-1" d="M209.5,784.5,211,786" transform="translate(-14.86 -10.68)"/><path class="cls-1" d="M215,785l-1.5-.5" transform="translate(-14.86 -10.68)"/></g></g></svg>